LobsterThai1.7.ufo
<glyph name="exclam" format="1">
  <advance width="526"/>
  <unicode hex="0021"/>
  <note>
	exclam
  </note>
  <outline>
    <contour>
      <point x="375" y="473" type="line"/>
      <point x="672" y="1540" type="line"/>
      <point x="357" y="1497" type="line"/>
      <point x="201" y="473" type="line"/>
    </contour>
    <contour>
      <point x="275" y="-12"/>
      <point x="316" y="7"/>
      <point x="345" y="36" type="curve" smooth="yes"/>
      <point x="374" y="65"/>
      <point x="392" y="107"/>
      <point x="392" y="152" type="curve" smooth="yes"/>
      <point x="392" y="197"/>
      <point x="374" y="237"/>
      <point x="345" y="266" type="curve" smooth="yes"/>
      <point x="316" y="295"/>
      <point x="275" y="313"/>
      <point x="230" y="313" type="curve" smooth="yes"/>
      <point x="185" y="313"/>
      <point x="145" y="295"/>
      <point x="115" y="266" type="curve" smooth="yes"/>
      <point x="85" y="237"/>
      <point x="66" y="197"/>
      <point x="66" y="152" type="curve" smooth="yes"/>
      <point x="66" y="107"/>
      <point x="85" y="65"/>
      <point x="115" y="36" type="curve" smooth="yes"/>
      <point x="145" y="7"/>
      <point x="185" y="-12"/>
      <point x="230" y="-12" type="curve" smooth="yes"/>
    </contour>
  </outline>
</glyph>
<glyph name="ampersand" format="1">
  <advance width="1397"/>
  <unicode hex="0026"/>
  <note>
	ampersand
  </note>
  <outline>
    <contour>
      <point x="618" y="-37"/>
      <point x="767" y="21"/>
      <point x="877" y="123" type="curve" smooth="yes"/>
      <point x="987" y="225"/>
      <point x="1059" y="370"/>
      <point x="1079" y="546" type="curve"/>
      <point x="1106" y="547"/>
      <point x="1131" y="550"/>
      <point x="1162" y="558" type="curve"/>
      <point x="1223" y="578"/>
      <point x="1277" y="617"/>
      <point x="1312" y="666" type="curve" smooth="yes"/>
      <point x="1347" y="714"/>
      <point x="1362" y="773"/>
      <point x="1345" y="830" type="curve" smooth="yes"/>
      <point x="1337" y="857"/>
      <point x="1324" y="882"/>
      <point x="1301" y="905" type="curve"/>
      <point x="1296" y="905" type="line"/>
      <point x="1281" y="884"/>
      <point x="1256" y="861"/>
      <point x="1226" y="840" type="curve" smooth="yes"/>
      <point x="1196" y="819"/>
      <point x="1160" y="801"/>
      <point x="1128" y="790" type="curve"/>
      <point x="1087" y="781"/>
      <point x="1040" y="778"/>
      <point x="993" y="774" type="curve" smooth="yes"/>
      <point x="946" y="770"/>
      <point x="898" y="765"/>
      <point x="854" y="752" type="curve"/>
      <point x="798" y="733"/>
      <point x="748" y="699"/>
      <point x="717" y="655" type="curve" smooth="yes"/>
      <point x="685" y="610"/>
      <point x="673" y="555"/>
      <point x="690" y="495" type="curve" smooth="yes"/>
      <point x="698" y="470"/>
      <point x="709" y="445"/>
      <point x="728" y="422" type="curve"/>
      <point x="733" y="423" type="line"/>
      <point x="764" y="468"/>
      <point x="822" y="508"/>
      <point x="894" y="533" type="curve"/>
      <point x="929" y="542"/>
      <point x="957" y="545"/>
      <point x="988" y="546" type="curve"/>
      <point x="968" y="431"/>
      <point x="911" y="335"/>
      <point x="839" y="267" type="curve" smooth="yes"/>
      <point x="766" y="199"/>
      <point x="675" y="160"/>
      <point x="586" y="160" type="curve" smooth="yes"/>
      <point x="461" y="160"/>
      <point x="385" y="244"/>
      <point x="385" y="385" type="curve" smooth="yes"/>
      <point x="385" y="492"/>
      <point x="427" y="599"/>
      <point x="495" y="685" type="curve" smooth="yes"/>
      <point x="562" y="771"/>
      <point x="653" y="833"/>
      <point x="752" y="852" type="curve"/>
      <point x="752" y="860" type="line"/>
      <point x="623" y="893"/>
      <point x="545" y="991"/>
      <point x="545" y="1128" type="curve" smooth="yes"/>
      <point x="545" y="1205"/>
      <point x="570" y="1279"/>
      <point x="609" y="1334" type="curve" smooth="yes"/>
      <point x="648" y="1389"/>
      <point x="700" y="1423"/>
      <point x="756" y="1423" type="curve" smooth="yes"/>
      <point x="821" y="1423"/>
      <point x="862" y="1376"/>
      <point x="862" y="1300" type="curve" smooth="yes"/>
      <point x="862" y="1229"/>
      <point x="827" y="1161"/>
      <point x="778" y="1130" type="curve"/>
      <point x="809" y="1090"/>
      <point x="852" y="1067"/>
      <point x="903" y="1067" type="curve" smooth="yes"/>
      <point x="948" y="1067"/>
      <point x="988" y="1087"/>
      <point x="1016" y="1120" type="curve" smooth="yes"/>
      <point x="1043" y="1153"/>
      <point x="1059" y="1201"/>
      <point x="1059" y="1257" type="curve" smooth="yes"/>
      <point x="1059" y="1338"/>
      <point x="1026" y="1409"/>
      <point x="970" y="1460" type="curve" smooth="yes"/>
      <point x="913" y="1511"/>
      <point x="832" y="1540"/>
      <point x="739" y="1540" type="curve" smooth="yes"/>
      <point x="616" y="1540"/>
      <point x="504" y="1490"/>
      <point x="423" y="1413" type="curve" smooth="yes"/>
      <point x="342" y="1336"/>
      <point x="291" y="1230"/>
      <point x="291" y="1118" type="curve" smooth="yes"/>
      <point x="291" y="1059"/>
      <point x="298" y="1012"/>
      <point x="317" y="971" type="curve" smooth="yes"/>
      <point x="336" y="930"/>
      <point x="364" y="894"/>
      <point x="408" y="858" type="curve"/>
      <point x="408" y="850" type="line"/>
      <point x="303" y="819"/>
      <point x="208" y="746"/>
      <point x="140" y="652" type="curve" smooth="yes"/>
      <point x="71" y="558"/>
      <point x="29" y="443"/>
      <point x="29" y="328" type="curve" smooth="yes"/>
      <point x="29" y="215"/>
      <point x="69" y="124"/>
      <point x="141" y="61" type="curve" smooth="yes"/>
      <point x="213" y="-3"/>
      <point x="317" y="-37"/>
      <point x="446" y="-37" type="curve" smooth="yes"/>
    </contour>
  </outline>
</glyph>
<glyph name="parenleft" format="1">
  <advance width="895"/>
  <unicode hex="0028"/>
  <note>
	parenleft
  </note>
  <outline>
    <contour>
      <point x="694" y="-426" type="line"/>
      <point x="593" y="-251"/>
      <point x="540" y="-19"/>
      <point x="540" y="242" type="curve" smooth="yes"/>
      <point x="540" y="419"/>
      <point x="566" y="595"/>
      <point x="611" y="758" type="curve" smooth="yes"/>
      <point x="656" y="921"/>
      <point x="723" y="1069"/>
      <point x="804" y="1194" type="curve" smooth="yes"/>
      <point x="885" y="1318"/>
      <point x="981" y="1417"/>
      <point x="1089" y="1481" type="curve"/>
      <point x="1062" y="1563" type="line"/>
      <point x="834" y="1452"/>
      <point x="645" y="1276"/>
      <point x="514" y="1062" type="curve" smooth="yes"/>
      <point x="382" y="848"/>
      <point x="307" y="596"/>
      <point x="307" y="336" type="curve" smooth="yes"/>
      <point x="307" y="175"/>
      <point x="336" y="21"/>
      <point x="390" y="-118" type="curve" smooth="yes"/>
      <point x="444" y="-257"/>
      <point x="523" y="-382"/>
      <point x="626" y="-485" type="curve"/>
    </contour>
  </outline>
</glyph>
<glyph name="parenright" format="1">
  <advance width="846"/>
  <unicode hex="0029"/>
  <note>
	parenright
  </note>
  <outline>
    <contour>
      <point x="115" y="-374"/>
      <point x="304" y="-198"/>
      <point x="436" y="16" type="curve" smooth="yes"/>
      <point x="567" y="230"/>
      <point x="642" y="481"/>
      <point x="642" y="741" type="curve" smooth="yes"/>
      <point x="642" y="902"/>
      <point x="614" y="1056"/>
      <point x="560" y="1196" type="curve" smooth="yes"/>
      <point x="506" y="1335"/>
      <point x="426" y="1459"/>
      <point x="323" y="1563" type="curve"/>
      <point x="255" y="1503" type="line"/>
      <point x="356" y="1328"/>
      <point x="409" y="1097"/>
      <point x="409" y="836" type="curve" smooth="yes"/>
      <point x="409" y="657"/>
      <point x="383" y="482"/>
      <point x="338" y="319" type="curve" smooth="yes"/>
      <point x="293" y="156"/>
      <point x="226" y="8"/>
      <point x="145" y="-116" type="curve" smooth="yes"/>
      <point x="64" y="-240"/>
      <point x="-33" y="-340"/>
      <point x="-140" y="-403" type="curve"/>
      <point x="-113" y="-485" type="line"/>
    </contour>
  </outline>
</glyph>
<glyph name="asterisk" format="1">
  <advance width="1055"/>
  <unicode hex="002A"/>
  <note>
	asterisk
  </note>
  <outline>
    <contour>
      <point x="580" y="753"/>
      <point x="617" y="796"/>
      <point x="617" y="882" type="curve" smooth="yes"/>
      <point x="617" y="933"/>
      <point x="603" y="992"/>
      <point x="583" y="1067" type="curve"/>
      <point x="789" y="884" type="line"/>
      <point x="818" y="909"/>
      <point x="837" y="929"/>
      <point x="849" y="949" type="curve" smooth="yes"/>
      <point x="860" y="968"/>
      <point x="863" y="986"/>
      <point x="863" y="1009" type="curve" smooth="yes"/>
      <point x="863" y="1042"/>
      <point x="852" y="1071"/>
      <point x="816" y="1096" type="curve" smooth="yes"/>
      <point x="779" y="1121"/>
      <point x="717" y="1142"/>
      <point x="617" y="1161" type="curve"/>
      <point x="882" y="1247" type="line"/>
      <point x="885" y="1255"/>
      <point x="886" y="1265"/>
      <point x="886" y="1274" type="curve" smooth="yes"/>
      <point x="886" y="1342"/>
      <point x="846" y="1390"/>
      <point x="783" y="1390" type="curve" smooth="yes"/>
      <point x="726" y="1390"/>
      <point x="663" y="1352"/>
      <point x="583" y="1253" type="curve"/>
      <point x="634" y="1550" type="line"/>
      <point x="599" y="1561"/>
      <point x="570" y="1566"/>
      <point x="546" y="1566" type="curve" smooth="yes"/>
      <point x="473" y="1566"/>
      <point x="437" y="1523"/>
      <point x="437" y="1437" type="curve" smooth="yes"/>
      <point x="437" y="1388"/>
      <point x="449" y="1328"/>
      <point x="472" y="1253" type="curve"/>
      <point x="265" y="1435" type="line"/>
      <point x="236" y="1411"/>
      <point x="217" y="1391"/>
      <point x="205" y="1372" type="curve" smooth="yes"/>
      <point x="193" y="1352"/>
      <point x="189" y="1333"/>
      <point x="189" y="1310" type="curve" smooth="yes"/>
      <point x="189" y="1278"/>
      <point x="200" y="1249"/>
      <point x="237" y="1225" type="curve" smooth="yes"/>
      <point x="273" y="1200"/>
      <point x="336" y="1178"/>
      <point x="437" y="1161" type="curve"/>
      <point x="177" y="1077" type="line"/>
      <point x="176" y="1073"/>
      <point x="175" y="1069"/>
      <point x="175" y="1064" type="curve" smooth="yes"/>
      <point x="175" y="1059"/>
      <point x="175" y="1055"/>
      <point x="175" y="1050" type="curve" smooth="yes"/>
      <point x="175" y="982"/>
      <point x="216" y="934"/>
      <point x="277" y="934" type="curve" smooth="yes"/>
      <point x="333" y="934"/>
      <point x="392" y="968"/>
      <point x="472" y="1067" type="curve"/>
      <point x="421" y="770" type="line"/>
      <point x="456" y="759"/>
      <point x="484" y="753"/>
      <point x="507" y="753" type="curve" smooth="yes"/>
    </contour>
  </outline>
</glyph>
<glyph name="comma" format="1">
  <advance width="442"/>
  <unicode hex="002C"/>
  <note>
	comma
  </note>
  <outline>
    <contour>
      <point x="168" y="-201"/>
      <point x="235" y="-126"/>
      <point x="280" y="-50" type="curve" smooth="yes"/>
      <point x="325" y="25"/>
      <point x="350" y="102"/>
      <point x="350" y="162" type="curve" smooth="yes"/>
      <point x="350" y="253"/>
      <point x="302" y="317"/>
      <point x="211" y="317" type="curve" smooth="yes"/>
      <point x="166" y="317"/>
      <point x="125" y="298"/>
      <point x="96" y="269" type="curve" smooth="yes"/>
      <point x="67" y="240"/>
      <point x="49" y="199"/>
      <point x="49" y="154" type="curve" smooth="yes"/>
      <point x="49" y="86"/>
      <point x="89" y="39"/>
      <point x="145" y="4" type="curve" smooth="yes"/>
      <point x="164" y="-8"/>
      <point x="172" y="-22"/>
      <point x="172" y="-37" type="curve" smooth="yes"/>
      <point x="172" y="-76"/>
      <point x="146" y="-103"/>
      <point x="119" y="-131" type="curve" smooth="yes"/>
      <point x="92" y="-159"/>
      <point x="66" y="-187"/>
      <point x="66" y="-223" type="curve" smooth="yes"/>
      <point x="66" y="-238"/>
      <point x="72" y="-250"/>
      <point x="84" y="-258" type="curve"/>
    </contour>
  </outline>
</glyph>
<glyph name="slash" format="1">
  <advance width="637"/>
  <unicode hex="002F"/>
  <note>
	slash
  </note>
  <outline>
    <contour>
      <point x="170" y="-512" type="line"/>
      <point x="604" y="1536" type="line"/>
      <point x="457" y="1536" type="line"/>
      <point x="23" y="-512" type="line"/>
    </contour>
  </outline>
</glyph>
<glyph name="zero" format="1">
  <advance width="1118"/>
  <unicode hex="0030"/>
  <note>
	zero
  </note>
  <outline>
    <contour>
      <point x="581" y="-21"/>
      <point x="687" y="22"/>
      <point x="775" y="91" type="curve" smooth="yes"/>
      <point x="862" y="160"/>
      <point x="931" y="258"/>
      <point x="984" y="367" type="curve" smooth="yes"/>
      <point x="1037" y="476"/>
      <point x="1075" y="599"/>
      <point x="1099" y="719" type="curve" smooth="yes"/>
      <point x="1123" y="838"/>
      <point x="1134" y="954"/>
      <point x="1134" y="1054" type="curve" smooth="yes"/>
      <point x="1134" y="1202"/>
      <point x="1103" y="1326"/>
      <point x="1039" y="1412" type="curve" smooth="yes"/>
      <point x="974" y="1498"/>
      <point x="875" y="1547"/>
      <point x="740" y="1547" type="curve" smooth="yes"/>
      <point x="601" y="1547"/>
      <point x="478" y="1492"/>
      <point x="375" y="1399" type="curve" smooth="yes"/>
      <point x="271" y="1306"/>
      <point x="188" y="1173"/>
      <point x="131" y="1017" type="curve" smooth="yes"/>
      <point x="74" y="860"/>
      <point x="43" y="679"/>
      <point x="43" y="491" type="curve" smooth="yes"/>
      <point x="43" y="348"/>
      <point x="66" y="220"/>
      <point x="129" y="128" type="curve" smooth="yes"/>
      <point x="192" y="36"/>
      <point x="296" y="-21"/>
      <point x="456" y="-21" type="curve" smooth="yes"/>
    </contour>
    <contour>
      <point x="427" y="134"/>
      <point x="394" y="172"/>
      <point x="375" y="229" type="curve" smooth="yes"/>
      <point x="355" y="286"/>
      <point x="349" y="363"/>
      <point x="349" y="440" type="curve" smooth="yes"/>
      <point x="349" y="592"/>
      <point x="371" y="752"/>
      <point x="407" y="898" type="curve" smooth="yes"/>
      <point x="442" y="1044"/>
      <point x="493" y="1175"/>
      <point x="550" y="1271" type="curve" smooth="yes"/>
      <point x="607" y="1366"/>
      <point x="672" y="1425"/>
      <point x="737" y="1425" type="curve" smooth="yes"/>
      <point x="778" y="1425"/>
      <point x="808" y="1391"/>
      <point x="828" y="1336" type="curve" smooth="yes"/>
      <point x="847" y="1280"/>
      <point x="856" y="1206"/>
      <point x="856" y="1126" type="curve" smooth="yes"/>
      <point x="856" y="967"/>
      <point x="837" y="805"/>
      <point x="805" y="658" type="curve" smooth="yes"/>
      <point x="772" y="510"/>
      <point x="725" y="380"/>
      <point x="670" y="286" type="curve" smooth="yes"/>
      <point x="614" y="192"/>
      <point x="550" y="134"/>
      <point x="483" y="134" type="curve" smooth="yes"/>
    </contour>
  </outline>
</glyph>
<glyph name="one" format="1">
  <advance width="649"/>
  <unicode hex="0031"/>
  <note>
	one
  </note>
  <outline>
    <contour>
      <point x="338" y="0" type="line"/>
      <point x="664" y="1532" type="line"/>
      <point x="540" y="1457"/>
      <point x="438" y="1419"/>
      <point x="353" y="1397" type="curve" smooth="yes"/>
      <point x="268" y="1375"/>
      <point x="199" y="1372"/>
      <point x="143" y="1372" type="curve"/>
      <point x="119" y="1278" type="line"/>
      <point x="313" y="1278" type="line"/>
      <point x="43" y="0" type="line"/>
    </contour>
  </outline>
</glyph>
<glyph name="two" format="1">
  <advance width="1008"/>
  <unicode hex="0032"/>
  <note>
	two
  </note>
  <outline>
    <contour>
      <point x="713" y="-25"/>
      <point x="781" y="0"/>
      <point x="832" y="44" type="curve" smooth="yes"/>
      <point x="883" y="87"/>
      <point x="915" y="148"/>
      <point x="915" y="223" type="curve" smooth="yes"/>
      <point x="915" y="260"/>
      <point x="906" y="302"/>
      <point x="889" y="350" type="curve"/>
      <point x="883" y="354" type="line"/>
      <point x="812" y="275"/>
      <point x="752" y="250"/>
      <point x="683" y="250" type="curve" smooth="yes"/>
      <point x="636" y="250"/>
      <point x="585" y="261"/>
      <point x="528" y="273" type="curve" smooth="yes"/>
      <point x="471" y="285"/>
      <point x="409" y="296"/>
      <point x="341" y="296" type="curve" smooth="yes"/>
      <point x="300" y="296"/>
      <point x="261" y="293"/>
      <point x="216" y="281" type="curve"/>
      <point x="237" y="319"/>
      <point x="263" y="355"/>
      <point x="296" y="390" type="curve" smooth="yes"/>
      <point x="360" y="459"/>
      <point x="440" y="526"/>
      <point x="526" y="591" type="curve" smooth="yes"/>
      <point x="569" y="623"/>
      <point x="611" y="656"/>
      <point x="653" y="689" type="curve" smooth="yes"/>
      <point x="736" y="756"/>
      <point x="815" y="826"/>
      <point x="873" y="903" type="curve" smooth="yes"/>
      <point x="931" y="980"/>
      <point x="967" y="1064"/>
      <point x="967" y="1163" type="curve" smooth="yes"/>
      <point x="967" y="1280"/>
      <point x="926" y="1374"/>
      <point x="855" y="1438" type="curve" smooth="yes"/>
      <point x="784" y="1502"/>
      <point x="685" y="1537"/>
      <point x="569" y="1537" type="curve" smooth="yes"/>
      <point x="429" y="1537"/>
      <point x="321" y="1491"/>
      <point x="249" y="1424" type="curve" smooth="yes"/>
      <point x="177" y="1356"/>
      <point x="139" y="1268"/>
      <point x="139" y="1187" type="curve" smooth="yes"/>
      <point x="139" y="1119"/>
      <point x="156" y="1066"/>
      <point x="183" y="1030" type="curve" smooth="yes"/>
      <point x="210" y="994"/>
      <point x="247" y="975"/>
      <point x="287" y="975" type="curve" smooth="yes"/>
      <point x="338" y="975"/>
      <point x="395" y="1001"/>
      <point x="442" y="1044" type="curve"/>
      <point x="442" y="1052" type="line"/>
      <point x="389" y="1084"/>
      <point x="344" y="1156"/>
      <point x="344" y="1256" type="curve" smooth="yes"/>
      <point x="344" y="1301"/>
      <point x="361" y="1344"/>
      <point x="389" y="1374" type="curve" smooth="yes"/>
      <point x="417" y="1404"/>
      <point x="458" y="1422"/>
      <point x="506" y="1422" type="curve" smooth="yes"/>
      <point x="559" y="1422"/>
      <point x="598" y="1395"/>
      <point x="623" y="1351" type="curve" smooth="yes"/>
      <point x="648" y="1306"/>
      <point x="659" y="1242"/>
      <point x="659" y="1169" type="curve" smooth="yes"/>
      <point x="659" y="1058"/>
      <point x="617" y="961"/>
      <point x="553" y="870" type="curve" smooth="yes"/>
      <point x="489" y="778"/>
      <point x="403" y="694"/>
      <point x="319" y="611" type="curve" smooth="yes"/>
      <point x="276" y="570"/>
      <point x="235" y="529"/>
      <point x="194" y="488" type="curve" smooth="yes"/>
      <point x="112" y="406"/>
      <point x="45" y="322"/>
      <point x="6" y="233" type="curve" smooth="yes"/>
      <point x="-34" y="144"/>
      <point x="-29" y="63"/>
      <point x="-13" y="-2" type="curve"/>
      <point x="-5" y="-2" type="line"/>
      <point x="79" y="42"/>
      <point x="151" y="57"/>
      <point x="222" y="57" type="curve" smooth="yes"/>
      <point x="298" y="57"/>
      <point x="371" y="36"/>
      <point x="440" y="16" type="curve" smooth="yes"/>
      <point x="509" y="-4"/>
      <point x="576" y="-25"/>
      <point x="641" y="-25" type="curve" smooth="yes"/>
    </contour>
  </outline>
</glyph>
<glyph name="four" format="1">
  <advance width="975"/>
  <unicode hex="0034"/>
  <note>
	four
  </note>
  <outline>
    <contour>
      <point x="668" y="0" type="line"/>
      <point x="757" y="422" type="line"/>
      <point x="820" y="434"/>
      <point x="875" y="462"/>
      <point x="915" y="501" type="curve" smooth="yes"/>
      <point x="954" y="540"/>
      <point x="977" y="589"/>
      <point x="977" y="644" type="curve" smooth="yes"/>
      <point x="977" y="680"/>
      <point x="967" y="717"/>
      <point x="944" y="756" type="curve"/>
      <point x="938" y="760" type="line"/>
      <point x="895" y="711"/>
      <point x="852" y="680"/>
      <point x="808" y="663" type="curve"/>
      <point x="909" y="1139" type="line"/>
      <point x="778" y="1139" type="line"/>
      <point x="612" y="661" type="line"/>
      <point x="540" y="674"/>
      <point x="463" y="691"/>
      <point x="399" y="691" type="curve" smooth="yes"/>
      <point x="334" y="691"/>
      <point x="262" y="673"/>
      <point x="217" y="654" type="curve"/>
      <point x="215" y="660" type="line"/>
      <point x="283" y="713"/>
      <point x="362" y="786"/>
      <point x="438" y="865" type="curve" smooth="yes"/>
      <point x="513" y="944"/>
      <point x="585" y="1030"/>
      <point x="638" y="1113" type="curve" smooth="yes"/>
      <point x="691" y="1196"/>
      <point x="725" y="1275"/>
      <point x="725" y="1342" type="curve" smooth="yes"/>
      <point x="725" y="1391"/>
      <point x="708" y="1436"/>
      <point x="675" y="1468" type="curve" smooth="yes"/>
      <point x="642" y="1500"/>
      <point x="594" y="1519"/>
      <point x="530" y="1519" type="curve" smooth="yes"/>
      <point x="498" y="1519"/>
      <point x="459" y="1515"/>
      <point x="428" y="1506" type="curve"/>
      <point x="439" y="1465"/>
      <point x="444" y="1422"/>
      <point x="444" y="1379" type="curve" smooth="yes"/>
      <point x="444" y="1244"/>
      <point x="389" y="1104"/>
      <point x="306" y="963" type="curve" smooth="yes"/>
      <point x="222" y="822"/>
      <point x="111" y="680"/>
      <point x="-4" y="543" type="curve"/>
      <point x="-4" y="533" type="line"/>
      <point x="39" y="453" type="line"/>
      <point x="47" y="453" type="line"/>
      <point x="122" y="490"/>
      <point x="199" y="496"/>
      <point x="268" y="496" type="curve" smooth="yes"/>
      <point x="364" y="496"/>
      <point x="451" y="465"/>
      <point x="536" y="441" type="curve"/>
      <point x="383" y="0" type="line"/>
    </contour>
  </outline>
</glyph>
<glyph name="seven" format="1">
  <advance width="950"/>
  <unicode hex="0037"/>
  <note>
	seven
  </note>
  <outline>
    <contour>
      <point x="403" y="-8"/>
      <point x="453" y="3"/>
      <point x="502" y="30" type="curve"/>
      <point x="479" y="94"/>
      <point x="465" y="170"/>
      <point x="465" y="242" type="curve" smooth="yes"/>
      <point x="465" y="299"/>
      <point x="474" y="359"/>
      <point x="491" y="421" type="curve" smooth="yes"/>
      <point x="526" y="545"/>
      <point x="584" y="672"/>
      <point x="656" y="799" type="curve" smooth="yes"/>
      <point x="728" y="926"/>
      <point x="805" y="1046"/>
      <point x="877" y="1155" type="curve" smooth="yes"/>
      <point x="913" y="1210"/>
      <point x="945" y="1260"/>
      <point x="974" y="1307" type="curve" smooth="yes"/>
      <point x="1030" y="1399"/>
      <point x="1068" y="1473"/>
      <point x="1068" y="1518" type="curve"/>
      <point x="1064" y="1526" type="line"/>
      <point x="956" y="1497"/>
      <point x="861" y="1483"/>
      <point x="788" y="1483" type="curve" smooth="yes"/>
      <point x="708" y="1483"/>
      <point x="646" y="1500"/>
      <point x="586" y="1516" type="curve" smooth="yes"/>
      <point x="525" y="1532"/>
      <point x="467" y="1549"/>
      <point x="398" y="1549" type="curve" smooth="yes"/>
      <point x="315" y="1549"/>
      <point x="245" y="1525"/>
      <point x="195" y="1484" type="curve" smooth="yes"/>
      <point x="145" y="1443"/>
      <point x="116" y="1383"/>
      <point x="116" y="1311" type="curve" smooth="yes"/>
      <point x="116" y="1271"/>
      <point x="124" y="1227"/>
      <point x="143" y="1186" type="curve"/>
      <point x="149" y="1184" type="line"/>
      <point x="213" y="1260"/>
      <point x="270" y="1290"/>
      <point x="351" y="1290" type="curve" smooth="yes"/>
      <point x="400" y="1290"/>
      <point x="444" y="1279"/>
      <point x="487" y="1268" type="curve" smooth="yes"/>
      <point x="530" y="1256"/>
      <point x="573" y="1245"/>
      <point x="618" y="1245" type="curve" smooth="yes"/>
      <point x="665" y="1245"/>
      <point x="704" y="1257"/>
      <point x="755" y="1272" type="curve"/>
      <point x="755" y="1253"/>
      <point x="746" y="1229"/>
      <point x="729" y="1201" type="curve" smooth="yes"/>
      <point x="694" y="1145"/>
      <point x="637" y="1074"/>
      <point x="565" y="990" type="curve" smooth="yes"/>
      <point x="528" y="948"/>
      <point x="491" y="904"/>
      <point x="454" y="857" type="curve" smooth="yes"/>
      <point x="379" y="764"/>
      <point x="303" y="663"/>
      <point x="247" y="559" type="curve" smooth="yes"/>
      <point x="191" y="454"/>
      <point x="153" y="345"/>
      <point x="153" y="240" type="curve" smooth="yes"/>
      <point x="153" y="163"/>
      <point x="173" y="101"/>
      <point x="209" y="58" type="curve" smooth="yes"/>
      <point x="244" y="15"/>
      <point x="295" y="-8"/>
      <point x="358" y="-8" type="curve" smooth="yes"/>
    </contour>
  </outline>
</glyph>
<glyph name="nine" format="1">
  <advance width="1001"/>
  <unicode hex="0039"/>
  <note>
	nine
  </note>
  <outline>
    <contour>
      <point x="452" y="-6"/>
      <point x="571" y="43"/>
      <point x="672" y="130" type="curve" smooth="yes"/>
      <point x="773" y="217"/>
      <point x="857" y="340"/>
      <point x="916" y="489" type="curve" smooth="yes"/>
      <point x="975" y="637"/>
      <point x="1008" y="811"/>
      <point x="1008" y="998" type="curve" smooth="yes"/>
      <point x="1008" y="1357"/>
      <point x="880" y="1537"/>
      <point x="627" y="1537" type="curve" smooth="yes"/>
      <point x="524" y="1537"/>
      <point x="427" y="1509"/>
      <point x="343" y="1459" type="curve" smooth="yes"/>
      <point x="258" y="1409"/>
      <point x="186" y="1337"/>
      <point x="135" y="1253" type="curve" smooth="yes"/>
      <point x="84" y="1169"/>
      <point x="55" y="1072"/>
      <point x="55" y="971" type="curve" smooth="yes"/>
      <point x="55" y="860"/>
      <point x="87" y="772"/>
      <point x="142" y="711" type="curve" smooth="yes"/>
      <point x="197" y="650"/>
      <point x="275" y="617"/>
      <point x="370" y="617" type="curve" smooth="yes"/>
      <point x="521" y="617"/>
      <point x="639" y="681"/>
      <point x="688" y="809" type="curve"/>
      <point x="695" y="811" type="line"/>
      <point x="670" y="618"/>
      <point x="618" y="448"/>
      <point x="551" y="327" type="curve" smooth="yes"/>
      <point x="483" y="206"/>
      <point x="400" y="133"/>
      <point x="315" y="133" type="curve" smooth="yes"/>
      <point x="244" y="133"/>
      <point x="212" y="181"/>
      <point x="212" y="233" type="curve" smooth="yes"/>
      <point x="212" y="278"/>
      <point x="236" y="326"/>
      <point x="279" y="350" type="curve"/>
      <point x="266" y="389"/>
      <point x="223" y="416"/>
      <point x="174" y="416" type="curve" smooth="yes"/>
      <point x="131" y="416"/>
      <point x="96" y="395"/>
      <point x="69" y="360" type="curve" smooth="yes"/>
      <point x="42" y="325"/>
      <point x="27" y="278"/>
      <point x="27" y="226" type="curve" smooth="yes"/>
      <point x="27" y="155"/>
      <point x="56" y="98"/>
      <point x="108" y="58" type="curve" smooth="yes"/>
      <point x="159" y="17"/>
      <point x="233" y="-6"/>
      <point x="324" y="-6" type="curve" smooth="yes"/>
    </contour>
    <contour>
      <point x="416" y="766"/>
      <point x="382" y="782"/>
      <point x="356" y="816" type="curve" smooth="yes"/>
      <point x="330" y="850"/>
      <point x="315" y="902"/>
      <point x="315" y="977" type="curve" smooth="yes"/>
      <point x="315" y="1080"/>
      <point x="342" y="1186"/>
      <point x="387" y="1267" type="curve" smooth="yes"/>
      <point x="431" y="1347"/>
      <point x="494" y="1402"/>
      <point x="565" y="1402" type="curve" smooth="yes"/>
      <point x="633" y="1402"/>
      <point x="671" y="1361"/>
      <point x="691" y="1308" type="curve" smooth="yes"/>
      <point x="711" y="1255"/>
      <point x="715" y="1191"/>
      <point x="715" y="1143" type="curve" smooth="yes"/>
      <point x="715" y="1032"/>
      <point x="698" y="939"/>
      <point x="658" y="872" type="curve" smooth="yes"/>
      <point x="617" y="805"/>
      <point x="552" y="766"/>
      <point x="459" y="766" type="curve" smooth="yes"/>
    </contour>
  </outline>
</glyph>
<glyph name="colon" format="1">
  <advance width="547"/>
  <unicode hex="003A"/>
  <note>
	colon
  </note>
  <outline>
    <contour>
      <point x="393" y="606"/>
      <point x="434" y="624"/>
      <point x="464" y="653" type="curve" smooth="yes"/>
      <point x="494" y="682"/>
      <point x="512" y="723"/>
      <point x="512" y="768" type="curve" smooth="yes"/>
      <point x="512" y="813"/>
      <point x="494" y="854"/>
      <point x="464" y="884" type="curve" smooth="yes"/>
      <point x="434" y="914"/>
      <point x="393" y="932"/>
      <point x="348" y="932" type="curve" smooth="yes"/>
      <point x="303" y="932"/>
      <point x="262" y="914"/>
      <point x="233" y="884" type="curve" smooth="yes"/>
      <point x="204" y="854"/>
      <point x="186" y="813"/>
      <point x="186" y="768" type="curve" smooth="yes"/>
      <point x="186" y="723"/>
      <point x="204" y="682"/>
      <point x="233" y="653" type="curve" smooth="yes"/>
      <point x="262" y="624"/>
      <point x="303" y="606"/>
      <point x="348" y="606" type="curve" smooth="yes"/>
    </contour>
    <contour>
      <point x="291" y="115"/>
      <point x="332" y="133"/>
      <point x="362" y="162" type="curve" smooth="yes"/>
      <point x="392" y="190"/>
      <point x="410" y="231"/>
      <point x="410" y="276" type="curve" smooth="yes"/>
      <point x="410" y="321"/>
      <point x="392" y="363"/>
      <point x="362" y="392" type="curve" smooth="yes"/>
      <point x="332" y="421"/>
      <point x="291" y="440"/>
      <point x="246" y="440" type="curve" smooth="yes"/>
      <point x="201" y="440"/>
      <point x="160" y="421"/>
      <point x="131" y="392" type="curve" smooth="yes"/>
      <point x="102" y="363"/>
      <point x="84" y="321"/>
      <point x="84" y="276" type="curve" smooth="yes"/>
      <point x="84" y="231"/>
      <point x="102" y="190"/>
      <point x="131" y="162" type="curve" smooth="yes"/>
      <point x="160" y="133"/>
      <point x="201" y="115"/>
      <point x="246" y="115" type="curve" smooth="yes"/>
    </contour>
  </outline>
</glyph>
<glyph name="question" format="1">
  <advance width="903"/>
  <unicode hex="003F"/>
  <note>
	question
  </note>
  <outline>
    <contour>
      <point x="351" y="475" type="line"/>
      <point x="351" y="570"/>
      <point x="385" y="647"/>
      <point x="435" y="712" type="curve" smooth="yes"/>
      <point x="485" y="777"/>
      <point x="552" y="833"/>
      <point x="618" y="888" type="curve" smooth="yes"/>
      <point x="684" y="943"/>
      <point x="751" y="998"/>
      <point x="801" y="1060" type="curve" smooth="yes"/>
      <point x="851" y="1122"/>
      <point x="884" y="1192"/>
      <point x="884" y="1280" type="curve" smooth="yes"/>
      <point x="884" y="1368"/>
      <point x="851" y="1439"/>
      <point x="789" y="1488" type="curve" smooth="yes"/>
      <point x="727" y="1536"/>
      <point x="638" y="1563"/>
      <point x="527" y="1563" type="curve" smooth="yes"/>
      <point x="407" y="1563"/>
      <point x="301" y="1526"/>
      <point x="225" y="1465" type="curve" smooth="yes"/>
      <point x="149" y="1404"/>
      <point x="103" y="1318"/>
      <point x="103" y="1221" type="curve" smooth="yes"/>
      <point x="103" y="1169"/>
      <point x="118" y="1127"/>
      <point x="144" y="1097" type="curve" smooth="yes"/>
      <point x="170" y="1067"/>
      <point x="207" y="1049"/>
      <point x="251" y="1049" type="curve" smooth="yes"/>
      <point x="300" y="1049"/>
      <point x="357" y="1073"/>
      <point x="406" y="1118" type="curve"/>
      <point x="406" y="1126" type="line"/>
      <point x="346" y="1153"/>
      <point x="308" y="1219"/>
      <point x="308" y="1288" type="curve" smooth="yes"/>
      <point x="308" y="1336"/>
      <point x="325" y="1378"/>
      <point x="353" y="1408" type="curve" smooth="yes"/>
      <point x="381" y="1438"/>
      <point x="421" y="1456"/>
      <point x="466" y="1456" type="curve" smooth="yes"/>
      <point x="553" y="1456"/>
      <point x="603" y="1390"/>
      <point x="603" y="1270" type="curve" smooth="yes"/>
      <point x="603" y="1190"/>
      <point x="579" y="1125"/>
      <point x="543" y="1067" type="curve" smooth="yes"/>
      <point x="506" y="1009"/>
      <point x="458" y="958"/>
      <point x="410" y="904" type="curve" smooth="yes"/>
      <point x="361" y="850"/>
      <point x="313" y="793"/>
      <point x="277" y="725" type="curve" smooth="yes"/>
      <point x="240" y="656"/>
      <point x="216" y="576"/>
      <point x="216" y="475" type="curve"/>
    </contour>
    <contour>
      <point x="304" y="0"/>
      <point x="345" y="19"/>
      <point x="374" y="49" type="curve" smooth="yes"/>
      <point x="403" y="79"/>
      <point x="421" y="119"/>
      <point x="421" y="164" type="curve" smooth="yes"/>
      <point x="421" y="209"/>
      <point x="403" y="250"/>
      <point x="374" y="279" type="curve" smooth="yes"/>
      <point x="345" y="308"/>
      <point x="304" y="326"/>
      <point x="259" y="326" type="curve" smooth="yes"/>
      <point x="214" y="326"/>
      <point x="174" y="308"/>
      <point x="144" y="279" type="curve" smooth="yes"/>
      <point x="114" y="250"/>
      <point x="95" y="209"/>
      <point x="95" y="164" type="curve" smooth="yes"/>
      <point x="95" y="119"/>
      <point x="114" y="79"/>
      <point x="144" y="49" type="curve" smooth="yes"/>
      <point x="174" y="19"/>
      <point x="214" y="0"/>
      <point x="259" y="0" type="curve" smooth="yes"/>
    </contour>
  </outline>
</glyph>
<glyph name="F" format="1">
  <advance width="940"/>
  <unicode hex="0046"/>
  <note>
	F
  </note>
  <outline>
    <contour>
      <point x="475" y="0" type="line"/>
      <point x="641" y="770" type="line"/>
      <point x="940" y="770" type="line"/>
      <point x="973" y="922" type="line"/>
      <point x="674" y="922" type="line"/>
      <point x="760" y="1329" type="line"/>
      <point x="856" y="1306"/>
      <point x="950" y="1290"/>
      <point x="1047" y="1290" type="curve"/>
      <point x="1086" y="1298"/>
      <point x="1117" y="1312"/>
      <point x="1140" y="1331" type="curve" smooth="yes"/>
      <point x="1185" y="1369"/>
      <point x="1209" y="1417"/>
      <point x="1222" y="1467" type="curve" smooth="yes"/>
      <point x="1228" y="1492"/>
      <point x="1234" y="1515"/>
      <point x="1241" y="1536" type="curve"/>
      <point x="1184" y="1517"/>
      <point x="1121" y="1511"/>
      <point x="1057" y="1511" type="curve" smooth="yes"/>
      <point x="1024" y="1511"/>
      <point x="992" y="1512"/>
      <point x="960" y="1515" type="curve" smooth="yes"/>
      <point x="896" y="1520"/>
      <point x="838" y="1527"/>
      <point x="787" y="1532" type="curve" smooth="yes"/>
      <point x="761" y="1535"/>
      <point x="738" y="1536"/>
      <point x="717" y="1536" type="curve" smooth="yes"/>
      <point x="464" y="1536"/>
      <point x="289" y="1471"/>
      <point x="178" y="1372" type="curve" smooth="yes"/>
      <point x="66" y="1273"/>
      <point x="18" y="1140"/>
      <point x="18" y="1004" type="curve" smooth="yes"/>
      <point x="18" y="929"/>
      <point x="38" y="880"/>
      <point x="75" y="849" type="curve" smooth="yes"/>
      <point x="112" y="818"/>
      <point x="167" y="805"/>
      <point x="238" y="805" type="curve"/>
      <point x="238" y="809"/>
      <point x="237" y="814"/>
      <point x="234" y="819" type="curve" smooth="yes"/>
      <point x="231" y="824"/>
      <point x="227" y="832"/>
      <point x="224" y="842" type="curve"/>
      <point x="216" y="861"/>
      <point x="209" y="892"/>
      <point x="209" y="944" type="curve" smooth="yes"/>
      <point x="209" y="1108"/>
      <point x="236" y="1213"/>
      <point x="283" y="1277" type="curve" smooth="yes"/>
      <point x="330" y="1341"/>
      <point x="396" y="1365"/>
      <point x="475" y="1368" type="curve"/>
      <point x="180" y="0" type="line"/>
    </contour>
  </outline>
</glyph>
<glyph name="M" format="1">
  <advance width="1612"/>
  <unicode hex="004D"/>
  <note>
	M
  </note>
  <outline>
    <contour>
      <point x="301" y="0" type="line"/>
      <point x="643" y="924" type="line"/>
      <point x="602" y="0" type="line"/>
      <point x="883" y="0" type="line"/>
      <point x="1268" y="920" type="line"/>
      <point x="1137" y="0" type="line"/>
      <point x="1432" y="0" type="line"/>
      <point x="1647" y="1507" type="line"/>
      <point x="1352" y="1507" type="line"/>
      <point x="901" y="428" type="line"/>
      <point x="948" y="1507" type="line"/>
      <point x="896" y="1526"/>
      <point x="844" y="1536"/>
      <point x="793" y="1536" type="curve" smooth="yes"/>
      <point x="689" y="1536"/>
      <point x="582" y="1505"/>
      <point x="486" y="1453" type="curve" smooth="yes"/>
      <point x="389" y="1401"/>
      <point x="303" y="1329"/>
      <point x="241" y="1249" type="curve" smooth="yes"/>
      <point x="179" y="1168"/>
      <point x="141" y="1078"/>
      <point x="141" y="991" type="curve" smooth="yes"/>
      <point x="141" y="923"/>
      <point x="163" y="876"/>
      <point x="201" y="847" type="curve" smooth="yes"/>
      <point x="239" y="818"/>
      <point x="293" y="805"/>
      <point x="360" y="805" type="curve"/>
      <point x="360" y="810"/>
      <point x="359" y="815"/>
      <point x="356" y="820" type="curve" smooth="yes"/>
      <point x="353" y="825"/>
      <point x="349" y="832"/>
      <point x="346" y="842" type="curve"/>
      <point x="339" y="861"/>
      <point x="332" y="891"/>
      <point x="332" y="946" type="curve" smooth="yes"/>
      <point x="332" y="1182"/>
      <point x="453" y="1339"/>
      <point x="657" y="1407" type="curve"/>
      <point x="137" y="0" type="line"/>
    </contour>
  </outline>
</glyph>
<glyph name="U" format="1">
  <advance width="1466"/>
  <unicode hex="0055"/>
  <note>
	U
  </note>
  <outline>
    <contour>
      <point x="1059" y="-14"/>
      <point x="1276" y="193"/>
      <point x="1361" y="594" type="curve" smooth="yes"/>
      <point x="1561" y="1540" type="line"/>
      <point x="1272" y="1540" type="line"/>
      <point x="1068" y="594" type="line" smooth="yes"/>
      <point x="1007" y="313"/>
      <point x="901" y="172"/>
      <point x="750" y="172" type="curve" smooth="yes"/>
      <point x="643" y="172"/>
      <point x="590" y="237"/>
      <point x="590" y="367" type="curve" smooth="yes"/>
      <point x="590" y="427"/>
      <point x="602" y="504"/>
      <point x="625" y="588" type="curve" smooth="yes"/>
      <point x="875" y="1534" type="line"/>
      <point x="838" y="1542"/>
      <point x="807" y="1544"/>
      <point x="760" y="1544" type="curve" smooth="yes"/>
      <point x="625" y="1544"/>
      <point x="495" y="1516"/>
      <point x="381" y="1469" type="curve" smooth="yes"/>
      <point x="267" y="1421"/>
      <point x="168" y="1355"/>
      <point x="100" y="1277" type="curve" smooth="yes"/>
      <point x="31" y="1199"/>
      <point x="-10" y="1110"/>
      <point x="-10" y="1019" type="curve" smooth="yes"/>
      <point x="-10" y="878"/>
      <point x="80" y="800"/>
      <point x="236" y="800" type="curve"/>
      <point x="200" y="863"/>
      <point x="183" y="929"/>
      <point x="183" y="996" type="curve" smooth="yes"/>
      <point x="183" y="1088"/>
      <point x="215" y="1179"/>
      <point x="279" y="1255" type="curve" smooth="yes"/>
      <point x="342" y="1331"/>
      <point x="435" y="1393"/>
      <point x="556" y="1425" type="curve"/>
      <point x="347" y="594" type="line" smooth="yes"/>
      <point x="328" y="517"/>
      <point x="318" y="445"/>
      <point x="318" y="379" type="curve" smooth="yes"/>
      <point x="318" y="119"/>
      <point x="456" y="-14"/>
      <point x="728" y="-14" type="curve" smooth="yes"/>
    </contour>
  </outline>
</glyph>
<glyph name="asciicircum" format="1">
  <advance width="862"/>
  <unicode hex="005E"/>
  <note>
	asciicircum
  </note>
  <outline>
    <contour>
      <point x="193" y="1149" type="line"/>
      <point x="514" y="1313" type="line"/>
      <point x="637" y="1149" type="line"/>
      <point x="702" y="1149" type="line"/>
      <point x="580" y="1536" type="line"/>
      <point x="537" y="1536" type="line"/>
      <point x="102" y="1149" type="line"/>
    </contour>
  </outline>
</glyph>
<glyph name="b" format="1">
  <advance width="909"/>
  <unicode hex="0062"/>
  <note>
	b
  </note>
  <outline>
    <contour>
      <point x="417" y="-12"/>
      <point x="528" y="38"/>
      <point x="611" y="114" type="curve" smooth="yes"/>
      <point x="694" y="190"/>
      <point x="750" y="291"/>
      <point x="785" y="394" type="curve" smooth="yes"/>
      <point x="820" y="497"/>
      <point x="834" y="600"/>
      <point x="834" y="680" type="curve" smooth="yes"/>
      <point x="834" y="809"/>
      <point x="810" y="897"/>
      <point x="767" y="953" type="curve" smooth="yes"/>
      <point x="724" y="1008"/>
      <point x="664" y="1030"/>
      <point x="592" y="1030" type="curve" smooth="yes"/>
      <point x="572" y="1030"/>
      <point x="551" y="1029"/>
      <point x="524" y="1021" type="curve" smooth="yes"/>
      <point x="497" y="1013"/>
      <point x="465" y="998"/>
      <point x="424" y="973" type="curve"/>
      <point x="522" y="1434" type="line"/>
      <point x="219" y="1393" type="line"/>
      <point x="0" y="367" type="line"/>
      <point x="-11" y="328"/>
      <point x="-14" y="289"/>
      <point x="-14" y="250" type="curve" smooth="yes"/>
      <point x="-14" y="85"/>
      <point x="83" y="-12"/>
      <point x="272" y="-12" type="curve" smooth="yes"/>
    </contour>
    <contour>
      <point x="315" y="186"/>
      <point x="279" y="218"/>
      <point x="279" y="281" type="curve" smooth="yes"/>
      <point x="279" y="295"/>
      <point x="281" y="311"/>
      <point x="285" y="328" type="curve" smooth="yes"/>
      <point x="397" y="848" type="line"/>
      <point x="409" y="863"/>
      <point x="431" y="872"/>
      <point x="455" y="878" type="curve" smooth="yes"/>
      <point x="479" y="884"/>
      <point x="503" y="885"/>
      <point x="518" y="885" type="curve" smooth="yes"/>
      <point x="555" y="885"/>
      <point x="583" y="861"/>
      <point x="601" y="824" type="curve" smooth="yes"/>
      <point x="619" y="787"/>
      <point x="627" y="737"/>
      <point x="627" y="688" type="curve" smooth="yes"/>
      <point x="627" y="616"/>
      <point x="615" y="537"/>
      <point x="595" y="463" type="curve" smooth="yes"/>
      <point x="574" y="389"/>
      <point x="544" y="319"/>
      <point x="509" y="269" type="curve" smooth="yes"/>
      <point x="473" y="219"/>
      <point x="431" y="186"/>
      <point x="387" y="186" type="curve" smooth="yes"/>
    </contour>
  </outline>
</glyph>
<glyph name="q" format="1">
  <advance width="995"/>
  <unicode hex="0071"/>
  <note>
	q
  </note>
  <outline>
    <contour>
      <point x="670" y="-438" type="line"/>
      <point x="981" y="1024" type="line"/>
      <point x="686" y="1024" type="line"/>
      <point x="666" y="926" type="line"/>
      <point x="666" y="930" type="line" smooth="yes"/>
      <point x="666" y="989"/>
      <point x="616" y="1034"/>
      <point x="500" y="1034" type="curve" smooth="yes"/>
      <point x="381" y="1034"/>
      <point x="283" y="986"/>
      <point x="205" y="911" type="curve" smooth="yes"/>
      <point x="127" y="835"/>
      <point x="69" y="734"/>
      <point x="30" y="627" type="curve" smooth="yes"/>
      <point x="-9" y="520"/>
      <point x="-27" y="410"/>
      <point x="-27" y="317" type="curve" smooth="yes"/>
      <point x="-27" y="196"/>
      <point x="6" y="113"/>
      <point x="57" y="61" type="curve" smooth="yes"/>
      <point x="108" y="9"/>
      <point x="175" y="-12"/>
      <point x="246" y="-12" type="curve" smooth="yes"/>
      <point x="350" y="-12"/>
      <point x="429" y="36"/>
      <point x="489" y="100" type="curve"/>
      <point x="360" y="-512" type="line"/>
    </contour>
    <contour>
      <point x="360" y="186"/>
      <point x="334" y="187"/>
      <point x="314" y="208" type="curve"/>
      <point x="293" y="228"/>
      <point x="276" y="267"/>
      <point x="276" y="346" type="curve" smooth="yes"/>
      <point x="276" y="410"/>
      <point x="288" y="494"/>
      <point x="312" y="578" type="curve" smooth="yes"/>
      <point x="335" y="661"/>
      <point x="368" y="743"/>
      <point x="411" y="805" type="curve" smooth="yes"/>
      <point x="454" y="867"/>
      <point x="506" y="907"/>
      <point x="563" y="907" type="curve" smooth="yes"/>
      <point x="592" y="907"/>
      <point x="613" y="896"/>
      <point x="626" y="882" type="curve"/>
      <point x="638" y="868"/>
      <point x="644" y="850"/>
      <point x="647" y="838" type="curve"/>
      <point x="539" y="332" type="line"/>
      <point x="523" y="284"/>
      <point x="496" y="247"/>
      <point x="467" y="223" type="curve" smooth="yes"/>
      <point x="438" y="199"/>
      <point x="407" y="186"/>
      <point x="379" y="186" type="curve" smooth="yes"/>
    </contour>
  </outline>
</glyph>
<glyph name="v" format="1">
  <advance width="848"/>
  <unicode hex="0076"/>
  <note>
	v
  </note>
  <outline>
    <contour>
      <point x="372" y="-12"/>
      <point x="483" y="52"/>
      <point x="570" y="149" type="curve" smooth="yes"/>
      <point x="657" y="245"/>
      <point x="718" y="375"/>
      <point x="759" y="508" type="curve" smooth="yes"/>
      <point x="799" y="641"/>
      <point x="817" y="778"/>
      <point x="817" y="887" type="curve" smooth="yes"/>
      <point x="817" y="932"/>
      <point x="809" y="977"/>
      <point x="789" y="1010" type="curve" smooth="yes"/>
      <point x="769" y="1043"/>
      <point x="737" y="1065"/>
      <point x="688" y="1065" type="curve" smooth="yes"/>
      <point x="600" y="1065"/>
      <point x="561" y="1018"/>
      <point x="561" y="954" type="curve" smooth="yes"/>
      <point x="561" y="930"/>
      <point x="567" y="904"/>
      <point x="580" y="884" type="curve"/>
      <point x="592" y="864"/>
      <point x="611" y="850"/>
      <point x="635" y="850" type="curve" smooth="yes"/>
      <point x="643" y="850"/>
      <point x="658" y="851"/>
      <point x="671" y="855" type="curve"/>
      <point x="684" y="858"/>
      <point x="697" y="863"/>
      <point x="700" y="870" type="curve"/>
      <point x="700" y="795"/>
      <point x="683" y="694"/>
      <point x="653" y="593" type="curve" smooth="yes"/>
      <point x="623" y="492"/>
      <point x="579" y="390"/>
      <point x="527" y="314" type="curve" smooth="yes"/>
      <point x="475" y="237"/>
      <point x="413" y="186"/>
      <point x="346" y="186" type="curve" smooth="yes"/>
      <point x="297" y="186"/>
      <point x="276" y="213"/>
      <point x="276" y="254" type="curve" smooth="yes"/>
      <point x="276" y="273"/>
      <point x="280" y="297"/>
      <point x="287" y="328" type="curve" smooth="yes"/>
      <point x="434" y="1024" type="line"/>
      <point x="139" y="1024" type="line"/>
      <point x="-8" y="328" type="line" smooth="yes"/>
      <point x="-16" y="289"/>
      <point x="-18" y="252"/>
      <point x="-18" y="229" type="curve" smooth="yes"/>
      <point x="-18" y="66"/>
      <point x="78" y="-12"/>
      <point x="233" y="-12" type="curve" smooth="yes"/>
    </contour>
  </outline>
</glyph>
<glyph name="w" format="1">
  <advance width="1354"/>
  <unicode hex="0077"/>
  <note>
	w
  </note>
  <outline>
    <contour>
      <point x="243" y="-12"/>
      <point x="292" y="-6"/>
      <point x="342" y="19" type="curve" smooth="yes"/>
      <point x="392" y="43"/>
      <point x="445" y="85"/>
      <point x="494" y="160" type="curve"/>
      <point x="518" y="44"/>
      <point x="606" y="-12"/>
      <point x="739" y="-12" type="curve" smooth="yes"/>
      <point x="878" y="-12"/>
      <point x="989" y="52"/>
      <point x="1076" y="149" type="curve" smooth="yes"/>
      <point x="1163" y="245"/>
      <point x="1224" y="375"/>
      <point x="1265" y="508" type="curve" smooth="yes"/>
      <point x="1305" y="641"/>
      <point x="1323" y="778"/>
      <point x="1323" y="887" type="curve" smooth="yes"/>
      <point x="1323" y="932"/>
      <point x="1315" y="977"/>
      <point x="1295" y="1010" type="curve" smooth="yes"/>
      <point x="1275" y="1043"/>
      <point x="1243" y="1065"/>
      <point x="1194" y="1065" type="curve" smooth="yes"/>
      <point x="1106" y="1065"/>
      <point x="1067" y="1018"/>
      <point x="1067" y="954" type="curve" smooth="yes"/>
      <point x="1067" y="930"/>
      <point x="1073" y="904"/>
      <point x="1086" y="884" type="curve"/>
      <point x="1098" y="864"/>
      <point x="1117" y="850"/>
      <point x="1141" y="850" type="curve" smooth="yes"/>
      <point x="1149" y="850"/>
      <point x="1164" y="851"/>
      <point x="1177" y="855" type="curve"/>
      <point x="1190" y="858"/>
      <point x="1203" y="863"/>
      <point x="1206" y="870" type="curve"/>
      <point x="1206" y="795"/>
      <point x="1189" y="694"/>
      <point x="1159" y="593" type="curve" smooth="yes"/>
      <point x="1129" y="492"/>
      <point x="1085" y="390"/>
      <point x="1033" y="314" type="curve" smooth="yes"/>
      <point x="981" y="237"/>
      <point x="919" y="186"/>
      <point x="852" y="186" type="curve" smooth="yes"/>
      <point x="803" y="186"/>
      <point x="782" y="213"/>
      <point x="782" y="254" type="curve" smooth="yes"/>
      <point x="782" y="271"/>
      <point x="786" y="295"/>
      <point x="793" y="328" type="curve" smooth="yes"/>
      <point x="940" y="1024" type="line"/>
      <point x="645" y="1024" type="line"/>
      <point x="506" y="367" type="line"/>
      <point x="490" y="315"/>
      <point x="470" y="269"/>
      <point x="443" y="237" type="curve" smooth="yes"/>
      <point x="415" y="205"/>
      <point x="382" y="186"/>
      <point x="342" y="186" type="curve" smooth="yes"/>
      <point x="318" y="186"/>
      <point x="303" y="197"/>
      <point x="294" y="214" type="curve" smooth="yes"/>
      <point x="285" y="230"/>
      <point x="281" y="252"/>
      <point x="281" y="276" type="curve" smooth="yes"/>
      <point x="281" y="293"/>
      <point x="283" y="311"/>
      <point x="287" y="328" type="curve" smooth="yes"/>
      <point x="434" y="1024" type="line"/>
      <point x="139" y="1024" type="line"/>
      <point x="0" y="367" type="line" smooth="yes"/>
      <point x="-11" y="315"/>
      <point x="-16" y="270"/>
      <point x="-16" y="233" type="curve" smooth="yes"/>
      <point x="-16" y="146"/>
      <point x="8" y="86"/>
      <point x="48" y="46" type="curve" smooth="yes"/>
      <point x="87" y="6"/>
      <point x="142" y="-12"/>
      <point x="203" y="-12" type="curve" smooth="yes"/>
    </contour>
  </outline>
</glyph>
<glyph name="braceleft" format="1">
  <advance width="721"/>
  <unicode hex="007B"/>
  <note>
	braceleft
  </note>
  <outline>
    <contour>
      <point x="447" y="-512" type="line"/>
      <point x="466" y="-420" type="line"/>
      <point x="382" y="-409"/>
      <point x="335" y="-339"/>
      <point x="335" y="-219" type="curve" smooth="yes"/>
      <point x="335" y="-189"/>
      <point x="338" y="-157"/>
      <point x="343" y="-123" type="curve" smooth="yes"/>
      <point x="354" y="-55"/>
      <point x="370" y="15"/>
      <point x="389" y="86" type="curve" smooth="yes"/>
      <point x="398" y="121"/>
      <point x="407" y="156"/>
      <point x="415" y="189" type="curve" smooth="yes"/>
      <point x="431" y="255"/>
      <point x="443" y="316"/>
      <point x="443" y="365" type="curve" smooth="yes"/>
      <point x="443" y="442"/>
      <point x="413" y="485"/>
      <point x="329" y="524" type="curve"/>
      <point x="402" y="555"/>
      <point x="450" y="584"/>
      <point x="482" y="623" type="curve" smooth="yes"/>
      <point x="513" y="662"/>
      <point x="526" y="711"/>
      <point x="533" y="780" type="curve" smooth="yes"/>
      <point x="549" y="977"/>
      <point x="563" y="1117"/>
      <point x="581" y="1214" type="curve" smooth="yes"/>
      <point x="599" y="1311"/>
      <point x="621" y="1367"/>
      <point x="656" y="1399" type="curve" smooth="yes"/>
      <point x="691" y="1431"/>
      <point x="737" y="1438"/>
      <point x="802" y="1438" type="curve"/>
      <point x="820" y="1540" type="line"/>
      <point x="732" y="1540" type="line" smooth="yes"/>
      <point x="584" y="1540"/>
      <point x="486" y="1498"/>
      <point x="423" y="1387" type="curve" smooth="yes"/>
      <point x="360" y="1276"/>
      <point x="332" y="1098"/>
      <point x="320" y="823" type="curve" smooth="yes"/>
      <point x="317" y="732"/>
      <point x="306" y="670"/>
      <point x="283" y="631" type="curve" smooth="yes"/>
      <point x="260" y="591"/>
      <point x="227" y="575"/>
      <point x="179" y="575" type="curve" smooth="yes"/>
      <point x="114" y="575" type="line"/>
      <point x="93" y="471" type="line"/>
      <point x="157" y="471" type="line" smooth="yes"/>
      <point x="221" y="471"/>
      <point x="241" y="453"/>
      <point x="241" y="397" type="curve" smooth="yes"/>
      <point x="241" y="368"/>
      <point x="237" y="336"/>
      <point x="230" y="300" type="curve" smooth="yes"/>
      <point x="215" y="228"/>
      <point x="193" y="149"/>
      <point x="168" y="66" type="curve" smooth="yes"/>
      <point x="155" y="25"/>
      <point x="144" y="-16"/>
      <point x="133" y="-55" type="curve" smooth="yes"/>
      <point x="112" y="-135"/>
      <point x="95" y="-209"/>
      <point x="95" y="-268" type="curve" smooth="yes"/>
      <point x="95" y="-343"/>
      <point x="123" y="-404"/>
      <point x="174" y="-446" type="curve" smooth="yes"/>
      <point x="225" y="-488"/>
      <point x="297" y="-512"/>
      <point x="388" y="-512" type="curve" smooth="yes"/>
    </contour>
  </outline>
</glyph>
<glyph name="section" format="1">
  <advance width="1110"/>
  <unicode hex="00A7"/>
  <note>
	section
  </note>
  <outline>
    <contour>
      <point x="494" y="-111"/>
      <point x="606" y="-73"/>
      <point x="682" y="-7" type="curve" smooth="yes"/>
      <point x="758" y="59"/>
      <point x="799" y="155"/>
      <point x="799" y="272" type="curve" smooth="yes"/>
      <point x="799" y="279" type="line"/>
      <point x="875" y="295"/>
      <point x="935" y="341"/>
      <point x="975" y="403" type="curve" smooth="yes"/>
      <point x="1015" y="465"/>
      <point x="1036" y="542"/>
      <point x="1036" y="621" type="curve" smooth="yes"/>
      <point x="1036" y="677"/>
      <point x="1026" y="725"/>
      <point x="1006" y="766" type="curve" smooth="yes"/>
      <point x="966" y="847"/>
      <point x="904" y="910"/>
      <point x="834" y="962" type="curve" smooth="yes"/>
      <point x="799" y="988"/>
      <point x="766" y="1015"/>
      <point x="736" y="1042" type="curve" smooth="yes"/>
      <point x="676" y="1097"/>
      <point x="631" y="1156"/>
      <point x="631" y="1241" type="curve" smooth="yes"/>
      <point x="631" y="1298"/>
      <point x="652" y="1353"/>
      <point x="686" y="1394" type="curve" smooth="yes"/>
      <point x="720" y="1434"/>
      <point x="768" y="1460"/>
      <point x="823" y="1460" type="curve" smooth="yes"/>
      <point x="863" y="1460"/>
      <point x="891" y="1447"/>
      <point x="911" y="1427" type="curve"/>
      <point x="930" y="1406"/>
      <point x="938" y="1378"/>
      <point x="938" y="1350" type="curve" smooth="yes"/>
      <point x="938" y="1294"/>
      <point x="911" y="1235"/>
      <point x="864" y="1208" type="curve"/>
      <point x="889" y="1181"/>
      <point x="915" y="1176"/>
      <point x="940" y="1176" type="curve" smooth="yes"/>
      <point x="981" y="1176"/>
      <point x="1016" y="1194"/>
      <point x="1039" y="1223" type="curve" smooth="yes"/>
      <point x="1062" y="1251"/>
      <point x="1075" y="1293"/>
      <point x="1075" y="1341" type="curve" smooth="yes"/>
      <point x="1075" y="1401"/>
      <point x="1054" y="1443"/>
      <point x="1023" y="1472" type="curve" smooth="yes"/>
      <point x="992" y="1501"/>
      <point x="951" y="1517"/>
      <point x="912" y="1526" type="curve" smooth="yes"/>
      <point x="872" y="1534"/>
      <point x="834" y="1536"/>
      <point x="809" y="1536" type="curve" smooth="yes"/>
      <point x="705" y="1536"/>
      <point x="597" y="1509"/>
      <point x="514" y="1451" type="curve" smooth="yes"/>
      <point x="431" y="1393"/>
      <point x="375" y="1303"/>
      <point x="375" y="1182" type="curve" smooth="yes"/>
      <point x="375" y="1155"/>
      <point x="378" y="1127"/>
      <point x="385" y="1096" type="curve"/>
      <point x="324" y="1072"/>
      <point x="271" y="1035"/>
      <point x="233" y="987" type="curve" smooth="yes"/>
      <point x="195" y="939"/>
      <point x="172" y="880"/>
      <point x="172" y="815" type="curve" smooth="yes"/>
      <point x="172" y="748"/>
      <point x="195" y="698"/>
      <point x="230" y="653" type="curve" smooth="yes"/>
      <point x="265" y="608"/>
      <point x="311" y="569"/>
      <point x="357" y="529" type="curve" smooth="yes"/>
      <point x="403" y="488"/>
      <point x="448" y="446"/>
      <point x="483" y="392" type="curve" smooth="yes"/>
      <point x="518" y="338"/>
      <point x="541" y="274"/>
      <point x="541" y="190" type="curve" smooth="yes"/>
      <point x="541" y="51"/>
      <point x="477" y="-8"/>
      <point x="377" y="-8" type="curve" smooth="yes"/>
      <point x="254" y="-8"/>
      <point x="209" y="45"/>
      <point x="209" y="152" type="curve" smooth="yes"/>
      <point x="209" y="204"/>
      <point x="220" y="240"/>
      <point x="246" y="265" type="curve" smooth="yes"/>
      <point x="272" y="289"/>
      <point x="314" y="302"/>
      <point x="375" y="307" type="curve"/>
      <point x="358" y="331"/>
      <point x="338" y="356"/>
      <point x="312" y="376" type="curve" smooth="yes"/>
      <point x="286" y="396"/>
      <point x="254" y="410"/>
      <point x="213" y="410" type="curve" smooth="yes"/>
      <point x="157" y="410"/>
      <point x="107" y="384"/>
      <point x="72" y="340" type="curve" smooth="yes"/>
      <point x="37" y="296"/>
      <point x="16" y="233"/>
      <point x="16" y="158" type="curve" smooth="yes"/>
      <point x="16" y="78"/>
      <point x="40" y="21"/>
      <point x="77" y="-18" type="curve" smooth="yes"/>
      <point x="113" y="-58"/>
      <point x="163" y="-82"/>
      <point x="213" y="-94" type="curve" smooth="yes"/>
      <point x="263" y="-107"/>
      <point x="314" y="-111"/>
      <point x="354" y="-111" type="curve" smooth="yes"/>
    </contour>
    <contour>
      <point x="775" y="423"/>
      <point x="758" y="466"/>
      <point x="734" y="504" type="curve" smooth="yes"/>
      <point x="686" y="579"/>
      <point x="626" y="641"/>
      <point x="563" y="694" type="curve" smooth="yes"/>
      <point x="532" y="720"/>
      <point x="503" y="745"/>
      <point x="478" y="770" type="curve" smooth="yes"/>
      <point x="426" y="819"/>
      <point x="389" y="867"/>
      <point x="389" y="924" type="curve" smooth="yes"/>
      <point x="389" y="963"/>
      <point x="405" y="980"/>
      <point x="428" y="995" type="curve"/>
      <point x="468" y="932"/>
      <point x="526" y="885"/>
      <point x="585" y="838" type="curve" smooth="yes"/>
      <point x="644" y="791"/>
      <point x="704" y="747"/>
      <point x="749" y="695" type="curve" smooth="yes"/>
      <point x="794" y="643"/>
      <point x="825" y="583"/>
      <point x="825" y="504" type="curve" smooth="yes"/>
      <point x="825" y="450"/>
      <point x="812" y="407"/>
      <point x="786" y="375" type="curve"/>
    </contour>
  </outline>
</glyph>
<glyph name="copyright" format="1">
  <advance width="1202"/>
  <unicode hex="00A9"/>
  <note>
	copyright
  </note>
  <outline>
    <contour>
      <point x="733" y="156"/>
      <point x="859" y="213"/>
      <point x="949" y="308" type="curve" smooth="yes"/>
      <point x="1039" y="403"/>
      <point x="1096" y="533"/>
      <point x="1096" y="680" type="curve" smooth="yes"/>
      <point x="1096" y="828"/>
      <point x="1039" y="958"/>
      <point x="949" y="1052" type="curve" smooth="yes"/>
      <point x="859" y="1146"/>
      <point x="733" y="1202"/>
      <point x="600" y="1202" type="curve" smooth="yes"/>
      <point x="464" y="1202"/>
      <point x="340" y="1145"/>
      <point x="250" y="1050" type="curve" smooth="yes"/>
      <point x="160" y="955"/>
      <point x="104" y="825"/>
      <point x="104" y="678" type="curve" smooth="yes"/>
      <point x="104" y="534"/>
      <point x="160" y="403"/>
      <point x="250" y="309" type="curve" smooth="yes"/>
      <point x="340" y="215"/>
      <point x="464" y="156"/>
      <point x="600" y="156" type="curve" smooth="yes"/>
    </contour>
    <contour>
      <point x="711" y="373"/>
      <point x="805" y="424"/>
      <point x="862" y="512" type="curve"/>
      <point x="772" y="571" type="line"/>
      <point x="741" y="514"/>
      <point x="682" y="479"/>
      <point x="618" y="479" type="curve" smooth="yes"/>
      <point x="563" y="479"/>
      <point x="516" y="503"/>
      <point x="481" y="543" type="curve" smooth="yes"/>
      <point x="445" y="582"/>
      <point x="424" y="637"/>
      <point x="424" y="698" type="curve" smooth="yes"/>
      <point x="424" y="761"/>
      <point x="446" y="807"/>
      <point x="482" y="839" type="curve" smooth="yes"/>
      <point x="518" y="870"/>
      <point x="566" y="885"/>
      <point x="618" y="885" type="curve" smooth="yes"/>
      <point x="677" y="885"/>
      <point x="711" y="866"/>
      <point x="733" y="841" type="curve" smooth="yes"/>
      <point x="755" y="816"/>
      <point x="764" y="784"/>
      <point x="772" y="760" type="curve"/>
      <point x="868" y="797" type="line"/>
      <point x="855" y="850"/>
      <point x="824" y="899"/>
      <point x="780" y="933" type="curve" smooth="yes"/>
      <point x="736" y="967"/>
      <point x="678" y="988"/>
      <point x="614" y="991" type="curve"/>
      <point x="531" y="991"/>
      <point x="456" y="959"/>
      <point x="401" y="905" type="curve" smooth="yes"/>
      <point x="345" y="851"/>
      <point x="311" y="775"/>
      <point x="311" y="688" type="curve" smooth="yes"/>
      <point x="311" y="603"/>
      <point x="345" y="524"/>
      <point x="399" y="467" type="curve" smooth="yes"/>
      <point x="453" y="410"/>
      <point x="527" y="373"/>
      <point x="610" y="373" type="curve" smooth="yes"/>
    </contour>
    <contour>
      <point x="492" y="242"/>
      <point x="391" y="290"/>
      <point x="318" y="368" type="curve" smooth="yes"/>
      <point x="245" y="446"/>
      <point x="199" y="555"/>
      <point x="199" y="678" type="curve" smooth="yes"/>
      <point x="199" y="801"/>
      <point x="245" y="911"/>
      <point x="318" y="989" type="curve" smooth="yes"/>
      <point x="391" y="1067"/>
      <point x="492" y="1114"/>
      <point x="604" y="1114" type="curve" smooth="yes"/>
      <point x="715" y="1114"/>
      <point x="816" y="1067"/>
      <point x="889" y="989" type="curve" smooth="yes"/>
      <point x="962" y="911"/>
      <point x="1008" y="801"/>
      <point x="1008" y="678" type="curve" smooth="yes"/>
      <point x="1008" y="555"/>
      <point x="962" y="446"/>
      <point x="889" y="368" type="curve" smooth="yes"/>
      <point x="816" y="290"/>
      <point x="715" y="242"/>
      <point x="604" y="242" type="curve" smooth="yes"/>
    </contour>
  </outline>
</glyph>
<glyph name="ordfeminine" format="1">
  <advance width="707"/>
  <unicode hex="00AA"/>
  <note>
	ordfeminine
  </note>
  <outline>
    <contour>
      <point x="305" y="956"/>
      <point x="356" y="997"/>
      <point x="395" y="1044" type="curve"/>
      <point x="410" y="995"/>
      <point x="442" y="963"/>
      <point x="514" y="963" type="curve" smooth="yes"/>
      <point x="534" y="963"/>
      <point x="557" y="965"/>
      <point x="579" y="978" type="curve" smooth="yes"/>
      <point x="601" y="991"/>
      <point x="621" y="1017"/>
      <point x="637" y="1065" type="curve"/>
      <point x="632" y="1062"/>
      <point x="626" y="1060"/>
      <point x="621" y="1061" type="curve"/>
      <point x="615" y="1061"/>
      <point x="610" y="1061"/>
      <point x="606" y="1061" type="curve" smooth="yes"/>
      <point x="573" y="1061"/>
      <point x="563" y="1079"/>
      <point x="563" y="1102" type="curve" smooth="yes"/>
      <point x="563" y="1109"/>
      <point x="564" y="1116"/>
      <point x="565" y="1121" type="curve" smooth="yes"/>
      <point x="566" y="1126"/>
      <point x="568" y="1132"/>
      <point x="569" y="1139" type="curve"/>
      <point x="655" y="1516" type="line"/>
      <point x="485" y="1516" type="line"/>
      <point x="479" y="1485" type="line"/>
      <point x="456" y="1501"/>
      <point x="426" y="1513"/>
      <point x="399" y="1513" type="curve" smooth="yes"/>
      <point x="320" y="1513"/>
      <point x="260" y="1487"/>
      <point x="213" y="1447" type="curve" smooth="yes"/>
      <point x="166" y="1406"/>
      <point x="136" y="1350"/>
      <point x="116" y="1288" type="curve" smooth="yes"/>
      <point x="96" y="1226"/>
      <point x="88" y="1159"/>
      <point x="88" y="1096" type="curve" smooth="yes"/>
      <point x="88" y="1063"/>
      <point x="97" y="1028"/>
      <point x="119" y="1001" type="curve" smooth="yes"/>
      <point x="141" y="974"/>
      <point x="177" y="956"/>
      <point x="233" y="956" type="curve" smooth="yes"/>
    </contour>
    <contour>
      <point x="302" y="1049"/>
      <point x="284" y="1052"/>
      <point x="271" y="1063" type="curve" smooth="yes"/>
      <point x="258" y="1074"/>
      <point x="248" y="1094"/>
      <point x="248" y="1126" type="curve" smooth="yes"/>
      <point x="248" y="1201"/>
      <point x="265" y="1282"/>
      <point x="294" y="1345" type="curve" smooth="yes"/>
      <point x="322" y="1408"/>
      <point x="363" y="1452"/>
      <point x="408" y="1452" type="curve" smooth="yes"/>
      <point x="427" y="1452"/>
      <point x="448" y="1448"/>
      <point x="467" y="1432" type="curve"/>
      <point x="399" y="1139" type="line"/>
      <point x="391" y="1102" type="line"/>
      <point x="368" y="1071"/>
      <point x="344" y="1049"/>
      <point x="317" y="1049" type="curve" smooth="yes"/>
    </contour>
  </outline>
</glyph>
<glyph name="softhyphen" format="1">
  <advance width="594"/>
  <unicode hex="00AD"/>
  <note>
	uni00AD
  </note>
  <outline>
    <contour>
      <point x="451" y="455" type="line"/>
      <point x="485" y="616" type="line"/>
      <point x="76" y="616" type="line"/>
      <point x="39" y="455" type="line"/>
    </contour>
  </outline>
</glyph>
<glyph name="registered" format="1">
  <advance width="1133"/>
  <unicode hex="00AE"/>
  <note>
	registered
  </note>
  <outline>
    <contour>
      <point x="700" y="162"/>
      <point x="823" y="219"/>
      <point x="914" y="314" type="curve" smooth="yes"/>
      <point x="1005" y="409"/>
      <point x="1061" y="539"/>
      <point x="1061" y="686" type="curve" smooth="yes"/>
      <point x="1061" y="834"/>
      <point x="1005" y="964"/>
      <point x="914" y="1058" type="curve" smooth="yes"/>
      <point x="823" y="1152"/>
      <point x="700" y="1208"/>
      <point x="565" y="1208" type="curve" smooth="yes"/>
      <point x="429" y="1208"/>
      <point x="306" y="1151"/>
      <point x="216" y="1056" type="curve" smooth="yes"/>
      <point x="126" y="961"/>
      <point x="70" y="831"/>
      <point x="70" y="684" type="curve" smooth="yes"/>
      <point x="70" y="540"/>
      <point x="126" y="409"/>
      <point x="216" y="315" type="curve" smooth="yes"/>
      <point x="306" y="221"/>
      <point x="429" y="162"/>
      <point x="565" y="162" type="curve" smooth="yes"/>
    </contour>
    <contour>
      <point x="457" y="248"/>
      <point x="356" y="296"/>
      <point x="283" y="374" type="curve" smooth="yes"/>
      <point x="210" y="452"/>
      <point x="164" y="561"/>
      <point x="164" y="684" type="curve" smooth="yes"/>
      <point x="164" y="807"/>
      <point x="210" y="917"/>
      <point x="283" y="995" type="curve" smooth="yes"/>
      <point x="356" y="1073"/>
      <point x="457" y="1120"/>
      <point x="569" y="1120" type="curve" smooth="yes"/>
      <point x="680" y="1120"/>
      <point x="781" y="1073"/>
      <point x="854" y="995" type="curve" smooth="yes"/>
      <point x="927" y="917"/>
      <point x="973" y="807"/>
      <point x="973" y="684" type="curve" smooth="yes"/>
      <point x="973" y="561"/>
      <point x="927" y="452"/>
      <point x="854" y="374" type="curve" smooth="yes"/>
      <point x="781" y="296"/>
      <point x="680" y="248"/>
      <point x="569" y="248" type="curve" smooth="yes"/>
    </contour>
    <contour>
      <point x="813" y="403" type="line"/>
      <point x="680" y="659" type="line"/>
      <point x="752" y="682"/>
      <point x="801" y="741"/>
      <point x="801" y="817" type="curve" smooth="yes"/>
      <point x="801" y="873"/>
      <point x="776" y="917"/>
      <point x="733" y="946" type="curve" smooth="yes"/>
      <point x="689" y="974"/>
      <point x="627" y="989"/>
      <point x="555" y="989" type="curve" smooth="yes"/>
      <point x="362" y="989" type="line"/>
      <point x="360" y="393" type="line"/>
      <point x="455" y="393" type="line"/>
      <point x="455" y="645" type="line"/>
      <point x="590" y="645" type="line"/>
      <point x="717" y="389" type="line"/>
    </contour>
    <contour>
      <point x="455" y="905" type="line"/>
      <point x="557" y="905" type="line" smooth="yes"/>
      <point x="590" y="905"/>
      <point x="628" y="900"/>
      <point x="657" y="886" type="curve" smooth="yes"/>
      <point x="686" y="872"/>
      <point x="707" y="849"/>
      <point x="707" y="813" type="curve" smooth="yes"/>
      <point x="707" y="774"/>
      <point x="685" y="752"/>
      <point x="657" y="740" type="curve" smooth="yes"/>
      <point x="628" y="727"/>
      <point x="590" y="723"/>
      <point x="561" y="723" type="curve" smooth="yes"/>
      <point x="455" y="723" type="line"/>
    </contour>
  </outline>
</glyph>
<glyph name="degree" format="1">
  <advance width="643"/>
  <unicode hex="00B0"/>
  <note>
	degree
  </note>
  <outline>
    <contour>
      <point x="337" y="766"/>
      <point x="393" y="796"/>
      <point x="438" y="842" type="curve" smooth="yes"/>
      <point x="483" y="888"/>
      <point x="517" y="950"/>
      <point x="540" y="1015" type="curve" smooth="yes"/>
      <point x="563" y="1079"/>
      <point x="575" y="1147"/>
      <point x="575" y="1206" type="curve" smooth="yes"/>
      <point x="575" y="1355"/>
      <point x="528" y="1438"/>
      <point x="408" y="1438" type="curve" smooth="yes"/>
      <point x="304" y="1438"/>
      <point x="221" y="1388"/>
      <point x="165" y="1309" type="curve" smooth="yes"/>
      <point x="108" y="1229"/>
      <point x="76" y="1119"/>
      <point x="76" y="999" type="curve" smooth="yes"/>
      <point x="76" y="926"/>
      <point x="86" y="867"/>
      <point x="115" y="827" type="curve" smooth="yes"/>
      <point x="143" y="787"/>
      <point x="192" y="766"/>
      <point x="272" y="766" type="curve" smooth="yes"/>
    </contour>
    <contour>
      <point x="255" y="842"/>
      <point x="241" y="859"/>
      <point x="233" y="884" type="curve" smooth="yes"/>
      <point x="225" y="908"/>
      <point x="223" y="942"/>
      <point x="223" y="975" type="curve" smooth="yes"/>
      <point x="223" y="1008"/>
      <point x="224" y="1038"/>
      <point x="227" y="1063" type="curve"/>
      <point x="235" y="1163"/>
      <point x="264" y="1238"/>
      <point x="299" y="1289" type="curve" smooth="yes"/>
      <point x="334" y="1340"/>
      <point x="373" y="1366"/>
      <point x="401" y="1366" type="curve" smooth="yes"/>
      <point x="422" y="1366"/>
      <point x="435" y="1352"/>
      <point x="443" y="1329" type="curve" smooth="yes"/>
      <point x="451" y="1305"/>
      <point x="453" y="1273"/>
      <point x="453" y="1237" type="curve" smooth="yes"/>
      <point x="453" y="1133"/>
      <point x="436" y="1035"/>
      <point x="406" y="962" type="curve" smooth="yes"/>
      <point x="376" y="889"/>
      <point x="332" y="842"/>
      <point x="279" y="842" type="curve" smooth="yes"/>
    </contour>
  </outline>
</glyph>
<glyph name="twosuperior" format="1">
  <advance width="672"/>
  <unicode hex="00B2"/>
  <note>
	twosuperior
  </note>
  <outline>
    <contour>
      <point x="507" y="690"/>
      <point x="544" y="704"/>
      <point x="572" y="728" type="curve" smooth="yes"/>
      <point x="599" y="752"/>
      <point x="616" y="786"/>
      <point x="616" y="827" type="curve" smooth="yes"/>
      <point x="616" y="850"/>
      <point x="611" y="874"/>
      <point x="602" y="899" type="curve"/>
      <point x="596" y="901" type="line"/>
      <point x="563" y="864"/>
      <point x="535" y="852"/>
      <point x="500" y="852" type="curve" smooth="yes"/>
      <point x="488" y="852"/>
      <point x="475" y="853"/>
      <point x="460" y="856" type="curve" smooth="yes"/>
      <point x="445" y="859"/>
      <point x="430" y="862"/>
      <point x="413" y="865" type="curve" smooth="yes"/>
      <point x="380" y="871"/>
      <point x="344" y="877"/>
      <point x="307" y="877" type="curve" smooth="yes"/>
      <point x="284" y="877"/>
      <point x="265" y="877"/>
      <point x="238" y="868" type="curve"/>
      <point x="253" y="897"/>
      <point x="273" y="924"/>
      <point x="299" y="951" type="curve" smooth="yes"/>
      <point x="351" y="1004"/>
      <point x="414" y="1056"/>
      <point x="478" y="1108" type="curve" smooth="yes"/>
      <point x="509" y="1134"/>
      <point x="538" y="1161"/>
      <point x="564" y="1189" type="curve" smooth="yes"/>
      <point x="615" y="1245"/>
      <point x="651" y="1306"/>
      <point x="651" y="1378" type="curve" smooth="yes"/>
      <point x="651" y="1437"/>
      <point x="627" y="1483"/>
      <point x="587" y="1515" type="curve" smooth="yes"/>
      <point x="547" y="1546"/>
      <point x="490" y="1563"/>
      <point x="422" y="1563" type="curve" smooth="yes"/>
      <point x="342" y="1563"/>
      <point x="280" y="1538"/>
      <point x="239" y="1502" type="curve" smooth="yes"/>
      <point x="198" y="1465"/>
      <point x="176" y="1417"/>
      <point x="176" y="1372" type="curve" smooth="yes"/>
      <point x="176" y="1312"/>
      <point x="217" y="1280"/>
      <point x="268" y="1280" type="curve" smooth="yes"/>
      <point x="295" y="1280"/>
      <point x="328" y="1294"/>
      <point x="352" y="1317" type="curve"/>
      <point x="350" y="1323" type="line"/>
      <point x="322" y="1335"/>
      <point x="299" y="1368"/>
      <point x="299" y="1411" type="curve" smooth="yes"/>
      <point x="299" y="1462"/>
      <point x="336" y="1503"/>
      <point x="387" y="1503" type="curve" smooth="yes"/>
      <point x="440" y="1503"/>
      <point x="463" y="1453"/>
      <point x="463" y="1382" type="curve" smooth="yes"/>
      <point x="463" y="1337"/>
      <point x="454" y="1295"/>
      <point x="437" y="1256" type="curve" smooth="yes"/>
      <point x="401" y="1179"/>
      <point x="345" y="1111"/>
      <point x="283" y="1048" type="curve" smooth="yes"/>
      <point x="252" y="1017"/>
      <point x="223" y="985"/>
      <point x="196" y="954" type="curve" smooth="yes"/>
      <point x="142" y="891"/>
      <point x="102" y="827"/>
      <point x="102" y="754" type="curve" smooth="yes"/>
      <point x="102" y="736"/>
      <point x="104" y="718"/>
      <point x="109" y="700" type="curve"/>
      <point x="117" y="700" type="line"/>
      <point x="164" y="725"/>
      <point x="201" y="733"/>
      <point x="238" y="733" type="curve" smooth="yes"/>
      <point x="279" y="733"/>
      <point x="320" y="723"/>
      <point x="358" y="712" type="curve" smooth="yes"/>
      <point x="396" y="700"/>
      <point x="432" y="690"/>
      <point x="467" y="690" type="curve" smooth="yes"/>
    </contour>
  </outline>
</glyph>
<glyph name="threesuperior" format="1">
  <advance width="688"/>
  <unicode hex="00B3"/>
  <note>
	threesuperior
  </note>
  <outline>
    <contour>
      <point x="421" y="696"/>
      <point x="501" y="728"/>
      <point x="559" y="779" type="curve" smooth="yes"/>
      <point x="617" y="830"/>
      <point x="653" y="898"/>
      <point x="653" y="973" type="curve" smooth="yes"/>
      <point x="653" y="1073"/>
      <point x="586" y="1148"/>
      <point x="479" y="1171" type="curve"/>
      <point x="479" y="1180" type="line"/>
      <point x="536" y="1196"/>
      <point x="584" y="1224"/>
      <point x="617" y="1258" type="curve" smooth="yes"/>
      <point x="649" y="1292"/>
      <point x="668" y="1333"/>
      <point x="668" y="1380" type="curve" smooth="yes"/>
      <point x="668" y="1432"/>
      <point x="645" y="1478"/>
      <point x="606" y="1511" type="curve" smooth="yes"/>
      <point x="566" y="1543"/>
      <point x="510" y="1563"/>
      <point x="446" y="1563" type="curve" smooth="yes"/>
      <point x="379" y="1563"/>
      <point x="319" y="1543"/>
      <point x="275" y="1509" type="curve" smooth="yes"/>
      <point x="231" y="1475"/>
      <point x="203" y="1429"/>
      <point x="203" y="1378" type="curve" smooth="yes"/>
      <point x="203" y="1317"/>
      <point x="243" y="1276"/>
      <point x="303" y="1276" type="curve" smooth="yes"/>
      <point x="332" y="1276"/>
      <point x="360" y="1290"/>
      <point x="391" y="1315" type="curve"/>
      <point x="389" y="1321" type="line"/>
      <point x="358" y="1335"/>
      <point x="342" y="1364"/>
      <point x="342" y="1409" type="curve" smooth="yes"/>
      <point x="342" y="1462"/>
      <point x="375" y="1503"/>
      <point x="422" y="1503" type="curve" smooth="yes"/>
      <point x="471" y="1503"/>
      <point x="502" y="1461"/>
      <point x="502" y="1393" type="curve" smooth="yes"/>
      <point x="502" y="1293"/>
      <point x="431" y="1213"/>
      <point x="319" y="1178" type="curve"/>
      <point x="319" y="1169" type="line"/>
      <point x="408" y="1157"/>
      <point x="459" y="1084"/>
      <point x="459" y="969" type="curve" smooth="yes"/>
      <point x="459" y="912"/>
      <point x="445" y="863"/>
      <point x="422" y="829" type="curve" smooth="yes"/>
      <point x="398" y="795"/>
      <point x="365" y="774"/>
      <point x="326" y="774" type="curve" smooth="yes"/>
      <point x="274" y="774"/>
      <point x="238" y="819"/>
      <point x="238" y="883" type="curve" smooth="yes"/>
      <point x="238" y="944"/>
      <point x="270" y="989"/>
      <point x="326" y="1004" type="curve"/>
      <point x="305" y="1055"/>
      <point x="281" y="1073"/>
      <point x="242" y="1073" type="curve" smooth="yes"/>
      <point x="201" y="1073"/>
      <point x="166" y="1056"/>
      <point x="142" y="1028" type="curve" smooth="yes"/>
      <point x="117" y="999"/>
      <point x="102" y="959"/>
      <point x="102" y="911" type="curve" smooth="yes"/>
      <point x="102" y="847"/>
      <point x="127" y="794"/>
      <point x="168" y="756" type="curve" smooth="yes"/>
      <point x="209" y="718"/>
      <point x="268" y="696"/>
      <point x="336" y="696" type="curve" smooth="yes"/>
    </contour>
  </outline>
</glyph>
<glyph name="acute" format="1">
  <advance width="647"/>
  <unicode hex="00B4"/>
  <note>
	acute
  </note>
  <outline>
    <contour>
      <point x="358" y="1149" type="line"/>
      <point x="647" y="1536" type="line"/>
      <point x="432" y="1536" type="line"/>
      <point x="246" y="1149" type="line"/>
    </contour>
  </outline>
</glyph>
<glyph name="micro" format="1">
  <advance width="1034"/>
  <unicode hex="00B5"/>
  <note>
	micro
  </note>
  <outline>
    <contour>
      <point x="160" y="-266" type="line"/>
      <point x="215" y="0" type="line"/>
      <point x="255" y="0"/>
      <point x="304" y="7"/>
      <point x="356" y="34" type="curve" smooth="yes"/>
      <point x="407" y="61"/>
      <point x="460" y="107"/>
      <point x="508" y="184" type="curve"/>
      <point x="523" y="60"/>
      <point x="593" y="0"/>
      <point x="709" y="0" type="curve" smooth="yes"/>
      <point x="745" y="0"/>
      <point x="790" y="4"/>
      <point x="838" y="21" type="curve" smooth="yes"/>
      <point x="886" y="38"/>
      <point x="938" y="70"/>
      <point x="987" y="124" type="curve" smooth="yes"/>
      <point x="1035" y="178"/>
      <point x="1081" y="256"/>
      <point x="1120" y="367" type="curve"/>
      <point x="1034" y="367" type="line"/>
      <point x="1019" y="315"/>
      <point x="998" y="269"/>
      <point x="970" y="237" type="curve" smooth="yes"/>
      <point x="942" y="205"/>
      <point x="908" y="186"/>
      <point x="868" y="186" type="curve" smooth="yes"/>
      <point x="811" y="186"/>
      <point x="784" y="205"/>
      <point x="784" y="262" type="curve" smooth="yes"/>
      <point x="784" y="283"/>
      <point x="786" y="305"/>
      <point x="793" y="328" type="curve"/>
      <point x="940" y="1024" type="line"/>
      <point x="645" y="1024" type="line"/>
      <point x="506" y="367" type="line"/>
      <point x="490" y="315"/>
      <point x="470" y="269"/>
      <point x="443" y="237" type="curve" smooth="yes"/>
      <point x="415" y="205"/>
      <point x="382" y="186"/>
      <point x="342" y="186" type="curve" smooth="yes"/>
      <point x="318" y="186"/>
      <point x="303" y="197"/>
      <point x="294" y="214" type="curve" smooth="yes"/>
      <point x="285" y="230"/>
      <point x="281" y="252"/>
      <point x="281" y="276" type="curve" smooth="yes"/>
      <point x="281" y="293"/>
      <point x="283" y="311"/>
      <point x="287" y="328" type="curve" smooth="yes"/>
      <point x="434" y="1024" type="line"/>
      <point x="139" y="1024" type="line"/>
      <point x="0" y="367" type="line"/>
      <point x="-6" y="336" type="line"/>
      <point x="-150" y="-340" type="line"/>
    </contour>
  </outline>
</glyph>
<glyph name="paragraph" format="1">
  <advance width="1110"/>
  <unicode hex="00B6"/>
  <note>
	paragraph
  </note>
  <outline>
    <contour>
      <point x="489" y="-166" type="line"/>
      <point x="647" y="590" type="line"/>
      <point x="662" y="593"/>
      <point x="677" y="597"/>
      <point x="691" y="600" type="curve" smooth="yes"/>
      <point x="705" y="603"/>
      <point x="720" y="607"/>
      <point x="735" y="612" type="curve"/>
      <point x="569" y="-166" type="line"/>
      <point x="762" y="-166" type="line"/>
      <point x="1022" y="1049" type="line" smooth="yes"/>
      <point x="1033" y="1105"/>
      <point x="1038" y="1149"/>
      <point x="1038" y="1196" type="curve" smooth="yes"/>
      <point x="1038" y="1319"/>
      <point x="994" y="1404"/>
      <point x="926" y="1458" type="curve" smooth="yes"/>
      <point x="857" y="1512"/>
      <point x="762" y="1534"/>
      <point x="659" y="1534" type="curve" smooth="yes"/>
      <point x="547" y="1534"/>
      <point x="453" y="1504"/>
      <point x="377" y="1454" type="curve" smooth="yes"/>
      <point x="301" y="1404"/>
      <point x="244" y="1334"/>
      <point x="205" y="1256" type="curve" smooth="yes"/>
      <point x="166" y="1178"/>
      <point x="147" y="1090"/>
      <point x="147" y="1006" type="curve" smooth="yes"/>
      <point x="147" y="910"/>
      <point x="172" y="816"/>
      <point x="224" y="741" type="curve" smooth="yes"/>
      <point x="275" y="666"/>
      <point x="351" y="610"/>
      <point x="455" y="590" type="curve"/>
      <point x="297" y="-166" type="line"/>
    </contour>
    <contour>
      <point x="817" y="1397" type="line"/>
      <point x="848" y="1370"/>
      <point x="864" y="1332"/>
      <point x="864" y="1268" type="curve" smooth="yes"/>
      <point x="864" y="1239"/>
      <point x="860" y="1206"/>
      <point x="852" y="1167" type="curve" smooth="yes"/>
      <point x="754" y="702" type="line"/>
      <point x="733" y="695"/>
      <point x="709" y="694"/>
      <point x="682" y="694" type="curve" smooth="yes"/>
      <point x="670" y="694" type="line"/>
    </contour>
  </outline>
</glyph>
<glyph name="ordmasculine" format="1">
  <advance width="674"/>
  <unicode hex="00BA"/>
  <note>
	ordmasculine
  </note>
  <outline>
    <contour>
      <point x="327" y="954"/>
      <point x="390" y="984"/>
      <point x="442" y="1042" type="curve" smooth="yes"/>
      <point x="493" y="1100"/>
      <point x="532" y="1185"/>
      <point x="537" y="1300" type="curve"/>
      <point x="561" y="1313"/>
      <point x="577" y="1333"/>
      <point x="589" y="1354" type="curve" smooth="yes"/>
      <point x="601" y="1375"/>
      <point x="609" y="1397"/>
      <point x="616" y="1417" type="curve"/>
      <point x="604" y="1440" type="line"/>
      <point x="591" y="1425"/>
      <point x="580" y="1412"/>
      <point x="572" y="1403" type="curve"/>
      <point x="564" y="1393"/>
      <point x="552" y="1383"/>
      <point x="537" y="1374" type="curve"/>
      <point x="537" y="1405"/>
      <point x="529" y="1413"/>
      <point x="498" y="1413" type="curve" smooth="yes"/>
      <point x="478" y="1413"/>
      <point x="459" y="1402"/>
      <point x="444" y="1386" type="curve" smooth="yes"/>
      <point x="428" y="1370"/>
      <point x="418" y="1349"/>
      <point x="418" y="1329" type="curve" smooth="yes"/>
      <point x="418" y="1305"/>
      <point x="428" y="1290"/>
      <point x="449" y="1284" type="curve"/>
      <point x="444" y="1233"/>
      <point x="432" y="1179"/>
      <point x="412" y="1136" type="curve" smooth="yes"/>
      <point x="392" y="1093"/>
      <point x="364" y="1063"/>
      <point x="328" y="1063" type="curve" smooth="yes"/>
      <point x="304" y="1063"/>
      <point x="283" y="1068"/>
      <point x="268" y="1081" type="curve"/>
      <point x="252" y="1093"/>
      <point x="244" y="1114"/>
      <point x="244" y="1147" type="curve" smooth="yes"/>
      <point x="244" y="1176"/>
      <point x="248" y="1221"/>
      <point x="259" y="1268" type="curve" smooth="yes"/>
      <point x="270" y="1315"/>
      <point x="287" y="1363"/>
      <point x="311" y="1400" type="curve" smooth="yes"/>
      <point x="334" y="1437"/>
      <point x="364" y="1462"/>
      <point x="403" y="1462" type="curve" smooth="yes"/>
      <point x="428" y="1462"/>
      <point x="446" y="1449"/>
      <point x="457" y="1423" type="curve"/>
      <point x="481" y="1432"/>
      <point x="510" y="1444"/>
      <point x="510" y="1477" type="curve" smooth="yes"/>
      <point x="510" y="1492"/>
      <point x="496" y="1504"/>
      <point x="475" y="1513" type="curve"/>
      <point x="454" y="1521"/>
      <point x="426" y="1526"/>
      <point x="397" y="1526" type="curve" smooth="yes"/>
      <point x="314" y="1526"/>
      <point x="237" y="1496"/>
      <point x="180" y="1433" type="curve" smooth="yes"/>
      <point x="123" y="1369"/>
      <point x="86" y="1272"/>
      <point x="86" y="1137" type="curve" smooth="yes"/>
      <point x="86" y="1006"/>
      <point x="143" y="954"/>
      <point x="272" y="954" type="curve" smooth="yes"/>
    </contour>
  </outline>
</glyph>
<glyph name="guillemetright" format="1">
  <advance width="1200"/>
  <unicode hex="00BB"/>
  <note>
	guillemetright
  </note>
  <outline>
    <contour>
      <point x="1108" y="461" type="line"/>
      <point x="1130" y="571" type="line"/>
      <point x="627" y="879" type="line"/>
      <point x="608" y="766" type="line"/>
      <point x="1006" y="520" type="line"/>
      <point x="514" y="324" type="line"/>
      <point x="485" y="207" type="line"/>
    </contour>
    <contour>
      <point x="653" y="461" type="line"/>
      <point x="676" y="571" type="line"/>
      <point x="172" y="879" type="line"/>
      <point x="154" y="766" type="line"/>
      <point x="551" y="520" type="line"/>
      <point x="59" y="324" type="line"/>
      <point x="31" y="207" type="line"/>
    </contour>
  </outline>
</glyph>
<glyph name="threequarters" format="1">
  <advance width="1499"/>
  <unicode hex="00BE"/>
  <note>
	threequarters
  </note>
  <outline>
    <contour>
      <point x="401" y="0" type="line"/>
      <point x="1253" y="1540" type="line"/>
      <point x="1106" y="1540" type="line"/>
      <point x="254" y="0" type="line"/>
    </contour>
    <contour>
      <point x="390" y="696"/>
      <point x="470" y="728"/>
      <point x="528" y="779" type="curve" smooth="yes"/>
      <point x="586" y="830"/>
      <point x="622" y="898"/>
      <point x="622" y="973" type="curve" smooth="yes"/>
      <point x="622" y="1073"/>
      <point x="555" y="1148"/>
      <point x="448" y="1171" type="curve"/>
      <point x="448" y="1180" type="line"/>
      <point x="505" y="1196"/>
      <point x="553" y="1224"/>
      <point x="586" y="1258" type="curve" smooth="yes"/>
      <point x="618" y="1292"/>
      <point x="637" y="1333"/>
      <point x="637" y="1380" type="curve" smooth="yes"/>
      <point x="637" y="1432"/>
      <point x="614" y="1478"/>
      <point x="575" y="1511" type="curve" smooth="yes"/>
      <point x="535" y="1543"/>
      <point x="479" y="1563"/>
      <point x="415" y="1563" type="curve" smooth="yes"/>
      <point x="348" y="1563"/>
      <point x="288" y="1543"/>
      <point x="244" y="1509" type="curve" smooth="yes"/>
      <point x="200" y="1475"/>
      <point x="172" y="1429"/>
      <point x="172" y="1378" type="curve" smooth="yes"/>
      <point x="172" y="1317"/>
      <point x="212" y="1276"/>
      <point x="272" y="1276" type="curve" smooth="yes"/>
      <point x="301" y="1276"/>
      <point x="329" y="1290"/>
      <point x="360" y="1315" type="curve"/>
      <point x="358" y="1321" type="line"/>
      <point x="327" y="1335"/>
      <point x="311" y="1364"/>
      <point x="311" y="1409" type="curve" smooth="yes"/>
      <point x="311" y="1462"/>
      <point x="344" y="1503"/>
      <point x="391" y="1503" type="curve" smooth="yes"/>
      <point x="440" y="1503"/>
      <point x="471" y="1461"/>
      <point x="471" y="1393" type="curve" smooth="yes"/>
      <point x="471" y="1293"/>
      <point x="400" y="1213"/>
      <point x="288" y="1178" type="curve"/>
      <point x="288" y="1169" type="line"/>
      <point x="377" y="1157"/>
      <point x="428" y="1084"/>
      <point x="428" y="969" type="curve" smooth="yes"/>
      <point x="428" y="912"/>
      <point x="414" y="863"/>
      <point x="391" y="829" type="curve" smooth="yes"/>
      <point x="367" y="795"/>
      <point x="334" y="774"/>
      <point x="295" y="774" type="curve" smooth="yes"/>
      <point x="243" y="774"/>
      <point x="207" y="819"/>
      <point x="207" y="883" type="curve" smooth="yes"/>
      <point x="207" y="944"/>
      <point x="239" y="989"/>
      <point x="295" y="1004" type="curve"/>
      <point x="274" y="1055"/>
      <point x="250" y="1073"/>
      <point x="211" y="1073" type="curve" smooth="yes"/>
      <point x="170" y="1073"/>
      <point x="135" y="1056"/>
      <point x="111" y="1028" type="curve" smooth="yes"/>
      <point x="86" y="999"/>
      <point x="71" y="959"/>
      <point x="71" y="911" type="curve" smooth="yes"/>
      <point x="71" y="847"/>
      <point x="96" y="794"/>
      <point x="137" y="756" type="curve" smooth="yes"/>
      <point x="178" y="718"/>
      <point x="237" y="696"/>
      <point x="305" y="696" type="curve" smooth="yes"/>
    </contour>
    <contour>
      <point x="1247" y="0" type="line"/>
      <point x="1311" y="303" type="line"/>
      <point x="1384" y="303" type="line"/>
      <point x="1407" y="393" type="line"/>
      <point x="1329" y="393" type="line"/>
      <point x="1427" y="846" type="line"/>
      <point x="1245" y="823" type="line"/>
      <point x="1153" y="393" type="line"/>
      <point x="975" y="393" type="line"/>
      <point x="973" y="399" type="line"/>
      <point x="1025" y="452"/>
      <point x="1069" y="512"/>
      <point x="1100" y="571" type="curve" smooth="yes"/>
      <point x="1131" y="630"/>
      <point x="1149" y="687"/>
      <point x="1149" y="735" type="curve" smooth="yes"/>
      <point x="1149" y="811"/>
      <point x="1110" y="858"/>
      <point x="1042" y="858" type="curve" smooth="yes"/>
      <point x="1019" y="858"/>
      <point x="994" y="856"/>
      <point x="971" y="852" type="curve"/>
      <point x="979" y="819"/>
      <point x="987" y="786"/>
      <point x="987" y="745" type="curve" smooth="yes"/>
      <point x="987" y="622"/>
      <point x="938" y="490"/>
      <point x="829" y="311" type="curve"/>
      <point x="831" y="303" type="line"/>
      <point x="1135" y="303" type="line"/>
      <point x="1069" y="0" type="line"/>
    </contour>
  </outline>
</glyph>
<glyph name="Eth" format="1">
  <advance width="1358"/>
  <unicode hex="00D0"/>
  <note>
	Eth
  </note>
  <outline>
    <contour>
      <point x="855" y="-27"/>
      <point x="952" y="26"/>
      <point x="1036" y="117" type="curve" smooth="yes"/>
      <point x="1120" y="208"/>
      <point x="1192" y="336"/>
      <point x="1242" y="486" type="curve" smooth="yes"/>
      <point x="1292" y="636"/>
      <point x="1321" y="807"/>
      <point x="1321" y="983" type="curve" smooth="yes"/>
      <point x="1321" y="1079"/>
      <point x="1308" y="1172"/>
      <point x="1273" y="1254" type="curve" smooth="yes"/>
      <point x="1238" y="1336"/>
      <point x="1182" y="1407"/>
      <point x="1095" y="1457" type="curve" smooth="yes"/>
      <point x="1007" y="1507"/>
      <point x="888" y="1536"/>
      <point x="731" y="1536" type="curve" smooth="yes"/>
      <point x="616" y="1536"/>
      <point x="499" y="1507"/>
      <point x="393" y="1459" type="curve" smooth="yes"/>
      <point x="287" y="1410"/>
      <point x="191" y="1342"/>
      <point x="123" y="1263" type="curve" smooth="yes"/>
      <point x="54" y="1184"/>
      <point x="12" y="1095"/>
      <point x="12" y="1004" type="curve" smooth="yes"/>
      <point x="12" y="929"/>
      <point x="32" y="880"/>
      <point x="69" y="849" type="curve" smooth="yes"/>
      <point x="105" y="818"/>
      <point x="160" y="805"/>
      <point x="231" y="805" type="curve"/>
      <point x="231" y="809"/>
      <point x="230" y="814"/>
      <point x="227" y="819" type="curve" smooth="yes"/>
      <point x="224" y="824"/>
      <point x="220" y="832"/>
      <point x="217" y="842" type="curve"/>
      <point x="210" y="861"/>
      <point x="203" y="892"/>
      <point x="203" y="944" type="curve" smooth="yes"/>
      <point x="203" y="1100"/>
      <point x="258" y="1224"/>
      <point x="355" y="1310" type="curve" smooth="yes"/>
      <point x="452" y="1396"/>
      <point x="589" y="1442"/>
      <point x="756" y="1442" type="curve" smooth="yes"/>
      <point x="873" y="1442"/>
      <point x="944" y="1405"/>
      <point x="985" y="1337" type="curve" smooth="yes"/>
      <point x="1026" y="1269"/>
      <point x="1038" y="1168"/>
      <point x="1038" y="1040" type="curve" smooth="yes"/>
      <point x="1038" y="909"/>
      <point x="1022" y="767"/>
      <point x="991" y="636" type="curve" smooth="yes"/>
      <point x="959" y="504"/>
      <point x="914" y="384"/>
      <point x="856" y="297" type="curve" smooth="yes"/>
      <point x="798" y="209"/>
      <point x="726" y="154"/>
      <point x="645" y="154" type="curve" smooth="yes"/>
      <point x="604" y="154"/>
      <point x="565" y="168"/>
      <point x="528" y="195" type="curve"/>
      <point x="637" y="707" type="line"/>
      <point x="791" y="707" type="line"/>
      <point x="831" y="858" type="line"/>
      <point x="670" y="858" type="line"/>
      <point x="774" y="1343" type="line"/>
      <point x="471" y="1303" type="line"/>
      <point x="377" y="858" type="line"/>
      <point x="305" y="858" type="line"/>
      <point x="264" y="707" type="line"/>
      <point x="344" y="707" type="line"/>
      <point x="193" y="0" type="line"/>
      <point x="487" y="0" type="line"/>
      <point x="504" y="82" type="line"/>
      <point x="592" y="6"/>
      <point x="674" y="-27"/>
      <point x="754" y="-27" type="curve" smooth="yes"/>
    </contour>
  </outline>
</glyph>
<glyph name="Thorn" format="1">
  <advance width="1194"/>
  <unicode hex="00DE"/>
  <note>
	Thorn
  </note>
  <outline>
    <contour>
      <point x="487" y="0" type="line"/>
      <point x="563" y="358" type="line"/>
      <point x="623" y="358" type="line" smooth="yes"/>
      <point x="807" y="358"/>
      <point x="955" y="430"/>
      <point x="1057" y="535" type="curve" smooth="yes"/>
      <point x="1159" y="640"/>
      <point x="1214" y="776"/>
      <point x="1214" y="907" type="curve" smooth="yes"/>
      <point x="1214" y="1010"/>
      <point x="1179" y="1107"/>
      <point x="1107" y="1180" type="curve" smooth="yes"/>
      <point x="1034" y="1252"/>
      <point x="922" y="1303"/>
      <point x="766" y="1311" type="curve"/>
      <point x="815" y="1536" type="line"/>
      <point x="512" y="1495" type="line"/>
      <point x="461" y="1262" type="line"/>
      <point x="338" y="1219"/>
      <point x="226" y="1148"/>
      <point x="145" y="1063" type="curve" smooth="yes"/>
      <point x="64" y="978"/>
      <point x="12" y="878"/>
      <point x="12" y="778" type="curve" smooth="yes"/>
      <point x="12" y="705"/>
      <point x="32" y="655"/>
      <point x="69" y="624" type="curve" smooth="yes"/>
      <point x="105" y="593"/>
      <point x="160" y="580"/>
      <point x="231" y="580" type="curve"/>
      <point x="231" y="584"/>
      <point x="230" y="589"/>
      <point x="227" y="594" type="curve" smooth="yes"/>
      <point x="224" y="599"/>
      <point x="220" y="606"/>
      <point x="217" y="616" type="curve"/>
      <point x="210" y="636"/>
      <point x="203" y="667"/>
      <point x="203" y="719" type="curve" smooth="yes"/>
      <point x="203" y="926"/>
      <point x="285" y="1071"/>
      <point x="438" y="1151" type="curve"/>
      <point x="193" y="0" type="line"/>
    </contour>
    <contour>
      <point x="748" y="1217" type="line"/>
      <point x="833" y="1213"/>
      <point x="892" y="1180"/>
      <point x="931" y="1129" type="curve" smooth="yes"/>
      <point x="970" y="1078"/>
      <point x="987" y="1010"/>
      <point x="987" y="938" type="curve" smooth="yes"/>
      <point x="987" y="863"/>
      <point x="969" y="783"/>
      <point x="937" y="708" type="curve" smooth="yes"/>
      <point x="905" y="633"/>
      <point x="859" y="566"/>
      <point x="803" y="516" type="curve" smooth="yes"/>
      <point x="747" y="466"/>
      <point x="680" y="434"/>
      <point x="608" y="434" type="curve" smooth="yes"/>
      <point x="580" y="434" type="line"/>
    </contour>
  </outline>
</glyph>
<glyph name="atilde" format="1">
  <advance width="1077"/>
  <unicode hex="00E3"/>
  <note>
	atilde
  </note>
  <outline>
    <contour>
      <point x="319" y="-12"/>
      <point x="380" y="12"/>
      <point x="429" y="48" type="curve" smooth="yes"/>
      <point x="478" y="83"/>
      <point x="518" y="129"/>
      <point x="551" y="176" type="curve"/>
      <point x="566" y="52"/>
      <point x="636" y="-12"/>
      <point x="752" y="-12" type="curve" smooth="yes"/>
      <point x="788" y="-12"/>
      <point x="833" y="-7"/>
      <point x="881" y="12" type="curve" smooth="yes"/>
      <point x="929" y="31"/>
      <point x="981" y="64"/>
      <point x="1030" y="120" type="curve" smooth="yes"/>
      <point x="1078" y="176"/>
      <point x="1124" y="256"/>
      <point x="1163" y="367" type="curve"/>
      <point x="1077" y="367" type="line"/>
      <point x="1062" y="315"/>
      <point x="1041" y="266"/>
      <point x="1013" y="231" type="curve" smooth="yes"/>
      <point x="985" y="196"/>
      <point x="951" y="174"/>
      <point x="911" y="174" type="curve" smooth="yes"/>
      <point x="855" y="174"/>
      <point x="827" y="203"/>
      <point x="827" y="262" type="curve" smooth="yes"/>
      <point x="827" y="283"/>
      <point x="829" y="305"/>
      <point x="836" y="328" type="curve"/>
      <point x="983" y="1024" type="line"/>
      <point x="688" y="1024" type="line"/>
      <point x="666" y="915" type="line"/>
      <point x="666" y="930" type="line" smooth="yes"/>
      <point x="666" y="989"/>
      <point x="616" y="1034"/>
      <point x="500" y="1034" type="curve" smooth="yes"/>
      <point x="381" y="1034"/>
      <point x="283" y="986"/>
      <point x="205" y="911" type="curve" smooth="yes"/>
      <point x="127" y="835"/>
      <point x="69" y="734"/>
      <point x="30" y="627" type="curve" smooth="yes"/>
      <point x="-9" y="520"/>
      <point x="-27" y="410"/>
      <point x="-27" y="317" type="curve" smooth="yes"/>
      <point x="-27" y="196"/>
      <point x="6" y="113"/>
      <point x="57" y="61" type="curve" smooth="yes"/>
      <point x="108" y="9"/>
      <point x="175" y="-12"/>
      <point x="246" y="-12" type="curve" smooth="yes"/>
    </contour>
    <contour>
      <point x="360" y="186"/>
      <point x="334" y="187"/>
      <point x="314" y="208" type="curve"/>
      <point x="293" y="228"/>
      <point x="276" y="267"/>
      <point x="276" y="346" type="curve" smooth="yes"/>
      <point x="276" y="410"/>
      <point x="288" y="494"/>
      <point x="312" y="578" type="curve" smooth="yes"/>
      <point x="335" y="661"/>
      <point x="368" y="743"/>
      <point x="411" y="805" type="curve" smooth="yes"/>
      <point x="454" y="867"/>
      <point x="506" y="907"/>
      <point x="563" y="907" type="curve" smooth="yes"/>
      <point x="596" y="907"/>
      <point x="617" y="894"/>
      <point x="630" y="878" type="curve"/>
      <point x="642" y="861"/>
      <point x="647" y="841"/>
      <point x="647" y="829" type="curve"/>
      <point x="549" y="367" type="line" smooth="yes"/>
      <point x="536" y="307"/>
      <point x="508" y="262"/>
      <point x="477" y="232" type="curve" smooth="yes"/>
      <point x="445" y="202"/>
      <point x="410" y="186"/>
      <point x="379" y="186" type="curve" smooth="yes"/>
    </contour>
    <contour>
      <point x="817" y="1165"/>
      <point x="896" y="1192"/>
      <point x="956" y="1232" type="curve" smooth="yes"/>
      <point x="1016" y="1271"/>
      <point x="1059" y="1322"/>
      <point x="1070" y="1370" type="curve"/>
      <point x="1058" y="1372" type="line"/>
      <point x="1027" y="1341"/>
      <point x="980" y="1325"/>
      <point x="929" y="1325" type="curve" smooth="yes"/>
      <point x="869" y="1325"/>
      <point x="822" y="1342"/>
      <point x="771" y="1359" type="curve" smooth="yes"/>
      <point x="719" y="1376"/>
      <point x="664" y="1393"/>
      <point x="591" y="1393" type="curve" smooth="yes"/>
      <point x="434" y="1393"/>
      <point x="314" y="1324"/>
      <point x="249" y="1192" type="curve"/>
      <point x="261" y="1188" type="line"/>
      <point x="300" y="1223"/>
      <point x="345" y="1241"/>
      <point x="396" y="1241" type="curve" smooth="yes"/>
      <point x="453" y="1241"/>
      <point x="505" y="1222"/>
      <point x="560" y="1203" type="curve" smooth="yes"/>
      <point x="615" y="1184"/>
      <point x="672" y="1165"/>
      <point x="740" y="1165" type="curve" smooth="yes"/>
    </contour>
  </outline>
</glyph>
<glyph name="aring" format="1">
  <advance width="1077"/>
  <unicode hex="00E5"/>
  <note>
	aring
  </note>
  <outline>
    <contour>
      <point x="319" y="-12"/>
      <point x="380" y="12"/>
      <point x="429" y="48" type="curve" smooth="yes"/>
      <point x="478" y="83"/>
      <point x="518" y="129"/>
      <point x="551" y="176" type="curve"/>
      <point x="566" y="52"/>
      <point x="636" y="-12"/>
      <point x="752" y="-12" type="curve" smooth="yes"/>
      <point x="788" y="-12"/>
      <point x="833" y="-7"/>
      <point x="881" y="12" type="curve" smooth="yes"/>
      <point x="929" y="31"/>
      <point x="981" y="64"/>
      <point x="1030" y="120" type="curve" smooth="yes"/>
      <point x="1078" y="176"/>
      <point x="1124" y="256"/>
      <point x="1163" y="367" type="curve"/>
      <point x="1077" y="367" type="line"/>
      <point x="1062" y="315"/>
      <point x="1041" y="266"/>
      <point x="1013" y="231" type="curve" smooth="yes"/>
      <point x="985" y="196"/>
      <point x="951" y="174"/>
      <point x="911" y="174" type="curve" smooth="yes"/>
      <point x="855" y="174"/>
      <point x="827" y="203"/>
      <point x="827" y="262" type="curve" smooth="yes"/>
      <point x="827" y="283"/>
      <point x="829" y="305"/>
      <point x="836" y="328" type="curve"/>
      <point x="983" y="1024" type="line"/>
      <point x="688" y="1024" type="line"/>
      <point x="666" y="915" type="line"/>
      <point x="666" y="930" type="line" smooth="yes"/>
      <point x="666" y="989"/>
      <point x="616" y="1034"/>
      <point x="500" y="1034" type="curve" smooth="yes"/>
      <point x="381" y="1034"/>
      <point x="283" y="986"/>
      <point x="205" y="911" type="curve" smooth="yes"/>
      <point x="127" y="835"/>
      <point x="69" y="734"/>
      <point x="30" y="627" type="curve" smooth="yes"/>
      <point x="-9" y="520"/>
      <point x="-27" y="410"/>
      <point x="-27" y="317" type="curve" smooth="yes"/>
      <point x="-27" y="196"/>
      <point x="6" y="113"/>
      <point x="57" y="61" type="curve" smooth="yes"/>
      <point x="108" y="9"/>
      <point x="175" y="-12"/>
      <point x="246" y="-12" type="curve" smooth="yes"/>
    </contour>
    <contour>
      <point x="360" y="186"/>
      <point x="334" y="187"/>
      <point x="314" y="208" type="curve"/>
      <point x="293" y="228"/>
      <point x="276" y="267"/>
      <point x="276" y="346" type="curve" smooth="yes"/>
      <point x="276" y="410"/>
      <point x="288" y="494"/>
      <point x="312" y="578" type="curve" smooth="yes"/>
      <point x="335" y="661"/>
      <point x="368" y="743"/>
      <point x="411" y="805" type="curve" smooth="yes"/>
      <point x="454" y="867"/>
      <point x="506" y="907"/>
      <point x="563" y="907" type="curve" smooth="yes"/>
      <point x="596" y="907"/>
      <point x="617" y="894"/>
      <point x="630" y="878" type="curve"/>
      <point x="642" y="861"/>
      <point x="647" y="841"/>
      <point x="647" y="829" type="curve"/>
      <point x="549" y="367" type="line" smooth="yes"/>
      <point x="536" y="307"/>
      <point x="508" y="262"/>
      <point x="477" y="232" type="curve" smooth="yes"/>
      <point x="445" y="202"/>
      <point x="410" y="186"/>
      <point x="379" y="186" type="curve" smooth="yes"/>
    </contour>
    <contour>
      <point x="687" y="1130"/>
      <point x="732" y="1150"/>
      <point x="761" y="1182" type="curve" smooth="yes"/>
      <point x="789" y="1214"/>
      <point x="801" y="1258"/>
      <point x="801" y="1303" type="curve" smooth="yes"/>
      <point x="801" y="1347"/>
      <point x="789" y="1386"/>
      <point x="765" y="1415" type="curve" smooth="yes"/>
      <point x="741" y="1443"/>
      <point x="704" y="1460"/>
      <point x="653" y="1460" type="curve" smooth="yes"/>
      <point x="592" y="1460"/>
      <point x="548" y="1432"/>
      <point x="520" y="1395" type="curve" smooth="yes"/>
      <point x="492" y="1358"/>
      <point x="479" y="1311"/>
      <point x="479" y="1274" type="curve" smooth="yes"/>
      <point x="479" y="1234"/>
      <point x="493" y="1198"/>
      <point x="518" y="1172" type="curve" smooth="yes"/>
      <point x="543" y="1146"/>
      <point x="579" y="1130"/>
      <point x="623" y="1130" type="curve" smooth="yes"/>
    </contour>
    <contour>
      <point x="582" y="1202"/>
      <point x="561" y="1231"/>
      <point x="561" y="1278" type="curve" smooth="yes"/>
      <point x="561" y="1303"/>
      <point x="567" y="1333"/>
      <point x="583" y="1355" type="curve" smooth="yes"/>
      <point x="598" y="1377"/>
      <point x="621" y="1393"/>
      <point x="657" y="1393" type="curve" smooth="yes"/>
      <point x="690" y="1393"/>
      <point x="707" y="1379"/>
      <point x="716" y="1360" type="curve"/>
      <point x="724" y="1341"/>
      <point x="725" y="1316"/>
      <point x="725" y="1296" type="curve" smooth="yes"/>
      <point x="725" y="1239"/>
      <point x="695" y="1202"/>
      <point x="631" y="1202" type="curve" smooth="yes"/>
    </contour>
  </outline>
</glyph>
<glyph name="ae" format="1">
  <advance width="1331"/>
  <unicode hex="00E6"/>
  <note>
	ae
  </note>
  <outline>
    <contour>
      <point x="325" y="-12"/>
      <point x="384" y="11"/>
      <point x="429" y="47" type="curve" smooth="yes"/>
      <point x="474" y="83"/>
      <point x="507" y="132"/>
      <point x="535" y="184" type="curve"/>
      <point x="554" y="115"/>
      <point x="592" y="67"/>
      <point x="644" y="36" type="curve" smooth="yes"/>
      <point x="695" y="5"/>
      <point x="761" y="-8"/>
      <point x="836" y="-8" type="curve" smooth="yes"/>
      <point x="973" y="-8"/>
      <point x="1087" y="39"/>
      <point x="1180" y="110" type="curve" smooth="yes"/>
      <point x="1272" y="181"/>
      <point x="1345" y="275"/>
      <point x="1401" y="367" type="curve"/>
      <point x="1331" y="367" type="line"/>
      <point x="1274" y="304"/>
      <point x="1228" y="253"/>
      <point x="1170" y="217" type="curve" smooth="yes"/>
      <point x="1112" y="181"/>
      <point x="1044" y="160"/>
      <point x="944" y="160" type="curve" smooth="yes"/>
      <point x="907" y="160"/>
      <point x="876" y="169"/>
      <point x="855" y="197" type="curve" smooth="yes"/>
      <point x="834" y="225"/>
      <point x="821" y="272"/>
      <point x="821" y="348" type="curve" smooth="yes"/>
      <point x="821" y="371"/>
      <point x="822" y="391"/>
      <point x="825" y="414" type="curve"/>
      <point x="948" y="422"/>
      <point x="1065" y="471"/>
      <point x="1153" y="547" type="curve" smooth="yes"/>
      <point x="1240" y="623"/>
      <point x="1296" y="725"/>
      <point x="1296" y="840" type="curve" smooth="yes"/>
      <point x="1296" y="893"/>
      <point x="1285" y="945"/>
      <point x="1253" y="982" type="curve" smooth="yes"/>
      <point x="1220" y="1018"/>
      <point x="1164" y="1042"/>
      <point x="1073" y="1042" type="curve" smooth="yes"/>
      <point x="960" y="1042"/>
      <point x="870" y="1008"/>
      <point x="797" y="952" type="curve"/>
      <point x="725" y="1011"/>
      <point x="635" y="1034"/>
      <point x="530" y="1034" type="curve" smooth="yes"/>
      <point x="473" y="1034"/>
      <point x="418" y="1032"/>
      <point x="359" y="1012" type="curve" smooth="yes"/>
      <point x="299" y="991"/>
      <point x="234" y="951"/>
      <point x="158" y="874" type="curve"/>
      <point x="215" y="815" type="line"/>
      <point x="244" y="843"/>
      <point x="276" y="867"/>
      <point x="315" y="884" type="curve" smooth="yes"/>
      <point x="354" y="900"/>
      <point x="402" y="911"/>
      <point x="463" y="911" type="curve" smooth="yes"/>
      <point x="507" y="911"/>
      <point x="538" y="896"/>
      <point x="559" y="870" type="curve" smooth="yes"/>
      <point x="579" y="844"/>
      <point x="588" y="807"/>
      <point x="588" y="766" type="curve" smooth="yes"/>
      <point x="588" y="709"/>
      <point x="572" y="643"/>
      <point x="545" y="586" type="curve"/>
      <point x="520" y="593"/>
      <point x="487" y="594"/>
      <point x="438" y="594" type="curve" smooth="yes"/>
      <point x="310" y="594"/>
      <point x="196" y="572"/>
      <point x="115" y="519" type="curve" smooth="yes"/>
      <point x="34" y="466"/>
      <point x="-16" y="381"/>
      <point x="-16" y="254" type="curve" smooth="yes"/>
      <point x="-16" y="146"/>
      <point x="19" y="79"/>
      <point x="69" y="40" type="curve" smooth="yes"/>
      <point x="119" y="0"/>
      <point x="184" y="-12"/>
      <point x="244" y="-12" type="curve" smooth="yes"/>
    </contour>
    <contour>
      <point x="355" y="186"/>
      <point x="331" y="188"/>
      <point x="311" y="203" type="curve" smooth="yes"/>
      <point x="290" y="218"/>
      <point x="272" y="242"/>
      <point x="272" y="289" type="curve" smooth="yes"/>
      <point x="272" y="342"/>
      <point x="294" y="388"/>
      <point x="334" y="420" type="curve" smooth="yes"/>
      <point x="373" y="451"/>
      <point x="429" y="469"/>
      <point x="496" y="469" type="curve" smooth="yes"/>
      <point x="503" y="469"/>
      <point x="509" y="469"/>
      <point x="513" y="469" type="curve" smooth="yes"/>
      <point x="517" y="469"/>
      <point x="523" y="468"/>
      <point x="530" y="467" type="curve"/>
      <point x="509" y="355"/>
      <point x="485" y="286"/>
      <point x="458" y="243" type="curve" smooth="yes"/>
      <point x="431" y="200"/>
      <point x="402" y="186"/>
      <point x="367" y="186" type="curve" smooth="yes"/>
    </contour>
    <contour>
      <point x="861" y="611"/>
      <point x="897" y="716"/>
      <point x="941" y="797" type="curve" smooth="yes"/>
      <point x="984" y="878"/>
      <point x="1035" y="934"/>
      <point x="1090" y="934" type="curve" smooth="yes"/>
      <point x="1129" y="934"/>
      <point x="1139" y="901"/>
      <point x="1139" y="844" type="curve" smooth="yes"/>
      <point x="1139" y="763"/>
      <point x="1104" y="682"/>
      <point x="1049" y="621" type="curve" smooth="yes"/>
      <point x="993" y="560"/>
      <point x="919" y="517"/>
      <point x="840" y="512" type="curve"/>
    </contour>
  </outline>
</glyph>
<glyph name="idieresis" format="1">
  <advance width="547"/>
  <unicode hex="00EF"/>
  <note>
	idieresis
  </note>
  <outline>
    <contour>
      <point x="239" y="-12"/>
      <point x="286" y="-7"/>
      <point x="337" y="12" type="curve" smooth="yes"/>
      <point x="388" y="31"/>
      <point x="443" y="64"/>
      <point x="495" y="120" type="curve" smooth="yes"/>
      <point x="546" y="176"/>
      <point x="594" y="256"/>
      <point x="633" y="367" type="curve"/>
      <point x="547" y="367" type="line"/>
      <point x="531" y="315"/>
      <point x="505" y="269"/>
      <point x="473" y="237" type="curve" smooth="yes"/>
      <point x="441" y="205"/>
      <point x="402" y="186"/>
      <point x="362" y="186" type="curve" smooth="yes"/>
      <point x="305" y="186"/>
      <point x="279" y="205"/>
      <point x="279" y="262" type="curve" smooth="yes"/>
      <point x="279" y="283"/>
      <point x="280" y="305"/>
      <point x="287" y="328" type="curve"/>
      <point x="434" y="1024" type="line"/>
      <point x="139" y="1024" type="line"/>
      <point x="0" y="367" type="line" smooth="yes"/>
      <point x="-11" y="315"/>
      <point x="-16" y="270"/>
      <point x="-16" y="233" type="curve" smooth="yes"/>
      <point x="-16" y="146"/>
      <point x="8" y="86"/>
      <point x="48" y="46" type="curve" smooth="yes"/>
      <point x="87" y="6"/>
      <point x="142" y="-12"/>
      <point x="203" y="-12" type="curve" smooth="yes"/>
    </contour>
    <contour>
      <point x="193" y="1174"/>
      <point x="224" y="1188"/>
      <point x="248" y="1210" type="curve" smooth="yes"/>
      <point x="271" y="1232"/>
      <point x="285" y="1262"/>
      <point x="285" y="1298" type="curve" smooth="yes"/>
      <point x="285" y="1331"/>
      <point x="271" y="1363"/>
      <point x="248" y="1386" type="curve" smooth="yes"/>
      <point x="224" y="1409"/>
      <point x="193" y="1423"/>
      <point x="160" y="1423" type="curve" smooth="yes"/>
      <point x="124" y="1423"/>
      <point x="93" y="1409"/>
      <point x="71" y="1386" type="curve" smooth="yes"/>
      <point x="49" y="1363"/>
      <point x="35" y="1331"/>
      <point x="35" y="1298" type="curve" smooth="yes"/>
      <point x="35" y="1262"/>
      <point x="49" y="1232"/>
      <point x="71" y="1210" type="curve" smooth="yes"/>
      <point x="93" y="1188"/>
      <point x="124" y="1174"/>
      <point x="160" y="1174" type="curve" smooth="yes"/>
    </contour>
    <contour>
      <point x="541" y="1174"/>
      <point x="573" y="1188"/>
      <point x="596" y="1210" type="curve" smooth="yes"/>
      <point x="619" y="1232"/>
      <point x="633" y="1262"/>
      <point x="633" y="1298" type="curve" smooth="yes"/>
      <point x="633" y="1331"/>
      <point x="619" y="1363"/>
      <point x="596" y="1386" type="curve" smooth="yes"/>
      <point x="573" y="1409"/>
      <point x="541" y="1423"/>
      <point x="508" y="1423" type="curve" smooth="yes"/>
      <point x="472" y="1423"/>
      <point x="442" y="1409"/>
      <point x="419" y="1386" type="curve" smooth="yes"/>
      <point x="396" y="1363"/>
      <point x="383" y="1331"/>
      <point x="383" y="1298" type="curve" smooth="yes"/>
      <point x="383" y="1262"/>
      <point x="396" y="1232"/>
      <point x="419" y="1210" type="curve" smooth="yes"/>
      <point x="442" y="1188"/>
      <point x="472" y="1174"/>
      <point x="508" y="1174" type="curve" smooth="yes"/>
    </contour>
  </outline>
</glyph>
<glyph name="eth" format="1">
  <advance width="1102"/>
  <unicode hex="00F0"/>
  <note>
	eth
  </note>
  <outline>
    <contour>
      <point x="343" y="-12"/>
      <point x="405" y="12"/>
      <point x="455" y="48" type="curve" smooth="yes"/>
      <point x="505" y="84"/>
      <point x="544" y="131"/>
      <point x="575" y="178" type="curve"/>
      <point x="592" y="61"/>
      <point x="663" y="0"/>
      <point x="776" y="0" type="curve" smooth="yes"/>
      <point x="831" y="0"/>
      <point x="904" y="9"/>
      <point x="980" y="59" type="curve" smooth="yes"/>
      <point x="1055" y="109"/>
      <point x="1131" y="200"/>
      <point x="1188" y="367" type="curve"/>
      <point x="1102" y="367" type="line"/>
      <point x="1086" y="315"/>
      <point x="1065" y="269"/>
      <point x="1038" y="237" type="curve" smooth="yes"/>
      <point x="1010" y="205"/>
      <point x="976" y="186"/>
      <point x="936" y="186" type="curve" smooth="yes"/>
      <point x="879" y="186"/>
      <point x="852" y="205"/>
      <point x="852" y="262" type="curve" smooth="yes"/>
      <point x="852" y="283"/>
      <point x="853" y="305"/>
      <point x="860" y="328" type="curve"/>
      <point x="964" y="810" type="line" smooth="yes"/>
      <point x="1001" y="981"/>
      <point x="994" y="1141"/>
      <point x="937" y="1282" type="curve"/>
      <point x="1137" y="1336" type="line"/>
      <point x="1110" y="1449" type="line"/>
      <point x="884" y="1385" type="line"/>
      <point x="849" y="1440"/>
      <point x="806" y="1490"/>
      <point x="753" y="1537" type="curve"/>
      <point x="576" y="1470" type="line"/>
      <point x="619" y="1419"/>
      <point x="647" y="1372"/>
      <point x="670" y="1324" type="curve"/>
      <point x="431" y="1257" type="line"/>
      <point x="455" y="1152" type="line"/>
      <point x="703" y="1219" type="line"/>
      <point x="722" y="1126"/>
      <point x="713" y="1030"/>
      <point x="697" y="918" type="curve"/>
      <point x="697" y="990"/>
      <point x="641" y="1034"/>
      <point x="524" y="1034" type="curve" smooth="yes"/>
      <point x="405" y="1034"/>
      <point x="308" y="986"/>
      <point x="230" y="911" type="curve" smooth="yes"/>
      <point x="152" y="835"/>
      <point x="94" y="734"/>
      <point x="55" y="627" type="curve" smooth="yes"/>
      <point x="16" y="520"/>
      <point x="-2" y="410"/>
      <point x="-2" y="317" type="curve" smooth="yes"/>
      <point x="-2" y="196"/>
      <point x="31" y="113"/>
      <point x="82" y="61" type="curve" smooth="yes"/>
      <point x="133" y="9"/>
      <point x="201" y="-12"/>
      <point x="270" y="-12" type="curve" smooth="yes"/>
    </contour>
    <contour>
      <point x="384" y="186"/>
      <point x="359" y="187"/>
      <point x="339" y="208" type="curve"/>
      <point x="318" y="228"/>
      <point x="301" y="267"/>
      <point x="301" y="346" type="curve" smooth="yes"/>
      <point x="301" y="410"/>
      <point x="313" y="494"/>
      <point x="337" y="578" type="curve" smooth="yes"/>
      <point x="360" y="661"/>
      <point x="393" y="743"/>
      <point x="436" y="805" type="curve" smooth="yes"/>
      <point x="479" y="867"/>
      <point x="529" y="907"/>
      <point x="588" y="907" type="curve" smooth="yes"/>
      <point x="620" y="907"/>
      <point x="642" y="893"/>
      <point x="655" y="877" type="curve"/>
      <point x="667" y="860"/>
      <point x="672" y="841"/>
      <point x="672" y="829" type="curve"/>
      <point x="573" y="367" type="line" smooth="yes"/>
      <point x="560" y="307"/>
      <point x="533" y="262"/>
      <point x="502" y="232" type="curve" smooth="yes"/>
      <point x="470" y="202"/>
      <point x="434" y="186"/>
      <point x="403" y="186" type="curve" smooth="yes"/>
    </contour>
  </outline>
</glyph>
<glyph name="ntilde" format="1">
  <advance width="1034"/>
  <unicode hex="00F1"/>
  <note>
	ntilde
  </note>
  <outline>
    <contour>
      <point x="794" y="-12"/>
      <point x="860" y="-1"/>
      <point x="928" y="52" type="curve" smooth="yes"/>
      <point x="995" y="104"/>
      <point x="1063" y="199"/>
      <point x="1120" y="367" type="curve"/>
      <point x="1034" y="367" type="line"/>
      <point x="1013" y="314"/>
      <point x="992" y="268"/>
      <point x="965" y="236" type="curve" smooth="yes"/>
      <point x="938" y="204"/>
      <point x="906" y="186"/>
      <point x="862" y="186" type="curve" smooth="yes"/>
      <point x="799" y="186"/>
      <point x="780" y="221"/>
      <point x="780" y="272" type="curve" smooth="yes"/>
      <point x="780" y="291"/>
      <point x="783" y="314"/>
      <point x="788" y="340" type="curve" smooth="yes"/>
      <point x="798" y="391"/>
      <point x="813" y="452"/>
      <point x="830" y="517" type="curve" smooth="yes"/>
      <point x="838" y="550"/>
      <point x="846" y="583"/>
      <point x="853" y="616" type="curve" smooth="yes"/>
      <point x="868" y="682"/>
      <point x="879" y="746"/>
      <point x="879" y="801" type="curve" smooth="yes"/>
      <point x="879" y="882"/>
      <point x="855" y="941"/>
      <point x="815" y="978" type="curve" smooth="yes"/>
      <point x="774" y="1015"/>
      <point x="716" y="1032"/>
      <point x="651" y="1032" type="curve" smooth="yes"/>
      <point x="619" y="1032"/>
      <point x="582" y="1028"/>
      <point x="541" y="1012" type="curve" smooth="yes"/>
      <point x="500" y="996"/>
      <point x="456" y="967"/>
      <point x="412" y="918" type="curve"/>
      <point x="434" y="1024" type="line"/>
      <point x="139" y="1024" type="line"/>
      <point x="-78" y="0" type="line"/>
      <point x="217" y="0" type="line"/>
      <point x="356" y="657" type="line"/>
      <point x="372" y="709"/>
      <point x="393" y="757"/>
      <point x="420" y="791" type="curve" smooth="yes"/>
      <point x="447" y="825"/>
      <point x="479" y="846"/>
      <point x="516" y="846" type="curve" smooth="yes"/>
      <point x="565" y="846"/>
      <point x="590" y="811"/>
      <point x="590" y="741" type="curve" smooth="yes"/>
      <point x="590" y="676"/>
      <point x="567" y="580"/>
      <point x="544" y="483" type="curve" smooth="yes"/>
      <point x="521" y="386"/>
      <point x="498" y="288"/>
      <point x="498" y="219" type="curve" smooth="yes"/>
      <point x="498" y="160"/>
      <point x="514" y="103"/>
      <point x="551" y="60" type="curve" smooth="yes"/>
      <point x="588" y="16"/>
      <point x="648" y="-12"/>
      <point x="739" y="-12" type="curve" smooth="yes"/>
    </contour>
    <contour>
      <point x="749" y="1165"/>
      <point x="827" y="1192"/>
      <point x="887" y="1232" type="curve" smooth="yes"/>
      <point x="947" y="1271"/>
      <point x="990" y="1322"/>
      <point x="1001" y="1370" type="curve"/>
      <point x="989" y="1372" type="line"/>
      <point x="958" y="1341"/>
      <point x="911" y="1325"/>
      <point x="860" y="1325" type="curve" smooth="yes"/>
      <point x="800" y="1325"/>
      <point x="753" y="1342"/>
      <point x="702" y="1359" type="curve" smooth="yes"/>
      <point x="651" y="1376"/>
      <point x="595" y="1393"/>
      <point x="522" y="1393" type="curve" smooth="yes"/>
      <point x="366" y="1393"/>
      <point x="247" y="1324"/>
      <point x="180" y="1192" type="curve"/>
      <point x="193" y="1188" type="line"/>
      <point x="232" y="1223"/>
      <point x="277" y="1241"/>
      <point x="328" y="1241" type="curve" smooth="yes"/>
      <point x="385" y="1241"/>
      <point x="436" y="1222"/>
      <point x="491" y="1203" type="curve" smooth="yes"/>
      <point x="546" y="1184"/>
      <point x="604" y="1165"/>
      <point x="672" y="1165" type="curve" smooth="yes"/>
    </contour>
  </outline>
</glyph>
<glyph name="oslash" format="1">
  <advance width="877"/>
  <unicode hex="00F8"/>
  <note>
	oslash
  </note>
  <outline>
    <contour>
      <point x="-24" y="-123" type="line"/>
      <point x="108" y="29" type="line"/>
      <point x="153" y="2"/>
      <point x="207" y="-12"/>
      <point x="271" y="-12" type="curve" smooth="yes"/>
      <point x="419" y="-12"/>
      <point x="552" y="65"/>
      <point x="646" y="191" type="curve" smooth="yes"/>
      <point x="740" y="317"/>
      <point x="797" y="491"/>
      <point x="797" y="690" type="curve" smooth="yes"/>
      <point x="797" y="737"/>
      <point x="794" y="779"/>
      <point x="787" y="816" type="curve"/>
      <point x="966" y="1024" type="line"/>
      <point x="851" y="1024" type="line"/>
      <point x="756" y="914" type="line"/>
      <point x="715" y="997"/>
      <point x="643" y="1034"/>
      <point x="535" y="1034" type="curve" smooth="yes"/>
      <point x="432" y="1034"/>
      <point x="336" y="999"/>
      <point x="253" y="940" type="curve" smooth="yes"/>
      <point x="170" y="880"/>
      <point x="100" y="794"/>
      <point x="51" y="693" type="curve" smooth="yes"/>
      <point x="2" y="592"/>
      <point x="-26" y="474"/>
      <point x="-26" y="350" type="curve" smooth="yes"/>
      <point x="-26" y="238"/>
      <point x="-3" y="151"/>
      <point x="44" y="89" type="curve"/>
      <point x="-139" y="-123" type="line"/>
    </contour>
    <contour>
      <point x="325" y="180"/>
      <point x="302" y="200"/>
      <point x="290" y="240" type="curve"/>
      <point x="622" y="625" type="line"/>
      <point x="605" y="506"/>
      <point x="567" y="395"/>
      <point x="520" y="314" type="curve" smooth="yes"/>
      <point x="472" y="233"/>
      <point x="415" y="180"/>
      <point x="359" y="180" type="curve" smooth="yes"/>
    </contour>
    <contour>
      <point x="282" y="450"/>
      <point x="299" y="541"/>
      <point x="327" y="624" type="curve" smooth="yes"/>
      <point x="354" y="707"/>
      <point x="389" y="782"/>
      <point x="429" y="836" type="curve" smooth="yes"/>
      <point x="469" y="890"/>
      <point x="513" y="922"/>
      <point x="554" y="922" type="curve" smooth="yes"/>
      <point x="601" y="922"/>
      <point x="629" y="866"/>
      <point x="632" y="770" type="curve"/>
      <point x="279" y="362" type="line"/>
    </contour>
  </outline>
</glyph>
<glyph name="yacute" format="1">
  <advance width="1034"/>
  <unicode hex="00FD"/>
  <note>
	yacute
  </note>
  <outline>
    <contour>
      <point x="387" y="-512"/>
      <point x="464" y="-499"/>
      <point x="532" y="-448" type="curve" smooth="yes"/>
      <point x="600" y="-397"/>
      <point x="659" y="-311"/>
      <point x="688" y="-164" type="curve" smooth="yes"/>
      <point x="719" y="-16" type="line"/>
      <point x="783" y="0"/>
      <point x="853" y="28"/>
      <point x="917" y="86" type="curve" smooth="yes"/>
      <point x="981" y="144"/>
      <point x="1040" y="231"/>
      <point x="1081" y="367" type="curve"/>
      <point x="995" y="367" type="line"/>
      <point x="967" y="278"/>
      <point x="934" y="216"/>
      <point x="892" y="170" type="curve" smooth="yes"/>
      <point x="850" y="124"/>
      <point x="800" y="95"/>
      <point x="737" y="74" type="curve"/>
      <point x="940" y="1024" type="line"/>
      <point x="645" y="1024" type="line"/>
      <point x="502" y="354" type="line"/>
      <point x="486" y="306"/>
      <point x="466" y="264"/>
      <point x="439" y="234" type="curve" smooth="yes"/>
      <point x="412" y="204"/>
      <point x="379" y="186"/>
      <point x="342" y="186" type="curve" smooth="yes"/>
      <point x="318" y="186"/>
      <point x="303" y="197"/>
      <point x="294" y="214" type="curve" smooth="yes"/>
      <point x="285" y="230"/>
      <point x="281" y="252"/>
      <point x="281" y="276" type="curve" smooth="yes"/>
      <point x="281" y="293"/>
      <point x="283" y="311"/>
      <point x="287" y="328" type="curve" smooth="yes"/>
      <point x="434" y="1024" type="line"/>
      <point x="139" y="1024" type="line"/>
      <point x="0" y="367" type="line" smooth="yes"/>
      <point x="-11" y="315"/>
      <point x="-16" y="270"/>
      <point x="-16" y="233" type="curve" smooth="yes"/>
      <point x="-16" y="146"/>
      <point x="8" y="86"/>
      <point x="48" y="46" type="curve" smooth="yes"/>
      <point x="87" y="6"/>
      <point x="142" y="-12"/>
      <point x="203" y="-12" type="curve" smooth="yes"/>
      <point x="239" y="-12"/>
      <point x="278" y="-7"/>
      <point x="319" y="9" type="curve" smooth="yes"/>
      <point x="360" y="25"/>
      <point x="405" y="54"/>
      <point x="449" y="102" type="curve"/>
      <point x="424" y="-8" type="line"/>
      <point x="347" y="-32"/>
      <point x="263" y="-66"/>
      <point x="199" y="-114" type="curve" smooth="yes"/>
      <point x="135" y="-163"/>
      <point x="90" y="-228"/>
      <point x="90" y="-313" type="curve" smooth="yes"/>
      <point x="90" y="-380"/>
      <point x="117" y="-430"/>
      <point x="158" y="-462" type="curve" smooth="yes"/>
      <point x="199" y="-495"/>
      <point x="256" y="-512"/>
      <point x="319" y="-512" type="curve" smooth="yes"/>
    </contour>
    <contour>
      <point x="248" y="-352"/>
      <point x="231" y="-343"/>
      <point x="220" y="-330" type="curve"/>
      <point x="208" y="-317"/>
      <point x="203" y="-300"/>
      <point x="203" y="-285" type="curve" smooth="yes"/>
      <point x="203" y="-244"/>
      <point x="227" y="-210"/>
      <point x="264" y="-182" type="curve" smooth="yes"/>
      <point x="300" y="-154"/>
      <point x="350" y="-131"/>
      <point x="403" y="-111" type="curve"/>
      <point x="391" y="-170" type="line" smooth="yes"/>
      <point x="378" y="-232"/>
      <point x="360" y="-278"/>
      <point x="338" y="-307" type="curve" smooth="yes"/>
      <point x="315" y="-337"/>
      <point x="293" y="-352"/>
      <point x="272" y="-352" type="curve" smooth="yes"/>
    </contour>
    <contour>
      <point x="641" y="1149" type="line"/>
      <point x="889" y="1536" type="line"/>
      <point x="674" y="1536" type="line"/>
      <point x="487" y="1149" type="line"/>
    </contour>
  </outline>
</glyph>
<glyph name="Abreve" format="1">
  <advance width="1368"/>
  <unicode hex="0102"/>
  <note>
	Abreve
  </note>
  <outline>
    <contour>
      <point x="431" y="-214"/>
      <point x="418" y="-184"/>
      <point x="418" y="-119" type="curve" smooth="yes"/>
      <point x="418" y="-12"/>
      <point x="446" y="138"/>
      <point x="494" y="304" type="curve" smooth="yes"/>
      <point x="541" y="470"/>
      <point x="607" y="650"/>
      <point x="684" y="817" type="curve"/>
      <point x="773" y="809"/>
      <point x="854" y="791"/>
      <point x="958" y="743" type="curve"/>
      <point x="801" y="0" type="line"/>
      <point x="1096" y="0" type="line"/>
      <point x="1417" y="1507" type="line"/>
      <point x="1368" y="1530"/>
      <point x="1303" y="1536"/>
      <point x="1255" y="1536" type="curve" smooth="yes"/>
      <point x="1135" y="1536"/>
      <point x="1010" y="1467"/>
      <point x="887" y="1357" type="curve" smooth="yes"/>
      <point x="764" y="1247"/>
      <point x="647" y="1096"/>
      <point x="543" y="932" type="curve"/>
      <point x="500" y="936"/>
      <point x="464" y="938"/>
      <point x="436" y="938" type="curve" smooth="yes"/>
      <point x="316" y="938"/>
      <point x="212" y="909"/>
      <point x="137" y="864" type="curve" smooth="yes"/>
      <point x="62" y="819"/>
      <point x="18" y="755"/>
      <point x="18" y="686" type="curve" smooth="yes"/>
      <point x="18" y="646"/>
      <point x="32" y="616"/>
      <point x="55" y="597" type="curve" smooth="yes"/>
      <point x="78" y="577"/>
      <point x="109" y="567"/>
      <point x="145" y="567" type="curve" smooth="yes"/>
      <point x="209" y="567"/>
      <point x="260" y="598"/>
      <point x="260" y="647" type="curve" smooth="yes"/>
      <point x="260" y="678"/>
      <point x="244" y="711"/>
      <point x="233" y="711" type="curve"/>
      <point x="260" y="782"/>
      <point x="344" y="809"/>
      <point x="473" y="817" type="curve"/>
      <point x="382" y="661"/>
      <point x="308" y="498"/>
      <point x="255" y="352" type="curve" smooth="yes"/>
      <point x="202" y="206"/>
      <point x="172" y="75"/>
      <point x="172" y="-16" type="curve" smooth="yes"/>
      <point x="172" y="-123"/>
      <point x="213" y="-177"/>
      <point x="269" y="-204" type="curve" smooth="yes"/>
      <point x="324" y="-232"/>
      <point x="391" y="-233"/>
      <point x="446" y="-233" type="curve"/>
    </contour>
    <contour>
      <point x="897" y="866"/>
      <point x="810" y="889"/>
      <point x="727" y="905" type="curve"/>
      <point x="784" y="1020"/>
      <point x="847" y="1125"/>
      <point x="909" y="1210" type="curve" smooth="yes"/>
      <point x="971" y="1294"/>
      <point x="1035" y="1358"/>
      <point x="1096" y="1391" type="curve"/>
      <point x="977" y="834" type="line"/>
    </contour>
    <contour>
      <point x="1368" y="1670"/>
      <point x="1470" y="1700"/>
      <point x="1547" y="1752" type="curve" smooth="yes"/>
      <point x="1624" y="1803"/>
      <point x="1677" y="1873"/>
      <point x="1689" y="1953" type="curve"/>
      <point x="1513" y="1953" type="line"/>
      <point x="1506" y="1906"/>
      <point x="1479" y="1864"/>
      <point x="1439" y="1833" type="curve" smooth="yes"/>
      <point x="1398" y="1802"/>
      <point x="1345" y="1783"/>
      <point x="1289" y="1783" type="curve" smooth="yes"/>
      <point x="1186" y="1783"/>
      <point x="1128" y="1844"/>
      <point x="1128" y="1953" type="curve"/>
      <point x="945" y="1953" type="line"/>
      <point x="945" y="1766"/>
      <point x="1053" y="1670"/>
      <point x="1257" y="1670" type="curve" smooth="yes"/>
    </contour>
  </outline>
</glyph>
<glyph name="eogonek" format="1">
  <advance width="786"/>
  <unicode hex="0119"/>
  <note>
	eogonek
  </note>
  <outline>
    <contour>
      <point x="455" y="-395"/>
      <point x="499" y="-375"/>
      <point x="536" y="-349" type="curve" smooth="yes"/>
      <point x="573" y="-323"/>
      <point x="603" y="-292"/>
      <point x="627" y="-268" type="curve"/>
      <point x="627" y="-244"/>
      <point x="628" y="-229"/>
      <point x="631" y="-205" type="curve"/>
      <point x="621" y="-212"/>
      <point x="610" y="-219"/>
      <point x="599" y="-227" type="curve" smooth="yes"/>
      <point x="588" y="-235"/>
      <point x="576" y="-242"/>
      <point x="565" y="-249" type="curve"/>
      <point x="541" y="-263"/>
      <point x="516" y="-274"/>
      <point x="492" y="-274" type="curve" smooth="yes"/>
      <point x="463" y="-274"/>
      <point x="443" y="-260"/>
      <point x="431" y="-240" type="curve"/>
      <point x="418" y="-221"/>
      <point x="412" y="-196"/>
      <point x="412" y="-172" type="curve" smooth="yes"/>
      <point x="412" y="-133"/>
      <point x="418" y="-100"/>
      <point x="430" y="-75" type="curve" smooth="yes"/>
      <point x="454" y="-25"/>
      <point x="497" y="12"/>
      <point x="554" y="49" type="curve" smooth="yes"/>
      <point x="583" y="67"/>
      <point x="614" y="89"/>
      <point x="647" y="116" type="curve" smooth="yes"/>
      <point x="713" y="169"/>
      <point x="785" y="244"/>
      <point x="856" y="367" type="curve"/>
      <point x="786" y="367" type="line"/>
      <point x="734" y="310"/>
      <point x="684" y="257"/>
      <point x="627" y="220" type="curve" smooth="yes"/>
      <point x="570" y="183"/>
      <point x="505" y="160"/>
      <point x="424" y="160" type="curve" smooth="yes"/>
      <point x="375" y="160"/>
      <point x="338" y="169"/>
      <point x="314" y="194" type="curve" smooth="yes"/>
      <point x="289" y="219"/>
      <point x="276" y="263"/>
      <point x="276" y="332" type="curve" smooth="yes"/>
      <point x="276" y="356"/>
      <point x="278" y="383"/>
      <point x="281" y="414" type="curve"/>
      <point x="404" y="422"/>
      <point x="521" y="471"/>
      <point x="609" y="547" type="curve" smooth="yes"/>
      <point x="696" y="623"/>
      <point x="752" y="727"/>
      <point x="752" y="846" type="curve" smooth="yes"/>
      <point x="752" y="897"/>
      <point x="742" y="946"/>
      <point x="708" y="982" type="curve" smooth="yes"/>
      <point x="674" y="1018"/>
      <point x="618" y="1042"/>
      <point x="526" y="1042" type="curve" smooth="yes"/>
      <point x="386" y="1042"/>
      <point x="277" y="988"/>
      <point x="196" y="906" type="curve" smooth="yes"/>
      <point x="115" y="824"/>
      <point x="58" y="715"/>
      <point x="23" y="607" type="curve" smooth="yes"/>
      <point x="-12" y="499"/>
      <point x="-27" y="392"/>
      <point x="-27" y="313" type="curve" smooth="yes"/>
      <point x="-27" y="197"/>
      <point x="4" y="116"/>
      <point x="60" y="64" type="curve" smooth="yes"/>
      <point x="116" y="12"/>
      <point x="196" y="-12"/>
      <point x="293" y="-12" type="curve" smooth="yes"/>
      <point x="323" y="-12"/>
      <point x="352" y="-10"/>
      <point x="379" y="-6" type="curve"/>
      <point x="288" y="-82"/>
      <point x="242" y="-164"/>
      <point x="242" y="-236" type="curve" smooth="yes"/>
      <point x="242" y="-272"/>
      <point x="255" y="-311"/>
      <point x="281" y="-342" type="curve" smooth="yes"/>
      <point x="307" y="-373"/>
      <point x="347" y="-395"/>
      <point x="403" y="-395" type="curve" smooth="yes"/>
    </contour>
    <contour>
      <point x="317" y="613"/>
      <point x="352" y="719"/>
      <point x="396" y="799" type="curve" smooth="yes"/>
      <point x="440" y="879"/>
      <point x="491" y="934"/>
      <point x="543" y="934" type="curve" smooth="yes"/>
      <point x="582" y="934"/>
      <point x="594" y="901"/>
      <point x="594" y="850" type="curve" smooth="yes"/>
      <point x="594" y="765"/>
      <point x="559" y="683"/>
      <point x="504" y="621" type="curve" smooth="yes"/>
      <point x="449" y="559"/>
      <point x="374" y="517"/>
      <point x="297" y="512" type="curve"/>
    </contour>
  </outline>
</glyph>
<glyph name="Gcommaaccent" format="1">
  <advance width="1184"/>
  <unicode hex="0122"/>
  <note>
	Gcommaaccent
  </note>
  <outline>
    <contour>
      <point x="518" y="-12"/>
      <point x="602" y="32"/>
      <point x="686" y="139" type="curve"/>
      <point x="694" y="139" type="line"/>
      <point x="665" y="0" type="line"/>
      <point x="930" y="0" type="line"/>
      <point x="1098" y="758" type="line"/>
      <point x="856" y="758" type="line"/>
      <point x="828" y="593"/>
      <point x="776" y="445"/>
      <point x="715" y="338" type="curve" smooth="yes"/>
      <point x="654" y="231"/>
      <point x="582" y="166"/>
      <point x="514" y="166" type="curve" smooth="yes"/>
      <point x="463" y="166"/>
      <point x="423" y="201"/>
      <point x="395" y="265" type="curve" smooth="yes"/>
      <point x="367" y="329"/>
      <point x="352" y="422"/>
      <point x="352" y="537" type="curve" smooth="yes"/>
      <point x="352" y="680"/>
      <point x="378" y="830"/>
      <point x="419" y="966" type="curve" smooth="yes"/>
      <point x="460" y="1102"/>
      <point x="518" y="1224"/>
      <point x="582" y="1312" type="curve" smooth="yes"/>
      <point x="645" y="1400"/>
      <point x="715" y="1454"/>
      <point x="782" y="1454" type="curve" smooth="yes"/>
      <point x="845" y="1454"/>
      <point x="883" y="1406"/>
      <point x="883" y="1327" type="curve" smooth="yes"/>
      <point x="883" y="1290"/>
      <point x="875" y="1252"/>
      <point x="860" y="1220" type="curve" smooth="yes"/>
      <point x="844" y="1187"/>
      <point x="823" y="1158"/>
      <point x="799" y="1141" type="curve"/>
      <point x="830" y="1100"/>
      <point x="872" y="1077"/>
      <point x="924" y="1077" type="curve" smooth="yes"/>
      <point x="969" y="1077"/>
      <point x="1009" y="1097"/>
      <point x="1036" y="1131" type="curve" smooth="yes"/>
      <point x="1063" y="1165"/>
      <point x="1079" y="1213"/>
      <point x="1079" y="1270" type="curve" smooth="yes"/>
      <point x="1079" y="1353"/>
      <point x="1046" y="1423"/>
      <point x="988" y="1472" type="curve" smooth="yes"/>
      <point x="930" y="1521"/>
      <point x="847" y="1550"/>
      <point x="751" y="1550" type="curve" smooth="yes"/>
      <point x="620" y="1550"/>
      <point x="494" y="1498"/>
      <point x="385" y="1407" type="curve" smooth="yes"/>
      <point x="276" y="1316"/>
      <point x="183" y="1189"/>
      <point x="117" y="1038" type="curve" smooth="yes"/>
      <point x="51" y="887"/>
      <point x="12" y="715"/>
      <point x="12" y="535" type="curve" smooth="yes"/>
      <point x="12" y="363"/>
      <point x="48" y="225"/>
      <point x="115" y="132" type="curve" smooth="yes"/>
      <point x="182" y="39"/>
      <point x="279" y="-12"/>
      <point x="403" y="-12" type="curve" smooth="yes"/>
    </contour>
    <contour>
      <point x="508" y="-477"/>
      <point x="553" y="-433"/>
      <point x="585" y="-386" type="curve" smooth="yes"/>
      <point x="616" y="-339"/>
      <point x="634" y="-289"/>
      <point x="634" y="-244" type="curve" smooth="yes"/>
      <point x="634" y="-173"/>
      <point x="591" y="-131"/>
      <point x="526" y="-131" type="curve" smooth="yes"/>
      <point x="458" y="-131"/>
      <point x="411" y="-171"/>
      <point x="411" y="-227" type="curve" smooth="yes"/>
      <point x="411" y="-260"/>
      <point x="429" y="-281"/>
      <point x="448" y="-300" type="curve" smooth="yes"/>
      <point x="467" y="-320"/>
      <point x="485" y="-338"/>
      <point x="485" y="-362" type="curve" smooth="yes"/>
      <point x="485" y="-375"/>
      <point x="480" y="-389"/>
      <point x="469" y="-404" type="curve" smooth="yes"/>
      <point x="458" y="-419"/>
      <point x="440" y="-441"/>
      <point x="415" y="-469" type="curve"/>
      <point x="456" y="-510" type="line"/>
    </contour>
  </outline>
</glyph>
<glyph name="itilde" format="1">
  <advance width="547"/>
  <unicode hex="0129"/>
  <note>
	itilde
  </note>
  <outline>
    <contour>
      <point x="239" y="-12"/>
      <point x="286" y="-7"/>
      <point x="337" y="12" type="curve" smooth="yes"/>
      <point x="388" y="31"/>
      <point x="443" y="64"/>
      <point x="495" y="120" type="curve" smooth="yes"/>
      <point x="546" y="176"/>
      <point x="594" y="256"/>
      <point x="633" y="367" type="curve"/>
      <point x="547" y="367" type="line"/>
      <point x="531" y="315"/>
      <point x="505" y="269"/>
      <point x="473" y="237" type="curve" smooth="yes"/>
      <point x="441" y="205"/>
      <point x="402" y="186"/>
      <point x="362" y="186" type="curve" smooth="yes"/>
      <point x="305" y="186"/>
      <point x="279" y="205"/>
      <point x="279" y="262" type="curve" smooth="yes"/>
      <point x="279" y="283"/>
      <point x="280" y="305"/>
      <point x="287" y="328" type="curve"/>
      <point x="434" y="1024" type="line"/>
      <point x="139" y="1024" type="line"/>
      <point x="0" y="367" type="line" smooth="yes"/>
      <point x="-11" y="315"/>
      <point x="-16" y="270"/>
      <point x="-16" y="233" type="curve" smooth="yes"/>
      <point x="-16" y="146"/>
      <point x="8" y="86"/>
      <point x="48" y="46" type="curve" smooth="yes"/>
      <point x="87" y="6"/>
      <point x="142" y="-12"/>
      <point x="203" y="-12" type="curve" smooth="yes"/>
    </contour>
    <contour>
      <point x="435" y="1165"/>
      <point x="490" y="1192"/>
      <point x="534" y="1232" type="curve" smooth="yes"/>
      <point x="577" y="1271"/>
      <point x="607" y="1322"/>
      <point x="614" y="1370" type="curve"/>
      <point x="606" y="1372" type="line"/>
      <point x="583" y="1341"/>
      <point x="549" y="1325"/>
      <point x="513" y="1325" type="curve" smooth="yes"/>
      <point x="470" y="1325"/>
      <point x="437" y="1342"/>
      <point x="401" y="1359" type="curve" smooth="yes"/>
      <point x="364" y="1376"/>
      <point x="324" y="1393"/>
      <point x="271" y="1393" type="curve" smooth="yes"/>
      <point x="159" y="1393"/>
      <point x="74" y="1324"/>
      <point x="27" y="1192" type="curve"/>
      <point x="36" y="1188" type="line"/>
      <point x="62" y="1223"/>
      <point x="94" y="1241"/>
      <point x="132" y="1241" type="curve" smooth="yes"/>
      <point x="173" y="1241"/>
      <point x="210" y="1222"/>
      <point x="249" y="1203" type="curve" smooth="yes"/>
      <point x="288" y="1184"/>
      <point x="330" y="1165"/>
      <point x="379" y="1165" type="curve" smooth="yes"/>
    </contour>
  </outline>
</glyph>
<glyph name="Imacron" format="1">
  <advance width="768"/>
  <unicode hex="012A"/>
  <note>
	Imacron
  </note>
  <outline>
    <contour>
      <point x="487" y="0" type="line"/>
      <point x="813" y="1532" type="line"/>
      <point x="786" y="1535"/>
      <point x="762" y="1536"/>
      <point x="731" y="1536" type="curve" smooth="yes"/>
      <point x="616" y="1536"/>
      <point x="499" y="1507"/>
      <point x="393" y="1459" type="curve" smooth="yes"/>
      <point x="287" y="1410"/>
      <point x="191" y="1342"/>
      <point x="123" y="1263" type="curve" smooth="yes"/>
      <point x="54" y="1184"/>
      <point x="12" y="1095"/>
      <point x="12" y="1004" type="curve" smooth="yes"/>
      <point x="12" y="929"/>
      <point x="32" y="880"/>
      <point x="69" y="849" type="curve" smooth="yes"/>
      <point x="105" y="818"/>
      <point x="160" y="805"/>
      <point x="231" y="805" type="curve"/>
      <point x="231" y="809"/>
      <point x="230" y="814"/>
      <point x="227" y="819" type="curve" smooth="yes"/>
      <point x="224" y="824"/>
      <point x="220" y="832"/>
      <point x="217" y="842" type="curve"/>
      <point x="210" y="861"/>
      <point x="203" y="892"/>
      <point x="203" y="944" type="curve" smooth="yes"/>
      <point x="203" y="1167"/>
      <point x="308" y="1316"/>
      <point x="489" y="1391" type="curve"/>
      <point x="193" y="0" type="line"/>
    </contour>
    <contour>
      <point x="971" y="1738" type="line"/>
      <point x="1001" y="1890" type="line"/>
      <point x="346" y="1890" type="line"/>
      <point x="313" y="1738" type="line"/>
    </contour>
  </outline>
</glyph>
<glyph name="ibreve" format="1">
  <advance width="547"/>
  <unicode hex="012D"/>
  <note>
	ibreve
  </note>
  <outline>
    <contour>
      <point x="239" y="-12"/>
      <point x="286" y="-7"/>
      <point x="337" y="12" type="curve" smooth="yes"/>
      <point x="388" y="31"/>
      <point x="443" y="64"/>
      <point x="495" y="120" type="curve" smooth="yes"/>
      <point x="546" y="176"/>
      <point x="594" y="256"/>
      <point x="633" y="367" type="curve"/>
      <point x="547" y="367" type="line"/>
      <point x="531" y="315"/>
      <point x="505" y="269"/>
      <point x="473" y="237" type="curve" smooth="yes"/>
      <point x="441" y="205"/>
      <point x="402" y="186"/>
      <point x="362" y="186" type="curve" smooth="yes"/>
      <point x="305" y="186"/>
      <point x="279" y="205"/>
      <point x="279" y="262" type="curve" smooth="yes"/>
      <point x="279" y="283"/>
      <point x="280" y="305"/>
      <point x="287" y="328" type="curve"/>
      <point x="434" y="1024" type="line"/>
      <point x="139" y="1024" type="line"/>
      <point x="0" y="367" type="line" smooth="yes"/>
      <point x="-11" y="315"/>
      <point x="-16" y="270"/>
      <point x="-16" y="233" type="curve" smooth="yes"/>
      <point x="-16" y="146"/>
      <point x="8" y="86"/>
      <point x="48" y="46" type="curve" smooth="yes"/>
      <point x="87" y="6"/>
      <point x="142" y="-12"/>
      <point x="203" y="-12" type="curve" smooth="yes"/>
    </contour>
    <contour>
      <point x="412" y="1207"/>
      <point x="495" y="1237"/>
      <point x="559" y="1289" type="curve" smooth="yes"/>
      <point x="622" y="1340"/>
      <point x="664" y="1410"/>
      <point x="673" y="1490" type="curve"/>
      <point x="531" y="1490" type="line"/>
      <point x="526" y="1443"/>
      <point x="502" y="1401"/>
      <point x="470" y="1370" type="curve" smooth="yes"/>
      <point x="437" y="1339"/>
      <point x="394" y="1320"/>
      <point x="347" y="1320" type="curve" smooth="yes"/>
      <point x="264" y="1320"/>
      <point x="217" y="1381"/>
      <point x="217" y="1490" type="curve"/>
      <point x="69" y="1490" type="line"/>
      <point x="69" y="1303"/>
      <point x="155" y="1207"/>
      <point x="323" y="1207" type="curve" smooth="yes"/>
    </contour>
  </outline>
</glyph>
<glyph name="Iogonek" format="1">
  <advance width="768"/>
  <unicode hex="012E"/>
  <note>
	Iogonek
  </note>
  <outline>
    <contour>
      <point x="376" y="-438"/>
      <point x="431" y="-420"/>
      <point x="478" y="-390" type="curve" smooth="yes"/>
      <point x="525" y="-360"/>
      <point x="565" y="-320"/>
      <point x="586" y="-272" type="curve"/>
      <point x="551" y="-225" type="line"/>
      <point x="506" y="-276"/>
      <point x="455" y="-305"/>
      <point x="404" y="-305" type="curve" smooth="yes"/>
      <point x="336" y="-305"/>
      <point x="291" y="-256"/>
      <point x="291" y="-180" type="curve" smooth="yes"/>
      <point x="291" y="-107"/>
      <point x="324" y="-40"/>
      <point x="377" y="0" type="curve"/>
      <point x="487" y="0" type="line"/>
      <point x="813" y="1532" type="line"/>
      <point x="786" y="1535"/>
      <point x="762" y="1536"/>
      <point x="731" y="1536" type="curve" smooth="yes"/>
      <point x="616" y="1536"/>
      <point x="499" y="1507"/>
      <point x="393" y="1459" type="curve" smooth="yes"/>
      <point x="287" y="1410"/>
      <point x="191" y="1342"/>
      <point x="123" y="1263" type="curve" smooth="yes"/>
      <point x="54" y="1184"/>
      <point x="12" y="1095"/>
      <point x="12" y="1004" type="curve" smooth="yes"/>
      <point x="12" y="929"/>
      <point x="32" y="880"/>
      <point x="69" y="849" type="curve" smooth="yes"/>
      <point x="105" y="818"/>
      <point x="160" y="805"/>
      <point x="231" y="805" type="curve"/>
      <point x="231" y="809"/>
      <point x="230" y="814"/>
      <point x="227" y="819" type="curve" smooth="yes"/>
      <point x="224" y="824"/>
      <point x="220" y="832"/>
      <point x="217" y="842" type="curve"/>
      <point x="210" y="861"/>
      <point x="203" y="892"/>
      <point x="203" y="944" type="curve" smooth="yes"/>
      <point x="203" y="1167"/>
      <point x="308" y="1316"/>
      <point x="489" y="1391" type="curve"/>
      <point x="193" y="0" type="line"/>
      <point x="272" y="0" type="line"/>
      <point x="171" y="-71"/>
      <point x="121" y="-154"/>
      <point x="121" y="-248" type="curve" smooth="yes"/>
      <point x="121" y="-303"/>
      <point x="143" y="-350"/>
      <point x="179" y="-384" type="curve" smooth="yes"/>
      <point x="215" y="-418"/>
      <point x="265" y="-438"/>
      <point x="324" y="-438" type="curve" smooth="yes"/>
    </contour>
    <contour>
      <point x="625" y="1661" type="line"/>
      <point x="565" y="2048" type="line"/>
      <point x="350" y="2048" type="line"/>
      <point x="471" y="1661" type="line"/>
    </contour>
  </outline>
</glyph>
<glyph name="Idotaccent" format="1">
  <advance width="768"/>
  <unicode hex="0130"/>
  <note>
	Idotaccent
  </note>
  <outline>
    <contour>
      <point x="487" y="0" type="line"/>
      <point x="813" y="1532" type="line"/>
      <point x="786" y="1535"/>
      <point x="762" y="1536"/>
      <point x="731" y="1536" type="curve" smooth="yes"/>
      <point x="616" y="1536"/>
      <point x="499" y="1507"/>
      <point x="393" y="1459" type="curve" smooth="yes"/>
      <point x="287" y="1410"/>
      <point x="191" y="1342"/>
      <point x="123" y="1263" type="curve" smooth="yes"/>
      <point x="54" y="1184"/>
      <point x="12" y="1095"/>
      <point x="12" y="1004" type="curve" smooth="yes"/>
      <point x="12" y="929"/>
      <point x="32" y="880"/>
      <point x="69" y="849" type="curve" smooth="yes"/>
      <point x="105" y="818"/>
      <point x="160" y="805"/>
      <point x="231" y="805" type="curve"/>
      <point x="231" y="809"/>
      <point x="230" y="814"/>
      <point x="227" y="819" type="curve" smooth="yes"/>
      <point x="224" y="824"/>
      <point x="220" y="832"/>
      <point x="217" y="842" type="curve"/>
      <point x="210" y="861"/>
      <point x="203" y="892"/>
      <point x="203" y="944" type="curve" smooth="yes"/>
      <point x="203" y="1167"/>
      <point x="308" y="1316"/>
      <point x="489" y="1391" type="curve"/>
      <point x="193" y="0" type="line"/>
    </contour>
    <contour>
      <point x="776" y="1683"/>
      <point x="817" y="1701"/>
      <point x="847" y="1730" type="curve" smooth="yes"/>
      <point x="877" y="1758"/>
      <point x="895" y="1799"/>
      <point x="895" y="1844" type="curve" smooth="yes"/>
      <point x="895" y="1889"/>
      <point x="877" y="1931"/>
      <point x="847" y="1960" type="curve" smooth="yes"/>
      <point x="817" y="1989"/>
      <point x="776" y="2008"/>
      <point x="731" y="2008" type="curve" smooth="yes"/>
      <point x="686" y="2008"/>
      <point x="645" y="1989"/>
      <point x="616" y="1960" type="curve" smooth="yes"/>
      <point x="587" y="1931"/>
      <point x="569" y="1889"/>
      <point x="569" y="1844" type="curve" smooth="yes"/>
      <point x="569" y="1799"/>
      <point x="587" y="1758"/>
      <point x="616" y="1730" type="curve" smooth="yes"/>
      <point x="645" y="1701"/>
      <point x="686" y="1683"/>
      <point x="731" y="1683" type="curve" smooth="yes"/>
    </contour>
  </outline>
</glyph>
<glyph name="Kcommaaccent" format="1">
  <advance width="1231"/>
  <unicode hex="0136"/>
  <note>
	Kcommaaccent
  </note>
  <outline>
    <contour>
      <point x="942" y="-35"/>
      <point x="1008" y="-25"/>
      <point x="1096" y="0" type="curve"/>
      <point x="1047" y="19"/>
      <point x="1016" y="71"/>
      <point x="1016" y="135" type="curve" smooth="yes"/>
      <point x="1016" y="200"/>
      <point x="1041" y="287"/>
      <point x="1066" y="379" type="curve" smooth="yes"/>
      <point x="1091" y="471"/>
      <point x="1116" y="568"/>
      <point x="1116" y="653" type="curve" smooth="yes"/>
      <point x="1116" y="716"/>
      <point x="1103" y="770"/>
      <point x="1064" y="810" type="curve" smooth="yes"/>
      <point x="1025" y="849"/>
      <point x="962" y="872"/>
      <point x="862" y="872" type="curve" smooth="yes"/>
      <point x="851" y="872"/>
      <point x="839" y="872"/>
      <point x="828" y="871" type="curve" smooth="yes"/>
      <point x="817" y="870"/>
      <point x="804" y="870"/>
      <point x="791" y="870" type="curve"/>
      <point x="1360" y="1526" type="line"/>
      <point x="1145" y="1526" type="line"/>
      <point x="1145" y="1526"/>
      <point x="1140" y="1520"/>
      <point x="1130" y="1507" type="curve" smooth="yes"/>
      <point x="1120" y="1494"/>
      <point x="1107" y="1477"/>
      <point x="1090" y="1455" type="curve" smooth="yes"/>
      <point x="1073" y="1432"/>
      <point x="1054" y="1406"/>
      <point x="1032" y="1377" type="curve" smooth="yes"/>
      <point x="1009" y="1347"/>
      <point x="986" y="1315"/>
      <point x="961" y="1282" type="curve" smooth="yes"/>
      <point x="936" y="1248"/>
      <point x="911" y="1214"/>
      <point x="885" y="1179" type="curve" smooth="yes"/>
      <point x="832" y="1109"/>
      <point x="781" y="1041"/>
      <point x="738" y="982" type="curve" smooth="yes"/>
      <point x="716" y="953"/>
      <point x="697" y="927"/>
      <point x="680" y="905" type="curve"/>
      <point x="813" y="1532" type="line"/>
      <point x="786" y="1535"/>
      <point x="762" y="1536"/>
      <point x="731" y="1536" type="curve" smooth="yes"/>
      <point x="616" y="1536"/>
      <point x="499" y="1507"/>
      <point x="393" y="1459" type="curve" smooth="yes"/>
      <point x="287" y="1410"/>
      <point x="191" y="1342"/>
      <point x="123" y="1263" type="curve" smooth="yes"/>
      <point x="54" y="1184"/>
      <point x="12" y="1095"/>
      <point x="12" y="1004" type="curve" smooth="yes"/>
      <point x="12" y="929"/>
      <point x="32" y="880"/>
      <point x="69" y="849" type="curve" smooth="yes"/>
      <point x="105" y="818"/>
      <point x="160" y="805"/>
      <point x="231" y="805" type="curve"/>
      <point x="231" y="809"/>
      <point x="230" y="814"/>
      <point x="227" y="819" type="curve" smooth="yes"/>
      <point x="224" y="824"/>
      <point x="220" y="832"/>
      <point x="217" y="842" type="curve"/>
      <point x="210" y="861"/>
      <point x="203" y="892"/>
      <point x="203" y="944" type="curve" smooth="yes"/>
      <point x="203" y="1164"/>
      <point x="308" y="1317"/>
      <point x="489" y="1393" type="curve"/>
      <point x="193" y="0" type="line"/>
      <point x="487" y="0" type="line"/>
      <point x="651" y="772" type="line"/>
      <point x="676" y="779"/>
      <point x="700" y="780"/>
      <point x="719" y="780" type="curve" smooth="yes"/>
      <point x="764" y="780"/>
      <point x="796" y="766"/>
      <point x="815" y="742" type="curve" smooth="yes"/>
      <point x="834" y="717"/>
      <point x="842" y="682"/>
      <point x="842" y="641" type="curve" smooth="yes"/>
      <point x="842" y="562"/>
      <point x="815" y="463"/>
      <point x="788" y="365" type="curve" smooth="yes"/>
      <point x="760" y="267"/>
      <point x="733" y="171"/>
      <point x="733" y="102" type="curve" smooth="yes"/>
      <point x="733" y="70"/>
      <point x="740" y="36"/>
      <point x="764" y="10" type="curve" smooth="yes"/>
      <point x="787" y="-16"/>
      <point x="826" y="-35"/>
      <point x="893" y="-35" type="curve" smooth="yes"/>
    </contour>
    <contour>
      <point x="608" y="-477"/>
      <point x="653" y="-433"/>
      <point x="685" y="-386" type="curve" smooth="yes"/>
      <point x="716" y="-339"/>
      <point x="734" y="-289"/>
      <point x="734" y="-244" type="curve" smooth="yes"/>
      <point x="734" y="-173"/>
      <point x="691" y="-131"/>
      <point x="626" y="-131" type="curve" smooth="yes"/>
      <point x="558" y="-131"/>
      <point x="511" y="-171"/>
      <point x="511" y="-227" type="curve" smooth="yes"/>
      <point x="511" y="-260"/>
      <point x="529" y="-281"/>
      <point x="548" y="-300" type="curve" smooth="yes"/>
      <point x="567" y="-320"/>
      <point x="585" y="-338"/>
      <point x="585" y="-362" type="curve" smooth="yes"/>
      <point x="585" y="-375"/>
      <point x="580" y="-389"/>
      <point x="569" y="-404" type="curve" smooth="yes"/>
      <point x="558" y="-419"/>
      <point x="540" y="-441"/>
      <point x="515" y="-469" type="curve"/>
      <point x="556" y="-510" type="line"/>
    </contour>
  </outline>
</glyph>
<glyph name="kcommaaccent" format="1">
  <advance width="1061"/>
  <unicode hex="0137"/>
  <note>
	kcommaaccent
  </note>
  <outline>
    <contour>
      <point x="815" y="-12"/>
      <point x="882" y="-3"/>
      <point x="950" y="49" type="curve" smooth="yes"/>
      <point x="1018" y="100"/>
      <point x="1090" y="195"/>
      <point x="1147" y="367" type="curve"/>
      <point x="1061" y="367" type="line"/>
      <point x="1040" y="314"/>
      <point x="1019" y="268"/>
      <point x="992" y="236" type="curve" smooth="yes"/>
      <point x="965" y="204"/>
      <point x="933" y="186"/>
      <point x="889" y="186" type="curve" smooth="yes"/>
      <point x="825" y="186"/>
      <point x="809" y="221"/>
      <point x="809" y="262" type="curve" smooth="yes"/>
      <point x="809" y="285"/>
      <point x="812" y="305"/>
      <point x="819" y="328" type="curve"/>
      <point x="842" y="430" type="line" smooth="yes"/>
      <point x="849" y="457"/>
      <point x="850" y="483"/>
      <point x="850" y="508" type="curve" smooth="yes"/>
      <point x="850" y="573"/>
      <point x="832" y="633"/>
      <point x="795" y="677" type="curve" smooth="yes"/>
      <point x="758" y="721"/>
      <point x="701" y="748"/>
      <point x="625" y="748" type="curve" smooth="yes"/>
      <point x="602" y="748"/>
      <point x="580" y="745"/>
      <point x="557" y="739" type="curve"/>
      <point x="967" y="1024" type="line"/>
      <point x="764" y="1024" type="line"/>
      <point x="369" y="713" type="line"/>
      <point x="522" y="1434" type="line"/>
      <point x="219" y="1393" type="line"/>
      <point x="-78" y="0" type="line"/>
      <point x="217" y="0" type="line"/>
      <point x="324" y="506" type="line"/>
      <point x="381" y="553"/>
      <point x="428" y="582"/>
      <point x="475" y="582" type="curve" smooth="yes"/>
      <point x="531" y="582"/>
      <point x="549" y="543"/>
      <point x="549" y="483" type="curve" smooth="yes"/>
      <point x="549" y="460"/>
      <point x="548" y="435"/>
      <point x="541" y="408" type="curve"/>
      <point x="524" y="328" type="line" smooth="yes"/>
      <point x="516" y="289"/>
      <point x="512" y="253"/>
      <point x="512" y="221" type="curve" smooth="yes"/>
      <point x="512" y="72"/>
      <point x="599" y="-12"/>
      <point x="770" y="-12" type="curve" smooth="yes"/>
    </contour>
    <contour>
      <point x="378" y="-477"/>
      <point x="423" y="-433"/>
      <point x="455" y="-386" type="curve" smooth="yes"/>
      <point x="486" y="-339"/>
      <point x="504" y="-289"/>
      <point x="504" y="-244" type="curve" smooth="yes"/>
      <point x="504" y="-173"/>
      <point x="461" y="-131"/>
      <point x="396" y="-131" type="curve" smooth="yes"/>
      <point x="328" y="-131"/>
      <point x="281" y="-171"/>
      <point x="281" y="-227" type="curve" smooth="yes"/>
      <point x="281" y="-260"/>
      <point x="299" y="-281"/>
      <point x="318" y="-300" type="curve" smooth="yes"/>
      <point x="337" y="-320"/>
      <point x="355" y="-338"/>
      <point x="355" y="-362" type="curve" smooth="yes"/>
      <point x="355" y="-375"/>
      <point x="350" y="-389"/>
      <point x="339" y="-404" type="curve" smooth="yes"/>
      <point x="328" y="-419"/>
      <point x="310" y="-441"/>
      <point x="285" y="-469" type="curve"/>
      <point x="326" y="-510" type="line"/>
    </contour>
  </outline>
</glyph>
<glyph name="kgreenlandic" format="1">
  <advance width="1061"/>
  <unicode hex="0138"/>
  <note>
	kgreenlandic
  </note>
  <outline>
    <contour>
      <point x="815" y="-12"/>
      <point x="882" y="-3"/>
      <point x="950" y="49" type="curve" smooth="yes"/>
      <point x="1018" y="100"/>
      <point x="1090" y="195"/>
      <point x="1147" y="367" type="curve"/>
      <point x="1061" y="367" type="line"/>
      <point x="1040" y="314"/>
      <point x="1019" y="268"/>
      <point x="992" y="236" type="curve" smooth="yes"/>
      <point x="965" y="204"/>
      <point x="933" y="186"/>
      <point x="889" y="186" type="curve" smooth="yes"/>
      <point x="825" y="186"/>
      <point x="809" y="221"/>
      <point x="809" y="262" type="curve" smooth="yes"/>
      <point x="809" y="285"/>
      <point x="812" y="305"/>
      <point x="819" y="328" type="curve"/>
      <point x="842" y="430" type="line" smooth="yes"/>
      <point x="849" y="457"/>
      <point x="850" y="483"/>
      <point x="850" y="508" type="curve" smooth="yes"/>
      <point x="850" y="573"/>
      <point x="832" y="633"/>
      <point x="795" y="677" type="curve" smooth="yes"/>
      <point x="758" y="721"/>
      <point x="701" y="748"/>
      <point x="625" y="748" type="curve" smooth="yes"/>
      <point x="602" y="748"/>
      <point x="580" y="745"/>
      <point x="557" y="739" type="curve"/>
      <point x="967" y="1024" type="line"/>
      <point x="764" y="1024" type="line"/>
      <point x="369" y="713" type="line"/>
      <point x="436" y="1025" type="line"/>
      <point x="140" y="1025" type="line"/>
      <point x="-78" y="0" type="line"/>
      <point x="217" y="0" type="line"/>
      <point x="324" y="506" type="line"/>
      <point x="381" y="553"/>
      <point x="428" y="582"/>
      <point x="475" y="582" type="curve" smooth="yes"/>
      <point x="531" y="582"/>
      <point x="549" y="543"/>
      <point x="549" y="483" type="curve" smooth="yes"/>
      <point x="549" y="460"/>
      <point x="548" y="435"/>
      <point x="541" y="408" type="curve"/>
      <point x="524" y="328" type="line" smooth="yes"/>
      <point x="516" y="289"/>
      <point x="512" y="253"/>
      <point x="512" y="221" type="curve" smooth="yes"/>
      <point x="512" y="72"/>
      <point x="599" y="-12"/>
      <point x="770" y="-12" type="curve" smooth="yes"/>
    </contour>
  </outline>
</glyph>
<glyph name="Lacute" format="1">
  <advance width="776"/>
  <unicode hex="0139"/>
  <note>
	Lacute
  </note>
  <outline>
    <contour>
      <point x="1201" y="-512"/>
      <point x="1249" y="-481"/>
      <point x="1285" y="-425" type="curve" smooth="yes"/>
      <point x="1321" y="-369"/>
      <point x="1346" y="-289"/>
      <point x="1358" y="-190" type="curve"/>
      <point x="1298" y="-215"/>
      <point x="1242" y="-223"/>
      <point x="1186" y="-223" type="curve" smooth="yes"/>
      <point x="1143" y="-223"/>
      <point x="1101" y="-218"/>
      <point x="1060" y="-207" type="curve" smooth="yes"/>
      <point x="978" y="-186"/>
      <point x="900" y="-150"/>
      <point x="825" y="-109" type="curve" smooth="yes"/>
      <point x="787" y="-89"/>
      <point x="750" y="-69"/>
      <point x="713" y="-49" type="curve" smooth="yes"/>
      <point x="640" y="-10"/>
      <point x="569" y="25"/>
      <point x="498" y="41" type="curve"/>
      <point x="813" y="1511" type="line"/>
      <point x="786" y="1514"/>
      <point x="762" y="1516"/>
      <point x="731" y="1516" type="curve" smooth="yes"/>
      <point x="616" y="1516"/>
      <point x="499" y="1487"/>
      <point x="393" y="1439" type="curve" smooth="yes"/>
      <point x="287" y="1390"/>
      <point x="191" y="1321"/>
      <point x="123" y="1242" type="curve" smooth="yes"/>
      <point x="54" y="1163"/>
      <point x="12" y="1074"/>
      <point x="12" y="983" type="curve" smooth="yes"/>
      <point x="12" y="910"/>
      <point x="32" y="860"/>
      <point x="69" y="829" type="curve" smooth="yes"/>
      <point x="105" y="797"/>
      <point x="160" y="784"/>
      <point x="231" y="784" type="curve"/>
      <point x="231" y="788"/>
      <point x="230" y="793"/>
      <point x="227" y="798" type="curve" smooth="yes"/>
      <point x="224" y="803"/>
      <point x="220" y="811"/>
      <point x="217" y="821" type="curve"/>
      <point x="210" y="841"/>
      <point x="203" y="872"/>
      <point x="203" y="924" type="curve" smooth="yes"/>
      <point x="203" y="1147"/>
      <point x="308" y="1295"/>
      <point x="489" y="1370" type="curve"/>
      <point x="184" y="-49" type="line"/>
      <point x="193" y="-48"/>
      <point x="201" y="-47"/>
      <point x="208" y="-47" type="curve" smooth="yes"/>
      <point x="215" y="-47"/>
      <point x="223" y="-47"/>
      <point x="231" y="-47" type="curve" smooth="yes"/>
      <point x="292" y="-47"/>
      <point x="350" y="-58"/>
      <point x="405" y="-81" type="curve" smooth="yes"/>
      <point x="515" y="-127"/>
      <point x="617" y="-199"/>
      <point x="714" y="-279" type="curve" smooth="yes"/>
      <point x="763" y="-320"/>
      <point x="811" y="-357"/>
      <point x="859" y="-391" type="curve" smooth="yes"/>
      <point x="954" y="-460"/>
      <point x="1048" y="-512"/>
      <point x="1145" y="-512" type="curve" smooth="yes"/>
    </contour>
    <contour>
      <point x="779" y="1661" type="line"/>
      <point x="1027" y="2048" type="line"/>
      <point x="812" y="2048" type="line"/>
      <point x="625" y="1661" type="line"/>
    </contour>
  </outline>
</glyph>
<glyph name="lcaron" format="1">
  <advance width="547"/>
  <unicode hex="013E"/>
  <note>
	lcaron
  </note>
  <outline>
    <contour>
      <point x="239" y="-12"/>
      <point x="286" y="-7"/>
      <point x="337" y="12" type="curve" smooth="yes"/>
      <point x="388" y="31"/>
      <point x="443" y="64"/>
      <point x="495" y="120" type="curve" smooth="yes"/>
      <point x="546" y="176"/>
      <point x="594" y="256"/>
      <point x="633" y="367" type="curve"/>
      <point x="547" y="367" type="line"/>
      <point x="531" y="315"/>
      <point x="505" y="269"/>
      <point x="473" y="237" type="curve" smooth="yes"/>
      <point x="441" y="205"/>
      <point x="402" y="186"/>
      <point x="362" y="186" type="curve" smooth="yes"/>
      <point x="305" y="186"/>
      <point x="279" y="205"/>
      <point x="279" y="262" type="curve" smooth="yes"/>
      <point x="279" y="283"/>
      <point x="280" y="305"/>
      <point x="287" y="328" type="curve"/>
      <point x="522" y="1434" type="line"/>
      <point x="219" y="1393" type="line"/>
      <point x="0" y="367" type="line" smooth="yes"/>
      <point x="-11" y="315"/>
      <point x="-16" y="270"/>
      <point x="-16" y="233" type="curve" smooth="yes"/>
      <point x="-16" y="146"/>
      <point x="8" y="86"/>
      <point x="48" y="46" type="curve" smooth="yes"/>
      <point x="87" y="6"/>
      <point x="142" y="-12"/>
      <point x="203" y="-12" type="curve" smooth="yes"/>
    </contour>
    <contour>
      <point x="686" y="1155"/>
      <point x="735" y="1208"/>
      <point x="771" y="1264" type="curve" smooth="yes"/>
      <point x="806" y="1319"/>
      <point x="826" y="1379"/>
      <point x="826" y="1432" type="curve" smooth="yes"/>
      <point x="826" y="1512"/>
      <point x="778" y="1563"/>
      <point x="703" y="1563" type="curve" smooth="yes"/>
      <point x="628" y="1563"/>
      <point x="576" y="1517"/>
      <point x="576" y="1450" type="curve" smooth="yes"/>
      <point x="576" y="1411"/>
      <point x="597" y="1386"/>
      <point x="617" y="1363" type="curve" smooth="yes"/>
      <point x="637" y="1340"/>
      <point x="658" y="1319"/>
      <point x="658" y="1290" type="curve" smooth="yes"/>
      <point x="658" y="1276"/>
      <point x="653" y="1260"/>
      <point x="642" y="1242" type="curve" smooth="yes"/>
      <point x="631" y="1223"/>
      <point x="610" y="1198"/>
      <point x="580" y="1165" type="curve"/>
      <point x="627" y="1118" type="line"/>
    </contour>
  </outline>
</glyph>
<glyph name="Ncommaaccent" format="1">
  <advance width="1368"/>
  <unicode hex="0145"/>
  <note>
	Ncommaaccent
  </note>
  <outline>
    <contour>
      <point x="383" y="0" type="line"/>
      <point x="617" y="1016" type="line"/>
      <point x="854" y="0" type="line"/>
      <point x="1137" y="0" type="line"/>
      <point x="1471" y="1532" type="line"/>
      <point x="1272" y="1532" type="line"/>
      <point x="1043" y="420" type="line"/>
      <point x="796" y="1516" type="line"/>
      <point x="739" y="1536"/>
      <point x="698" y="1544"/>
      <point x="634" y="1544" type="curve" smooth="yes"/>
      <point x="519" y="1544"/>
      <point x="413" y="1517"/>
      <point x="321" y="1470" type="curve" smooth="yes"/>
      <point x="229" y="1422"/>
      <point x="152" y="1355"/>
      <point x="98" y="1275" type="curve" smooth="yes"/>
      <point x="44" y="1195"/>
      <point x="12" y="1103"/>
      <point x="12" y="1006" type="curve" smooth="yes"/>
      <point x="12" y="853"/>
      <point x="93" y="784"/>
      <point x="268" y="784" type="curve"/>
      <point x="233" y="829"/>
      <point x="213" y="905"/>
      <point x="213" y="993" type="curve" smooth="yes"/>
      <point x="213" y="1193"/>
      <point x="308" y="1336"/>
      <point x="497" y="1403" type="curve"/>
      <point x="189" y="0" type="line"/>
    </contour>
    <contour>
      <point x="598" y="-477"/>
      <point x="643" y="-433"/>
      <point x="675" y="-386" type="curve" smooth="yes"/>
      <point x="706" y="-339"/>
      <point x="724" y="-289"/>
      <point x="724" y="-244" type="curve" smooth="yes"/>
      <point x="724" y="-173"/>
      <point x="681" y="-131"/>
      <point x="616" y="-131" type="curve" smooth="yes"/>
      <point x="548" y="-131"/>
      <point x="501" y="-171"/>
      <point x="501" y="-227" type="curve" smooth="yes"/>
      <point x="501" y="-260"/>
      <point x="519" y="-281"/>
      <point x="538" y="-300" type="curve" smooth="yes"/>
      <point x="557" y="-320"/>
      <point x="575" y="-338"/>
      <point x="575" y="-362" type="curve" smooth="yes"/>
      <point x="575" y="-375"/>
      <point x="570" y="-389"/>
      <point x="559" y="-404" type="curve" smooth="yes"/>
      <point x="548" y="-419"/>
      <point x="530" y="-441"/>
      <point x="505" y="-469" type="curve"/>
      <point x="546" y="-510" type="line"/>
    </contour>
  </outline>
</glyph>
<glyph name="napostrophe" format="1">
  <advance width="1034"/>
  <unicode hex="0149"/>
  <note>
	napostrophe
  </note>
  <outline>
    <contour>
      <point x="794" y="-12"/>
      <point x="860" y="-1"/>
      <point x="928" y="52" type="curve" smooth="yes"/>
      <point x="995" y="104"/>
      <point x="1063" y="199"/>
      <point x="1120" y="367" type="curve"/>
      <point x="1034" y="367" type="line"/>
      <point x="1013" y="314"/>
      <point x="992" y="268"/>
      <point x="965" y="236" type="curve" smooth="yes"/>
      <point x="938" y="204"/>
      <point x="906" y="186"/>
      <point x="862" y="186" type="curve" smooth="yes"/>
      <point x="799" y="186"/>
      <point x="780" y="221"/>
      <point x="780" y="272" type="curve" smooth="yes"/>
      <point x="780" y="291"/>
      <point x="783" y="314"/>
      <point x="788" y="340" type="curve" smooth="yes"/>
      <point x="798" y="391"/>
      <point x="813" y="452"/>
      <point x="830" y="517" type="curve" smooth="yes"/>
      <point x="838" y="550"/>
      <point x="846" y="583"/>
      <point x="853" y="616" type="curve" smooth="yes"/>
      <point x="868" y="682"/>
      <point x="879" y="746"/>
      <point x="879" y="801" type="curve" smooth="yes"/>
      <point x="879" y="882"/>
      <point x="855" y="941"/>
      <point x="815" y="978" type="curve" smooth="yes"/>
      <point x="774" y="1015"/>
      <point x="716" y="1032"/>
      <point x="651" y="1032" type="curve" smooth="yes"/>
      <point x="619" y="1032"/>
      <point x="582" y="1028"/>
      <point x="541" y="1012" type="curve" smooth="yes"/>
      <point x="500" y="996"/>
      <point x="456" y="967"/>
      <point x="412" y="918" type="curve"/>
      <point x="434" y="1024" type="line"/>
      <point x="139" y="1024" type="line"/>
      <point x="-78" y="0" type="line"/>
      <point x="217" y="0" type="line"/>
      <point x="356" y="657" type="line"/>
      <point x="372" y="709"/>
      <point x="393" y="757"/>
      <point x="420" y="791" type="curve" smooth="yes"/>
      <point x="447" y="825"/>
      <point x="479" y="846"/>
      <point x="516" y="846" type="curve" smooth="yes"/>
      <point x="565" y="846"/>
      <point x="590" y="811"/>
      <point x="590" y="741" type="curve" smooth="yes"/>
      <point x="590" y="676"/>
      <point x="567" y="580"/>
      <point x="544" y="483" type="curve" smooth="yes"/>
      <point x="521" y="386"/>
      <point x="498" y="288"/>
      <point x="498" y="219" type="curve" smooth="yes"/>
      <point x="498" y="160"/>
      <point x="514" y="103"/>
      <point x="551" y="60" type="curve" smooth="yes"/>
      <point x="588" y="16"/>
      <point x="648" y="-12"/>
      <point x="739" y="-12" type="curve" smooth="yes"/>
    </contour>
    <contour>
      <point x="186" y="1155"/>
      <point x="235" y="1208"/>
      <point x="271" y="1264" type="curve" smooth="yes"/>
      <point x="306" y="1319"/>
      <point x="326" y="1379"/>
      <point x="326" y="1432" type="curve" smooth="yes"/>
      <point x="326" y="1512"/>
      <point x="278" y="1563"/>
      <point x="203" y="1563" type="curve" smooth="yes"/>
      <point x="128" y="1563"/>
      <point x="76" y="1517"/>
      <point x="76" y="1450" type="curve" smooth="yes"/>
      <point x="76" y="1411"/>
      <point x="97" y="1386"/>
      <point x="117" y="1363" type="curve" smooth="yes"/>
      <point x="137" y="1340"/>
      <point x="158" y="1319"/>
      <point x="158" y="1290" type="curve" smooth="yes"/>
      <point x="158" y="1276"/>
      <point x="153" y="1260"/>
      <point x="142" y="1242" type="curve" smooth="yes"/>
      <point x="131" y="1223"/>
      <point x="110" y="1198"/>
      <point x="80" y="1165" type="curve"/>
      <point x="127" y="1118" type="line"/>
    </contour>
  </outline>
</glyph>
<glyph name="eng" format="1">
  <advance width="1034"/>
  <unicode hex="014B"/>
  <note>
	eng
  </note>
  <outline>
    <contour>
      <point x="422" y="-512"/>
      <point x="500" y="-480"/>
      <point x="561" y="-420" type="curve" smooth="yes"/>
      <point x="621" y="-361"/>
      <point x="664" y="-275"/>
      <point x="687" y="-164" type="curve" smooth="yes"/>
      <point x="814" y="436" type="line" smooth="yes"/>
      <point x="847" y="593"/>
      <point x="863" y="707"/>
      <point x="863" y="791" type="curve" smooth="yes"/>
      <point x="863" y="959"/>
      <point x="801" y="1032"/>
      <point x="658" y="1032" type="curve" smooth="yes"/>
      <point x="558" y="1032"/>
      <point x="481" y="995"/>
      <point x="410" y="918" type="curve"/>
      <point x="402" y="918" type="line"/>
      <point x="425" y="1024" type="line"/>
      <point x="138" y="1024" type="line"/>
      <point x="-79" y="0" type="line"/>
      <point x="216" y="0" type="line"/>
      <point x="355" y="657" type="line" smooth="yes"/>
      <point x="367" y="713"/>
      <point x="389" y="761"/>
      <point x="418" y="794" type="curve" smooth="yes"/>
      <point x="446" y="827"/>
      <point x="480" y="846"/>
      <point x="519" y="846" type="curve" smooth="yes"/>
      <point x="566" y="846"/>
      <point x="582" y="819"/>
      <point x="582" y="750" type="curve" smooth="yes"/>
      <point x="582" y="721"/>
      <point x="580" y="690"/>
      <point x="574" y="648" type="curve" smooth="yes"/>
      <point x="568" y="606"/>
      <point x="557" y="554"/>
      <point x="542" y="485" type="curve" smooth="yes"/>
      <point x="437" y="0" type="line"/>
      <point x="214" y="-72"/>
      <point x="99" y="-179"/>
      <point x="99" y="-315" type="curve" smooth="yes"/>
      <point x="99" y="-375"/>
      <point x="122" y="-424"/>
      <point x="162" y="-458" type="curve" smooth="yes"/>
      <point x="202" y="-492"/>
      <point x="260" y="-512"/>
      <point x="331" y="-512" type="curve" smooth="yes"/>
    </contour>
    <contour>
      <point x="195" y="-379"/>
      <point x="167" y="-350"/>
      <point x="167" y="-303" type="curve" smooth="yes"/>
      <point x="167" y="-258"/>
      <point x="192" y="-213"/>
      <point x="236" y="-173" type="curve" smooth="yes"/>
      <point x="280" y="-134"/>
      <point x="342" y="-101"/>
      <point x="417" y="-78" type="curve"/>
      <point x="396" y="-170" type="line" smooth="yes"/>
      <point x="363" y="-314"/>
      <point x="316" y="-379"/>
      <point x="243" y="-379" type="curve" smooth="yes"/>
    </contour>
  </outline>
</glyph>
<glyph name="OE" format="1">
  <advance width="1733"/>
  <unicode hex="0152"/>
  <note>
	OE
  </note>
  <outline>
    <contour>
      <point x="639" y="-12"/>
      <point x="688" y="-7"/>
      <point x="735" y="4" type="curve"/>
      <point x="733" y="0" type="line"/>
      <point x="1526" y="0" type="line"/>
      <point x="1569" y="217" type="line"/>
      <point x="1069" y="217" type="line"/>
      <point x="1189" y="353"/>
      <point x="1264" y="531"/>
      <point x="1305" y="707" type="curve"/>
      <point x="1565" y="707" type="line"/>
      <point x="1606" y="858" type="line"/>
      <point x="1333" y="858" type="line"/>
      <point x="1340" y="911"/>
      <point x="1343" y="963"/>
      <point x="1343" y="1012" type="curve" smooth="yes"/>
      <point x="1343" y="1152"/>
      <point x="1317" y="1273"/>
      <point x="1253" y="1364" type="curve"/>
      <point x="1287" y="1361"/>
      <point x="1321" y="1355"/>
      <point x="1354" y="1347" type="curve" smooth="yes"/>
      <point x="1387" y="1338"/>
      <point x="1421" y="1330"/>
      <point x="1456" y="1322" type="curve" smooth="yes"/>
      <point x="1524" y="1305"/>
      <point x="1597" y="1290"/>
      <point x="1677" y="1290" type="curve"/>
      <point x="1716" y="1298"/>
      <point x="1747" y="1312"/>
      <point x="1770" y="1331" type="curve" smooth="yes"/>
      <point x="1815" y="1369"/>
      <point x="1840" y="1417"/>
      <point x="1853" y="1467" type="curve" smooth="yes"/>
      <point x="1859" y="1492"/>
      <point x="1865" y="1515"/>
      <point x="1872" y="1536" type="curve"/>
      <point x="1815" y="1517"/>
      <point x="1752" y="1511"/>
      <point x="1688" y="1511" type="curve" smooth="yes"/>
      <point x="1655" y="1511"/>
      <point x="1622" y="1512"/>
      <point x="1591" y="1515" type="curve" smooth="yes"/>
      <point x="1527" y="1520"/>
      <point x="1469" y="1527"/>
      <point x="1418" y="1532" type="curve" smooth="yes"/>
      <point x="1392" y="1535"/>
      <point x="1369" y="1536"/>
      <point x="1348" y="1536" type="curve" smooth="yes"/>
      <point x="1229" y="1536"/>
      <point x="1152" y="1522"/>
      <point x="1083" y="1497" type="curve"/>
      <point x="1022" y="1522"/>
      <point x="946" y="1536"/>
      <point x="858" y="1536" type="curve" smooth="yes"/>
      <point x="714" y="1536"/>
      <point x="575" y="1506"/>
      <point x="452" y="1455" type="curve" smooth="yes"/>
      <point x="329" y="1404"/>
      <point x="226" y="1333"/>
      <point x="151" y="1250" type="curve" smooth="yes"/>
      <point x="76" y="1166"/>
      <point x="33" y="1073"/>
      <point x="33" y="977" type="curve" smooth="yes"/>
      <point x="33" y="852"/>
      <point x="109" y="805"/>
      <point x="240" y="805" type="curve"/>
      <point x="240" y="809"/>
      <point x="239" y="813"/>
      <point x="237" y="818" type="curve"/>
      <point x="234" y="823"/>
      <point x="232" y="829"/>
      <point x="230" y="837" type="curve"/>
      <point x="225" y="852"/>
      <point x="219" y="875"/>
      <point x="219" y="915" type="curve" smooth="yes"/>
      <point x="219" y="1078"/>
      <point x="288" y="1209"/>
      <point x="397" y="1301" type="curve" smooth="yes"/>
      <point x="505" y="1392"/>
      <point x="653" y="1442"/>
      <point x="809" y="1442" type="curve" smooth="yes"/>
      <point x="917" y="1442"/>
      <point x="982" y="1412"/>
      <point x="1021" y="1352" type="curve" smooth="yes"/>
      <point x="1060" y="1292"/>
      <point x="1071" y="1202"/>
      <point x="1071" y="1083" type="curve" smooth="yes"/>
      <point x="1071" y="946"/>
      <point x="1046" y="797"/>
      <point x="1006" y="659" type="curve" smooth="yes"/>
      <point x="966" y="521"/>
      <point x="910" y="395"/>
      <point x="846" y="303" type="curve" smooth="yes"/>
      <point x="782" y="211"/>
      <point x="712" y="154"/>
      <point x="643" y="154" type="curve" smooth="yes"/>
      <point x="600" y="154"/>
      <point x="571" y="179"/>
      <point x="552" y="221" type="curve" smooth="yes"/>
      <point x="533" y="263"/>
      <point x="524" y="322"/>
      <point x="524" y="391" type="curve" smooth="yes"/>
      <point x="524" y="496"/>
      <point x="543" y="625"/>
      <point x="576" y="754" type="curve" smooth="yes"/>
      <point x="608" y="882"/>
      <point x="654" y="1011"/>
      <point x="707" y="1117" type="curve" smooth="yes"/>
      <point x="760" y="1223"/>
      <point x="820" y="1306"/>
      <point x="883" y="1343" type="curve"/>
      <point x="844" y="1358"/>
      <point x="811" y="1360"/>
      <point x="776" y="1360" type="curve" smooth="yes"/>
      <point x="653" y="1360"/>
      <point x="551" y="1290"/>
      <point x="469" y="1185" type="curve" smooth="yes"/>
      <point x="387" y="1080"/>
      <point x="324" y="938"/>
      <point x="283" y="796" type="curve" smooth="yes"/>
      <point x="242" y="654"/>
      <point x="221" y="510"/>
      <point x="221" y="399" type="curve" smooth="yes"/>
      <point x="221" y="250"/>
      <point x="259" y="146"/>
      <point x="324" y="81" type="curve" smooth="yes"/>
      <point x="389" y="16"/>
      <point x="480" y="-12"/>
      <point x="588" y="-12" type="curve" smooth="yes"/>
    </contour>
  </outline>
</glyph>
<glyph name="Rcommaaccent" format="1">
  <advance width="1231"/>
  <unicode hex="0156"/>
  <note>
	Rcommaaccent
  </note>
  <outline>
    <contour>
      <point x="942" y="-35"/>
      <point x="1008" y="-25"/>
      <point x="1096" y="0" type="curve"/>
      <point x="1047" y="19"/>
      <point x="1016" y="71"/>
      <point x="1016" y="135" type="curve" smooth="yes"/>
      <point x="1016" y="200"/>
      <point x="1041" y="287"/>
      <point x="1066" y="379" type="curve" smooth="yes"/>
      <point x="1091" y="471"/>
      <point x="1116" y="568"/>
      <point x="1116" y="653" type="curve" smooth="yes"/>
      <point x="1116" y="701"/>
      <point x="1107" y="745"/>
      <point x="1086" y="781" type="curve" smooth="yes"/>
      <point x="1065" y="816"/>
      <point x="1028" y="842"/>
      <point x="975" y="858" type="curve"/>
      <point x="1046" y="899"/>
      <point x="1101" y="957"/>
      <point x="1139" y="1018" type="curve" smooth="yes"/>
      <point x="1177" y="1079"/>
      <point x="1196" y="1145"/>
      <point x="1196" y="1208" type="curve" smooth="yes"/>
      <point x="1196" y="1292"/>
      <point x="1160" y="1374"/>
      <point x="1084" y="1435" type="curve" smooth="yes"/>
      <point x="1008" y="1496"/>
      <point x="892" y="1536"/>
      <point x="731" y="1536" type="curve" smooth="yes"/>
      <point x="616" y="1536"/>
      <point x="499" y="1507"/>
      <point x="393" y="1459" type="curve" smooth="yes"/>
      <point x="287" y="1410"/>
      <point x="191" y="1342"/>
      <point x="123" y="1263" type="curve" smooth="yes"/>
      <point x="54" y="1184"/>
      <point x="12" y="1095"/>
      <point x="12" y="1004" type="curve" smooth="yes"/>
      <point x="12" y="929"/>
      <point x="32" y="880"/>
      <point x="69" y="849" type="curve" smooth="yes"/>
      <point x="105" y="818"/>
      <point x="160" y="805"/>
      <point x="231" y="805" type="curve"/>
      <point x="231" y="809"/>
      <point x="230" y="814"/>
      <point x="227" y="819" type="curve" smooth="yes"/>
      <point x="224" y="824"/>
      <point x="220" y="832"/>
      <point x="217" y="842" type="curve"/>
      <point x="210" y="861"/>
      <point x="203" y="892"/>
      <point x="203" y="944" type="curve" smooth="yes"/>
      <point x="203" y="1100"/>
      <point x="258" y="1224"/>
      <point x="355" y="1310" type="curve" smooth="yes"/>
      <point x="452" y="1396"/>
      <point x="589" y="1442"/>
      <point x="756" y="1442" type="curve" smooth="yes"/>
      <point x="836" y="1442"/>
      <point x="892" y="1417"/>
      <point x="928" y="1378" type="curve" smooth="yes"/>
      <point x="964" y="1338"/>
      <point x="981" y="1284"/>
      <point x="981" y="1227" type="curve" smooth="yes"/>
      <point x="981" y="1148"/>
      <point x="951" y="1059"/>
      <point x="900" y="990" type="curve" smooth="yes"/>
      <point x="848" y="921"/>
      <point x="775" y="870"/>
      <point x="690" y="870" type="curve" smooth="yes"/>
      <point x="674" y="870" type="line"/>
      <point x="774" y="1343" type="line"/>
      <point x="471" y="1303" type="line"/>
      <point x="193" y="0" type="line"/>
      <point x="487" y="0" type="line"/>
      <point x="651" y="772" type="line"/>
      <point x="678" y="779"/>
      <point x="700" y="780"/>
      <point x="719" y="780" type="curve" smooth="yes"/>
      <point x="764" y="780"/>
      <point x="796" y="766"/>
      <point x="815" y="742" type="curve" smooth="yes"/>
      <point x="834" y="717"/>
      <point x="842" y="682"/>
      <point x="842" y="641" type="curve" smooth="yes"/>
      <point x="842" y="562"/>
      <point x="815" y="463"/>
      <point x="788" y="365" type="curve" smooth="yes"/>
      <point x="760" y="267"/>
      <point x="733" y="171"/>
      <point x="733" y="102" type="curve" smooth="yes"/>
      <point x="733" y="70"/>
      <point x="740" y="36"/>
      <point x="764" y="10" type="curve" smooth="yes"/>
      <point x="787" y="-16"/>
      <point x="826" y="-35"/>
      <point x="893" y="-35" type="curve" smooth="yes"/>
    </contour>
    <contour>
      <point x="568" y="-477"/>
      <point x="613" y="-433"/>
      <point x="645" y="-386" type="curve" smooth="yes"/>
      <point x="676" y="-339"/>
      <point x="694" y="-289"/>
      <point x="694" y="-244" type="curve" smooth="yes"/>
      <point x="694" y="-173"/>
      <point x="651" y="-131"/>
      <point x="586" y="-131" type="curve" smooth="yes"/>
      <point x="518" y="-131"/>
      <point x="471" y="-171"/>
      <point x="471" y="-227" type="curve" smooth="yes"/>
      <point x="471" y="-260"/>
      <point x="489" y="-281"/>
      <point x="508" y="-300" type="curve" smooth="yes"/>
      <point x="527" y="-320"/>
      <point x="545" y="-338"/>
      <point x="545" y="-362" type="curve" smooth="yes"/>
      <point x="545" y="-375"/>
      <point x="540" y="-389"/>
      <point x="529" y="-404" type="curve" smooth="yes"/>
      <point x="518" y="-419"/>
      <point x="500" y="-441"/>
      <point x="475" y="-469" type="curve"/>
      <point x="516" y="-510" type="line"/>
    </contour>
  </outline>
</glyph>
<glyph name="rcaron" format="1">
  <advance width="770"/>
  <unicode hex="0159"/>
  <note>
	rcaron
  </note>
  <outline>
    <contour>
      <point x="217" y="0" type="line"/>
      <point x="381" y="778" type="line"/>
      <point x="432" y="825"/>
      <point x="467" y="856"/>
      <point x="530" y="856" type="curve" smooth="yes"/>
      <point x="540" y="856"/>
      <point x="547" y="853"/>
      <point x="552" y="846" type="curve"/>
      <point x="560" y="833"/>
      <point x="565" y="812"/>
      <point x="570" y="789" type="curve"/>
      <point x="572" y="777"/>
      <point x="576" y="766"/>
      <point x="581" y="756" type="curve"/>
      <point x="592" y="736"/>
      <point x="610" y="721"/>
      <point x="649" y="721" type="curve" smooth="yes"/>
      <point x="698" y="721"/>
      <point x="736" y="741"/>
      <point x="761" y="769" type="curve" smooth="yes"/>
      <point x="785" y="797"/>
      <point x="797" y="834"/>
      <point x="797" y="870" type="curve" smooth="yes"/>
      <point x="797" y="910"/>
      <point x="785" y="949"/>
      <point x="761" y="977" type="curve" smooth="yes"/>
      <point x="737" y="1005"/>
      <point x="702" y="1024"/>
      <point x="655" y="1024" type="curve" smooth="yes"/>
      <point x="606" y="1024"/>
      <point x="562" y="1008"/>
      <point x="522" y="985" type="curve" smooth="yes"/>
      <point x="481" y="961"/>
      <point x="444" y="929"/>
      <point x="408" y="897" type="curve"/>
      <point x="434" y="1024" type="line"/>
      <point x="139" y="1024" type="line"/>
      <point x="-78" y="0" type="line"/>
    </contour>
    <contour>
      <point x="421" y="1149" type="line"/>
      <point x="855" y="1536" type="line"/>
      <point x="765" y="1536" type="line"/>
      <point x="443" y="1372" type="line"/>
      <point x="320" y="1536" type="line"/>
      <point x="255" y="1536" type="line"/>
      <point x="378" y="1149" type="line"/>
    </contour>
  </outline>
</glyph>
